<svg width="222" height="120" viewBox="0 0 222 120" fill="none" xmlns="http://www.w3.org/2000/svg">
<path d="M14.0619 100.22L13.3694 103.699C13.3173 103.965 13.2627 104.236 13.2034 104.504C12.6247 104.384 12.0246 104.418 11.4628 104.602C11.9085 105.24 12.3079 105.909 12.658 106.604C12.2216 107.95 11.5813 109.195 10.5094 110.095C9.79353 110.682 8.93847 111.076 8.02671 111.236C7.11496 111.397 6.17727 111.319 5.30408 111.011L5.33491 110.874C4.18238 108.634 4.80845 105.81 6.24081 103.742C6.97137 102.721 7.83696 101.805 8.81385 101.018C9.78139 100.211 10.8272 99.4862 11.8635 98.7714C12.0963 98.6111 12.3715 98.524 12.654 98.5211C12.9364 98.5182 13.2133 98.5997 13.4493 98.7552C13.6853 98.9107 13.8696 99.1331 13.9787 99.3941C14.0878 99.655 14.1168 99.9426 14.0619 100.22Z" fill="#E4E4E4"/>
<path d="M5.54976 119.383C5.25831 117.257 4.95856 115.103 5.16298 112.954C5.34463 111.046 5.92588 109.182 7.10971 107.653C7.73804 106.844 8.50259 106.15 9.369 105.603C9.595 105.461 9.80274 105.819 9.57793 105.961C8.07886 106.91 6.91938 108.311 6.26666 109.962C5.54573 111.798 5.43 113.8 5.55522 115.75C5.63039 116.93 5.78952 118.102 5.95006 119.272C5.96299 119.325 5.95522 119.381 5.92832 119.429C5.90143 119.476 5.85746 119.511 5.80541 119.527C5.75246 119.542 5.69601 119.535 5.64832 119.507C5.60063 119.48 5.56556 119.435 5.55071 119.383L5.54976 119.383Z" fill="#F2F2F2"/>
<path d="M8.0525 12.7371C18.2112 12.5602 28.371 12.5348 38.5319 12.6608C48.6913 12.7876 58.8473 13.0666 68.9999 13.4978C74.6969 13.7397 80.3917 14.0296 86.0841 14.3673C86.5414 14.3944 86.5398 13.6819 86.0841 13.6549C75.9416 13.0538 65.7917 12.6041 55.6344 12.3057C45.4786 12.0081 35.3198 11.8626 25.1581 11.8694C19.4559 11.8732 13.754 11.9249 8.0525 12.0246C7.5952 12.0326 7.59376 12.7451 8.0525 12.7371Z" fill="#E6E6E6"/>
<path d="M78.8476 8.26982L83.2897 7.93874C83.7435 7.90491 83.7472 7.19219 83.2897 7.22628L78.8476 7.55736C78.3938 7.59119 78.3901 8.30392 78.8476 8.26982Z" fill="#E6E6E6"/>
<path d="M78.8476 12.5447L83.2897 12.2136C83.7435 12.1798 83.7472 11.4671 83.2897 11.5012L78.8476 11.8323C78.3938 11.8661 78.3901 12.5788 78.8476 12.5447Z" fill="#E6E6E6"/>
<path d="M78.5146 10.5926L84.8303 11.1672C85.2861 11.2087 85.2833 10.496 84.8303 10.4548L78.5146 9.88016C78.0588 9.83869 78.0616 10.5514 78.5146 10.5926Z" fill="#E6E6E6"/>
<path d="M10.6808 7.31204C10.3719 7.31013 10.0692 7.39931 9.81058 7.56847C9.55194 7.73763 9.34874 7.97928 9.22631 8.2633C9.08935 8.54127 9.04707 8.85653 9.10594 9.16084C9.16481 9.46516 9.32159 9.74179 9.5523 9.94844C9.76918 10.1332 10.0293 10.2599 10.3084 10.3167C10.5874 10.3735 10.8763 10.3585 11.148 10.2731C11.4259 10.1759 11.6668 9.99486 11.8377 9.75488C12.0085 9.51489 12.1009 9.22777 12.1021 8.93304C12.1145 8.60604 12.0261 8.28315 11.8488 8.00828C11.6715 7.7334 11.4139 7.51988 11.1112 7.39675C11.0202 7.37201 10.9232 7.38427 10.8412 7.43088C10.7593 7.47748 10.699 7.55465 10.6736 7.64555C10.6512 7.73656 10.6644 7.83271 10.7107 7.91423C10.7569 7.99574 10.8325 8.05641 10.9221 8.08375C10.9841 8.10774 10.8654 8.05324 10.9233 8.08482C10.9471 8.0978 10.9714 8.10953 10.9947 8.1234C11.0146 8.13518 11.0336 8.14808 11.053 8.16072C11.1194 8.20412 11.0205 8.12885 11.063 8.16787C11.0998 8.20171 11.1363 8.23472 11.1697 8.27205C11.1824 8.28617 11.2319 8.32542 11.1934 8.29799C11.1639 8.277 11.1821 8.28193 11.1934 8.29879C11.202 8.31158 11.2111 8.32402 11.2196 8.33689C11.2474 8.37892 11.2726 8.42256 11.2951 8.46759C11.3004 8.47801 11.3052 8.48867 11.3105 8.49904C11.3204 8.51847 11.3349 8.52356 11.3115 8.49922C11.2891 8.47597 11.3033 8.47756 11.3113 8.49994C11.3166 8.51464 11.3223 8.52916 11.3275 8.54392C11.3441 8.59198 11.3581 8.64092 11.3694 8.69053C11.3746 8.71346 11.3788 8.73652 11.3833 8.75959C11.3992 8.8414 11.381 8.70873 11.3848 8.7695C11.388 8.82024 11.3918 8.87043 11.3909 8.92137C11.3905 8.94468 11.3895 8.96796 11.3878 8.99121C11.387 9.00281 11.3857 9.01438 11.385 9.02598C11.3813 9.08188 11.3812 9.00555 11.389 9.00033C11.3727 9.04778 11.3619 9.09694 11.3568 9.14685C11.3504 9.169 11.3429 9.19067 11.3358 9.21257C11.311 9.289 11.359 9.17091 11.3327 9.22315C11.3109 9.26802 11.2867 9.31161 11.26 9.3537C11.2484 9.37133 11.2047 9.41113 11.2404 9.38343C11.2792 9.35336 11.2201 9.40514 11.2075 9.41846C11.1913 9.43557 11.1745 9.45209 11.157 9.46801C11.1459 9.47892 11.1341 9.48918 11.1217 9.49872C11.1195 9.49758 11.1812 9.45746 11.1479 9.4787C11.1057 9.5057 11.0656 9.53458 11.0211 9.55808C11.0159 9.56081 10.959 9.58723 10.9592 9.58817C10.9567 9.57855 11.0324 9.56149 10.9805 9.5783C10.9696 9.58183 10.9589 9.58609 10.948 9.58976C10.9007 9.6057 10.8524 9.61858 10.8035 9.6283C10.7923 9.63054 10.7804 9.63167 10.7694 9.63453C10.7326 9.64406 10.8045 9.62895 10.8067 9.63019C10.7795 9.62902 10.7523 9.63143 10.7257 9.63737C10.6753 9.64026 10.6247 9.64026 10.5742 9.63736C10.5625 9.63669 10.5509 9.63552 10.5392 9.63484C10.5121 9.63326 10.4922 9.61371 10.5283 9.63494C10.5561 9.65132 10.5538 9.63937 10.5291 9.63481C10.5176 9.63267 10.506 9.63087 10.4945 9.62871C10.4445 9.61934 10.3951 9.60722 10.3465 9.59241C10.3204 9.58442 10.2947 9.57514 10.2689 9.56611C10.2577 9.56284 10.2467 9.55862 10.2362 9.55349C10.236 9.55055 10.3027 9.5854 10.2675 9.5664C10.2231 9.54241 10.1771 9.52231 10.1337 9.4961C10.1106 9.48211 10.0883 9.46691 10.0658 9.45193C10.0559 9.44596 10.0465 9.43921 10.0377 9.43175C10.0384 9.42873 10.0928 9.47922 10.0643 9.45197C10.0281 9.41749 9.98951 9.38664 9.9553 9.34993C9.94747 9.34154 9.94007 9.33275 9.93228 9.32433L9.92473 9.3157C9.90545 9.2921 9.90509 9.29221 9.92366 9.31603C9.94251 9.32159 9.94165 9.34232 9.92376 9.31541C9.91739 9.30582 9.91061 9.2965 9.90425 9.2869C9.87536 9.24568 9.85072 9.20163 9.83072 9.15542C9.83245 9.15407 9.86154 9.24114 9.8393 9.17543C9.8351 9.16302 9.83037 9.1508 9.82626 9.13836C9.81808 9.11368 9.81089 9.08873 9.80467 9.0635C9.79853 9.03851 9.79537 9.01272 9.78917 8.98783C9.77871 8.94588 9.79528 9.02093 9.79339 9.01906C9.78746 9.0132 9.78998 8.97681 9.78954 8.96811C9.78669 8.91221 9.79305 8.85796 9.79404 8.8024C9.79482 8.75936 9.79049 8.83594 9.78959 8.8337C9.78981 8.8208 9.79209 8.80803 9.79634 8.79586C9.80278 8.76656 9.80878 8.73729 9.81666 8.70831C9.82568 8.67513 9.83608 8.64235 9.84783 8.60999C9.85222 8.59788 9.85758 8.58594 9.86167 8.57373C9.87664 8.529 9.83202 8.62775 9.85662 8.58742C9.89047 8.53192 9.91567 8.47187 9.95161 8.41706C9.96012 8.40406 10.0119 8.33169 9.98441 8.36823C9.95705 8.40463 10.0125 8.33565 10.023 8.32394C10.0667 8.27528 10.118 8.23533 10.1632 8.18874C10.1899 8.16116 10.1445 8.20232 10.1418 8.20424C10.1558 8.19423 10.1695 8.18384 10.1837 8.17407C10.2084 8.15702 10.2337 8.1409 10.2596 8.12571C10.2888 8.10858 10.3218 8.09582 10.35 8.0777C10.3835 8.05629 10.3245 8.0871 10.3234 8.08774C10.3387 8.08016 10.3547 8.07407 10.3711 8.06955C10.3986 8.05977 10.5184 8.00801 10.5436 8.02419C10.5424 8.02346 10.4526 8.03144 10.5252 8.02676C10.5424 8.02566 10.5595 8.02398 10.5766 8.02327C10.6114 8.02183 10.646 8.0227 10.6808 8.02451C10.7749 8.02389 10.865 7.98616 10.9316 7.91949C10.9982 7.85282 11.0359 7.76257 11.0365 7.66828C11.0345 7.57444 10.9964 7.48499 10.9301 7.41862C10.8638 7.35225 10.7745 7.31406 10.6808 7.31204Z" fill="#E6E6E6"/>
<path d="M15.6612 7.31204C15.3523 7.31013 15.0497 7.39931 14.791 7.56847C14.5324 7.73763 14.3292 7.97928 14.2068 8.2633C14.0698 8.54127 14.0275 8.85653 14.0864 9.16084C14.1453 9.46516 14.3021 9.74179 14.5328 9.94844C14.7497 10.1332 15.0098 10.2599 15.2888 10.3167C15.5679 10.3735 15.8568 10.3585 16.1285 10.2731C16.4063 10.1759 16.6473 9.99486 16.8181 9.75488C16.989 9.51489 17.0814 9.22777 17.0826 8.93304C17.095 8.60604 17.0065 8.28315 16.8292 8.00828C16.652 7.7334 16.3944 7.51988 16.0917 7.39675C16.0007 7.37201 15.9037 7.38427 15.8217 7.43088C15.7397 7.47748 15.6795 7.55465 15.6541 7.64555C15.6317 7.73656 15.6449 7.83271 15.6911 7.91423C15.7373 7.99574 15.813 8.05641 15.9025 8.08375C15.9645 8.10774 15.8459 8.05324 15.9038 8.08482C15.9276 8.0978 15.9518 8.10953 15.9752 8.1234C15.9951 8.13518 16.0141 8.14808 16.0334 8.16072C16.0998 8.20412 16.001 8.12885 16.0435 8.16787C16.0803 8.20171 16.1167 8.23472 16.1502 8.27205C16.1628 8.28617 16.2124 8.32542 16.1739 8.29799C16.1444 8.277 16.1625 8.28193 16.1739 8.29879C16.1825 8.31158 16.1916 8.32402 16.2001 8.33689C16.2279 8.37892 16.2531 8.42256 16.2756 8.46759C16.2808 8.47801 16.2856 8.48867 16.2909 8.49904C16.3009 8.51847 16.3153 8.52356 16.2919 8.49922C16.2695 8.47597 16.2838 8.47756 16.2918 8.49994C16.2971 8.51464 16.3028 8.52916 16.3079 8.54392C16.3246 8.59198 16.3386 8.64092 16.3499 8.69053C16.3551 8.71346 16.3593 8.73652 16.3638 8.75959C16.3796 8.8414 16.3614 8.70873 16.3653 8.7695C16.3685 8.82024 16.3722 8.87043 16.3713 8.92137C16.3709 8.94468 16.3699 8.96796 16.3683 8.99121C16.3675 9.00281 16.3662 9.01438 16.3654 9.02598C16.3617 9.08188 16.3616 9.00555 16.3694 9.00033C16.3532 9.04778 16.3424 9.09694 16.3373 9.14685C16.3309 9.169 16.3233 9.19067 16.3163 9.21257C16.2915 9.289 16.3395 9.17091 16.3131 9.22315C16.2914 9.26802 16.2671 9.31161 16.2404 9.3537C16.2289 9.37133 16.1852 9.41113 16.2209 9.38343C16.2597 9.35336 16.2006 9.40514 16.1879 9.41846C16.1717 9.43557 16.1549 9.45209 16.1375 9.46801C16.1263 9.47892 16.1146 9.48918 16.1022 9.49872C16.1 9.49758 16.1616 9.45746 16.1284 9.4787C16.0861 9.5057 16.0461 9.53458 16.0016 9.55808C15.9964 9.56081 15.9394 9.58723 15.9397 9.58817C15.9372 9.57855 16.0129 9.56149 15.9609 9.5783C15.95 9.58183 15.9393 9.58609 15.9285 9.58976C15.8812 9.6057 15.8329 9.61858 15.784 9.6283C15.7728 9.63054 15.7609 9.63167 15.7499 9.63453C15.7131 9.64406 15.785 9.62895 15.7872 9.63019C15.76 9.62902 15.7328 9.63143 15.7062 9.63737C15.6557 9.64026 15.6051 9.64026 15.5547 9.63736C15.543 9.63669 15.5314 9.63552 15.5197 9.63484C15.4926 9.63326 15.4727 9.61371 15.5087 9.63494C15.5366 9.65132 15.5343 9.63937 15.5096 9.63481C15.4981 9.63267 15.4865 9.63087 15.475 9.62871C15.425 9.61934 15.3756 9.60722 15.327 9.59241C15.3008 9.58442 15.2752 9.57514 15.2494 9.56611C15.2381 9.56284 15.2272 9.55862 15.2166 9.55349C15.2165 9.55055 15.2832 9.5854 15.248 9.5664C15.2035 9.54241 15.1576 9.52231 15.1142 9.4961C15.091 9.48211 15.0688 9.46691 15.0463 9.45193C15.0364 9.44596 15.027 9.43921 15.0181 9.43175C15.0189 9.42873 15.0733 9.47922 15.0447 9.45197C15.0086 9.41749 14.97 9.38664 14.9358 9.34993C14.9279 9.34154 14.9205 9.33275 14.9127 9.32433L14.9052 9.3157C14.8859 9.2921 14.8856 9.29221 14.9041 9.31603C14.923 9.32159 14.9221 9.34232 14.9042 9.31541C14.8979 9.30582 14.8911 9.2965 14.8847 9.2869C14.8558 9.24568 14.8312 9.20163 14.8112 9.15542C14.8129 9.15407 14.842 9.24114 14.8198 9.17543C14.8156 9.16302 14.8108 9.1508 14.8067 9.13836C14.7986 9.11368 14.7914 9.08873 14.7851 9.0635C14.779 9.03851 14.7758 9.01272 14.7696 8.98783C14.7592 8.94588 14.7757 9.02093 14.7739 9.01906C14.7679 9.0132 14.7705 8.97681 14.77 8.96811C14.7672 8.91221 14.7735 8.85796 14.7745 8.8024C14.7753 8.75936 14.771 8.83594 14.7701 8.8337C14.7703 8.8208 14.7726 8.80803 14.7768 8.79586C14.7833 8.76656 14.7892 8.73729 14.7971 8.70831C14.8062 8.67513 14.8165 8.64235 14.8283 8.60999C14.8327 8.59788 14.838 8.58594 14.8421 8.57373C14.8571 8.529 14.8125 8.62775 14.8371 8.58742C14.8709 8.53192 14.8961 8.47187 14.9321 8.41706C14.9406 8.40406 14.9924 8.33169 14.9649 8.36823C14.9375 8.40463 14.993 8.33565 15.0035 8.32394C15.0471 8.27528 15.0985 8.23533 15.1436 8.18874C15.1704 8.16116 15.125 8.20232 15.1223 8.20424C15.1363 8.19423 15.15 8.18384 15.1641 8.17407C15.1888 8.15702 15.2141 8.1409 15.24 8.12571C15.2692 8.10858 15.3022 8.09582 15.3305 8.0777C15.3639 8.05629 15.305 8.0871 15.3039 8.08774C15.3192 8.08016 15.3351 8.07407 15.3516 8.06955C15.3791 8.05977 15.4989 8.00801 15.524 8.02419C15.5229 8.02346 15.4331 8.03144 15.5057 8.02676C15.5228 8.02566 15.5399 8.02398 15.5571 8.02327C15.5919 8.02183 15.6265 8.0227 15.6612 8.02451C15.7554 8.02389 15.8455 7.98616 15.9121 7.91949C15.9787 7.85282 16.0163 7.76257 16.017 7.66828C16.0149 7.57444 15.9768 7.48499 15.9105 7.41862C15.8443 7.35225 15.7549 7.31406 15.6612 7.31204Z" fill="#E6E6E6"/>
<path d="M20.6397 7.31204C20.3308 7.31013 20.0282 7.39931 19.7696 7.56847C19.5109 7.73763 19.3077 7.97928 19.1853 8.2633C19.0483 8.54127 19.0061 8.85653 19.0649 9.16084C19.1238 9.46516 19.2806 9.74179 19.5113 9.94844C19.7282 10.1332 19.9883 10.2599 20.2674 10.3167C20.5464 10.3735 20.8353 10.3585 21.107 10.2731C21.3848 10.1759 21.6258 9.99486 21.7967 9.75488C21.9675 9.51489 22.0599 9.22777 22.0611 8.93304C22.0735 8.60604 21.9851 8.28315 21.8078 8.00828C21.6305 7.7334 21.3729 7.51988 21.0702 7.39675C20.9792 7.37201 20.8822 7.38427 20.8002 7.43088C20.7182 7.47748 20.658 7.55465 20.6326 7.64555C20.6102 7.73656 20.6234 7.83271 20.6696 7.91423C20.7159 7.99574 20.7915 8.05641 20.8811 8.08375C20.9431 8.10774 20.8244 8.05324 20.8823 8.08482C20.9061 8.0978 20.9304 8.10953 20.9537 8.1234C20.9736 8.13518 20.9926 8.14808 21.0119 8.16072C21.0783 8.20412 20.9795 8.12885 21.022 8.16787C21.0588 8.20171 21.0953 8.23472 21.1287 8.27205C21.1414 8.28617 21.1909 8.32542 21.1524 8.29799C21.1229 8.277 21.141 8.28193 21.1524 8.29879C21.161 8.31158 21.1701 8.32402 21.1786 8.33689C21.2064 8.37892 21.2316 8.42256 21.2541 8.46759C21.2594 8.47801 21.2641 8.48867 21.2695 8.49904C21.2794 8.51847 21.2939 8.52356 21.2704 8.49922C21.2481 8.47597 21.2623 8.47756 21.2703 8.49994C21.2756 8.51464 21.2813 8.52916 21.2864 8.54392C21.3031 8.59198 21.3171 8.64092 21.3284 8.69053C21.3336 8.71346 21.3378 8.73652 21.3423 8.75959C21.3582 8.8414 21.34 8.70873 21.3438 8.7695C21.347 8.82024 21.3507 8.87043 21.3499 8.92137C21.3495 8.94468 21.3484 8.96796 21.3468 8.99121C21.346 9.00281 21.3447 9.01438 21.3439 9.02598C21.3403 9.08188 21.3401 9.00555 21.348 9.00033C21.3317 9.04778 21.3209 9.09694 21.3158 9.14685C21.3094 9.169 21.3019 9.19067 21.2948 9.21257C21.27 9.289 21.318 9.17091 21.2916 9.22315C21.2699 9.26802 21.2457 9.31161 21.219 9.3537C21.2074 9.37133 21.1637 9.41113 21.1994 9.38343C21.2382 9.35336 21.1791 9.40514 21.1665 9.41846C21.1503 9.43557 21.1334 9.45209 21.116 9.46801C21.1049 9.47892 21.0931 9.48918 21.0807 9.49872C21.0785 9.49758 21.1402 9.45746 21.1069 9.4787C21.0646 9.5057 21.0246 9.53458 20.9801 9.55808C20.9749 9.56081 20.9179 9.58723 20.9182 9.58817C20.9157 9.57855 20.9914 9.56149 20.9395 9.5783C20.9285 9.58183 20.9178 9.58609 20.907 9.58976C20.8597 9.6057 20.8114 9.61858 20.7625 9.6283C20.7513 9.63054 20.7394 9.63167 20.7284 9.63453C20.6916 9.64406 20.7635 9.62895 20.7657 9.63019C20.7385 9.62902 20.7113 9.63143 20.6847 9.63737C20.6343 9.64026 20.5837 9.64026 20.5332 9.63736C20.5215 9.63669 20.5099 9.63552 20.4982 9.63484C20.4711 9.63326 20.4512 9.61371 20.4873 9.63494C20.5151 9.65132 20.5128 9.63937 20.4881 9.63481C20.4766 9.63267 20.465 9.63087 20.4535 9.62871C20.4035 9.61934 20.3541 9.60722 20.3055 9.59241C20.2793 9.58442 20.2537 9.57514 20.2279 9.56611C20.2166 9.56284 20.2057 9.55862 20.1952 9.55349C20.195 9.55055 20.2617 9.5854 20.2265 9.5664C20.182 9.54241 20.1361 9.52231 20.0927 9.4961C20.0696 9.48211 20.0473 9.46691 20.0248 9.45193C20.0149 9.44596 20.0055 9.43921 19.9967 9.43175C19.9974 9.42873 20.0518 9.47922 20.0232 9.45197C19.9871 9.41749 19.9485 9.38664 19.9143 9.34993C19.9065 9.34154 19.8991 9.33275 19.8913 9.32433L19.8837 9.3157C19.8644 9.2921 19.8641 9.29221 19.8826 9.31603C19.9015 9.32159 19.9006 9.34232 19.8827 9.31541C19.8764 9.30582 19.8696 9.2965 19.8632 9.2869C19.8343 9.24568 19.8097 9.20163 19.7897 9.15542C19.7914 9.15407 19.8205 9.24114 19.7983 9.17543C19.7941 9.16302 19.7894 9.1508 19.7852 9.13836C19.7771 9.11368 19.7699 9.08873 19.7637 9.0635C19.7575 9.03851 19.7544 9.01272 19.7482 8.98783C19.7377 8.94588 19.7543 9.02093 19.7524 9.01906C19.7464 9.0132 19.749 8.97681 19.7485 8.96811C19.7457 8.91221 19.752 8.85796 19.753 8.8024C19.7538 8.75936 19.7495 8.83594 19.7486 8.8337C19.7488 8.8208 19.7511 8.80803 19.7553 8.79586C19.7618 8.76656 19.7678 8.73729 19.7756 8.70831C19.7847 8.67513 19.7951 8.64235 19.8068 8.60999C19.8112 8.59788 19.8166 8.58594 19.8207 8.57373C19.8356 8.529 19.791 8.62775 19.8156 8.58742C19.8494 8.53192 19.8747 8.47187 19.9106 8.41706C19.9191 8.40406 19.9709 8.33169 19.9434 8.36823C19.916 8.40463 19.9715 8.33565 19.982 8.32394C20.0257 8.27528 20.077 8.23533 20.1221 8.18874C20.1489 8.16116 20.1035 8.20232 20.1008 8.20424C20.1148 8.19423 20.1285 8.18384 20.1427 8.17407C20.1674 8.15702 20.1927 8.1409 20.2186 8.12571C20.2477 8.10858 20.2807 8.09582 20.309 8.0777C20.3424 8.05629 20.2835 8.0871 20.2824 8.08774C20.2977 8.08016 20.3136 8.07407 20.3301 8.06955C20.3576 8.05977 20.4774 8.00801 20.5025 8.02419C20.5014 8.02346 20.4116 8.03144 20.4842 8.02676C20.5014 8.02566 20.5184 8.02398 20.5356 8.02327C20.5704 8.02183 20.605 8.0227 20.6398 8.02451C20.7339 8.02389 20.824 7.98616 20.8906 7.91949C20.9572 7.85282 20.9949 7.76257 20.9955 7.66828C20.9935 7.57444 20.9553 7.48499 20.8891 7.41862C20.8228 7.35225 20.7335 7.31406 20.6397 7.31204Z" fill="#E6E6E6"/>
<path d="M92.5844 86.2069H5.33708C4.23382 86.2057 3.1761 85.7663 2.39598 84.9851C1.61585 84.2038 1.17702 83.1446 1.17578 82.0398V4.16723C1.17702 3.06239 1.61584 2.00316 2.39596 1.22192C3.17609 0.440682 4.23381 0.00123892 5.33708 0H92.5844C93.6877 0.00123892 94.7454 0.440682 95.5255 1.22192C96.3056 2.00316 96.7445 3.06239 96.7457 4.16723V82.0398C96.7445 83.1446 96.3056 84.2038 95.5255 84.9851C94.7454 85.7663 93.6877 86.2057 92.5844 86.2069ZM5.33708 0.474969C4.35956 0.476083 3.4224 0.865446 2.7312 1.55764C2.03999 2.24983 1.65119 3.18832 1.65007 4.16723V82.0398C1.65121 83.0187 2.04003 83.9572 2.73124 84.6493C3.42244 85.3415 4.35958 85.7308 5.33708 85.7319H92.5844C93.5619 85.7308 94.499 85.3415 95.1903 84.6493C95.8815 83.9572 96.2703 83.0187 96.2714 82.0398V4.16723C96.2703 3.18832 95.8815 2.24983 95.1903 1.55764C94.4991 0.865446 93.5619 0.476084 92.5844 0.474969H5.33708Z" fill="#E6E6E6"/>
<path d="M5.19322 52.9841L35.875 52.8906L66.4002 52.7976L83.6196 52.7452C83.7118 52.742 83.7992 52.703 83.8633 52.6366C83.9274 52.5701 83.9632 52.4813 83.9632 52.3889C83.9632 52.2965 83.9274 52.2078 83.8633 52.1413C83.7992 52.0748 83.7118 52.0359 83.6196 52.0327L52.9378 52.1262L22.4126 52.2192L5.19322 52.2716C5.10101 52.2748 5.01364 52.3137 4.94954 52.3802C4.88544 52.4467 4.84961 52.5354 4.84961 52.6278C4.84961 52.7202 4.88544 52.809 4.94954 52.8755C5.01364 52.9419 5.10101 52.9809 5.19322 52.9841Z" fill="#E6E6E6"/>
<path d="M20.6705 52.4068L20.8602 41.1887C20.868 40.7301 20.1565 40.73 20.1488 41.1887L19.959 52.4068C19.9513 52.8654 20.6627 52.8655 20.6705 52.4068Z" fill="#E6E6E6"/>
<path d="M35.3347 52.5282L35.7971 38.4276L35.9291 34.3989C35.9442 33.9403 35.2327 33.9409 35.2177 34.3989L34.7554 48.4994L34.6233 52.5282C34.6082 52.9867 35.3197 52.9862 35.3347 52.5282Z" fill="#E6E6E6"/>
<path d="M49.9592 27.7146C49.6803 32.7089 49.1643 47.4401 48.8854 52.4344C48.8599 52.8925 49.5714 52.891 49.5969 52.4344C49.8757 47.4401 50.3918 32.7089 50.6706 27.7146C50.6962 27.2565 49.9847 27.258 49.9592 27.7146Z" fill="#E6E6E6"/>
<path d="M64.5131 47.4228L64.4259 52.2232C64.4175 52.6818 65.129 52.6819 65.1373 52.2232C65.2403 46.5537 65.5044 46.7385 65.5335 45.1383C65.5418 44.6797 64.8304 44.6797 64.8221 45.1383C64.8221 45.1383 64.6161 41.7533 64.5131 47.4228Z" fill="#E6E6E6"/>
<path d="M78.7695 34.8124L78.85 48.2798L78.873 52.1361C78.8762 52.2284 78.9151 52.3159 78.9815 52.3801C79.0478 52.4443 79.1365 52.4802 79.2287 52.4802C79.321 52.4802 79.4097 52.4443 79.476 52.3801C79.5424 52.3159 79.5813 52.2284 79.5845 52.1361L79.504 38.6687L79.481 34.8124C79.4778 34.72 79.4389 34.6325 79.3725 34.5683C79.3062 34.5041 79.2175 34.4683 79.1253 34.4683C79.033 34.4683 78.9443 34.5041 78.878 34.5683C78.8116 34.6325 78.7727 34.72 78.7695 34.8124Z" fill="#E6E6E6"/>
<path d="M5.2497 52.5833C4.66081 50.9627 5.98829 49.404 7.3523 48.7036C8.98648 47.8645 10.8664 47.6743 12.5179 46.8654C14.98 45.6595 16.7733 43.4952 18.3691 41.3287C20.0115 39.0989 21.5143 36.7058 23.6013 34.8531C24.701 33.8551 25.9999 33.1023 27.4119 32.6447C29.191 32.0887 31.0779 32.0505 32.9163 32.2746C36.715 32.7376 40.2365 34.3089 43.9018 35.3075C47.3575 36.249 51.1651 36.7785 54.557 35.3144C56.2803 34.5705 57.6895 33.3229 59.2032 32.2433C60.668 31.1875 62.3059 30.3963 64.0429 29.9054C67.4478 28.9572 71.1663 29.2104 74.3363 30.8133C77.2502 32.2677 79.5574 34.7063 80.8506 37.6985C82.3535 41.2937 82.1578 45.3112 81.6669 49.0954C81.54 50.0735 81.389 51.0484 81.2363 52.0228C81.166 52.4713 81.8515 52.6645 81.9223 52.2122C82.5337 48.3101 83.1431 44.2845 82.3825 40.3579C81.7248 36.9292 79.8421 33.858 77.0867 31.719C74.3197 29.5741 70.88 28.487 67.3848 28.6527C65.5532 28.7378 63.7501 29.1394 62.0551 29.8398C60.2956 30.5686 58.8057 31.6488 57.2924 32.7855C55.7364 33.9541 54.1324 34.9208 52.2006 35.3019C50.3268 35.6716 48.3775 35.533 46.5119 35.184C42.6624 34.4637 39.0743 32.8127 35.2576 31.9667C31.7213 31.1829 27.9054 31.1046 24.7388 33.1052C22.303 34.6441 20.5818 37.0332 18.93 39.3401C17.2927 41.6268 15.6346 44.072 13.2404 45.6341C11.7798 46.587 10.1381 46.9386 8.50424 47.4745C6.8662 48.0117 5.29366 48.9181 4.62577 50.5987C4.33791 51.2909 4.31579 52.0652 4.56367 52.7727C4.719 53.2001 5.40678 53.0156 5.2497 52.5833Z" fill="#E6E6E6"/>
<path d="M20.4345 39.6372L20.4336 39.6377L20.4355 39.6372H20.4345Z" fill="#E6E6E6"/>
<path d="M21.6679 38.9819C21.5035 38.6903 21.2412 38.4665 20.9276 38.3502C20.614 38.234 20.2694 38.2328 19.955 38.347C19.7987 38.4041 19.6555 38.492 19.5337 38.6056C19.412 38.7191 19.3142 38.8559 19.2462 39.0079C19.2325 39.0402 19.2246 39.0742 19.2135 39.1073C19.1981 39.1323 19.1795 39.1548 19.1657 39.1809C19.0183 39.4752 18.9779 39.8117 19.0515 40.1325C19.1252 40.4534 19.3083 40.7385 19.5692 40.9387C19.8302 41.1389 20.1527 41.2417 20.4812 41.2294C20.8097 41.2171 21.1237 41.0905 21.369 40.8713C21.6268 40.6379 21.7971 40.3232 21.8515 39.9794C21.9059 39.6357 21.8411 39.2836 21.6679 38.9819ZM20.7769 39.5869C20.7788 39.6214 20.7799 39.6049 20.7769 39.5869V39.5869ZM20.6864 39.3806C20.6829 39.3766 20.6833 39.3771 20.6864 39.3806V39.3806ZM20.2872 39.5414C20.2813 39.5318 20.2818 39.5332 20.2872 39.5414V39.5414ZM20.3818 39.6217C20.3954 39.6278 20.4043 39.6294 20.3818 39.6217V39.6217ZM20.424 39.6419L20.4334 39.6376C20.4311 39.6378 20.4288 39.6373 20.4268 39.6363L20.427 39.6362L20.4344 39.6371L20.4358 39.6365L20.4315 39.6355C20.4352 39.6354 20.4355 39.6359 20.4358 39.6365C20.4781 39.6171 20.4495 39.6264 20.425 39.634L20.4234 39.6336C20.408 39.6259 20.3916 39.6206 20.3746 39.618C20.373 39.6171 20.3711 39.6164 20.3698 39.6155C20.3562 39.6058 20.2874 39.5519 20.3512 39.6084C20.3373 39.5961 20.3236 39.584 20.3105 39.5708C20.3028 39.5629 20.2958 39.5543 20.2897 39.5451C20.2813 39.5307 20.2732 39.5162 20.2653 39.5015L20.2641 39.4936C20.2631 39.4871 20.2623 39.4843 20.2614 39.4804C20.2618 39.4763 20.2625 39.4719 20.2631 39.4677C20.2679 39.4549 20.2709 39.4415 20.2721 39.4279L20.2749 39.4244C20.2851 39.4101 20.2941 39.3935 20.3038 39.3786C20.2522 39.457 20.324 39.37 20.3293 39.3589C20.3302 39.3571 20.3286 39.3581 20.329 39.3568C20.3311 39.3556 20.3305 39.3564 20.333 39.3549C20.349 39.3455 20.3641 39.335 20.3803 39.326C20.3997 39.3153 20.4758 39.2936 20.3968 39.3162C20.4148 39.3111 20.432 39.3046 20.4501 39.2999C20.4534 39.299 20.48 39.2953 20.4943 39.2927C20.5069 39.2924 20.5191 39.292 20.5203 39.2921C20.5262 39.2921 20.5322 39.2928 20.5381 39.2931C20.525 39.2949 20.583 39.3074 20.6003 39.3101C20.6027 39.312 20.604 39.3133 20.6074 39.3158C20.622 39.3264 20.6397 39.3359 20.6551 39.3459C20.5863 39.3014 20.656 39.3494 20.6691 39.3626C20.677 39.3705 20.6842 39.3788 20.6916 39.3871C20.6984 39.395 20.7045 39.4034 20.71 39.4123C20.7212 39.433 20.7332 39.4539 20.7451 39.4743L20.7484 39.4795C20.7483 39.4802 20.7483 39.4809 20.7483 39.4816C20.7544 39.5146 20.7636 39.547 20.7755 39.5784C20.7761 39.581 20.7765 39.5837 20.7769 39.5864C20.778 39.6045 20.7795 39.6226 20.7795 39.6407L20.7793 39.6444C20.7246 39.6158 20.6638 39.6007 20.602 39.6002C20.5402 39.5998 20.4792 39.6141 20.424 39.6419Z" fill="#E6E6E6"/>
<path d="M20.438 39.6367C20.4406 39.6375 20.4375 39.6376 20.4375 39.6376L20.438 39.6367Z" fill="#E6E6E6"/>
<path d="M20.4378 39.6372L20.4355 39.6376C20.4384 39.6379 20.4378 39.6372 20.4378 39.6372Z" fill="#E6E6E6"/>
<path d="M20.4375 39.6367L20.4395 39.6377L20.4375 39.6367Z" fill="#E6E6E6"/>
<path d="M35.6123 32.9878L35.6113 32.9883L35.6132 32.9878H35.6123Z" fill="#E6E6E6"/>
<path d="M36.8457 32.3324C36.6813 32.0408 36.4189 31.8171 36.1053 31.7008C35.7917 31.5846 35.4471 31.5834 35.1327 31.6976C34.9765 31.7547 34.8332 31.8426 34.7115 31.9561C34.5897 32.0697 34.4919 32.2065 34.4239 32.3585C34.4103 32.3908 34.4023 32.4248 34.3912 32.4579C34.3758 32.4829 34.3573 32.5054 34.3434 32.5315C34.196 32.8258 34.1556 33.1623 34.2293 33.4831C34.3029 33.804 34.486 34.089 34.747 34.2893C35.0079 34.4895 35.3304 34.5923 35.659 34.58C35.9875 34.5677 36.3014 34.4411 36.5467 34.2219C36.8046 33.9885 36.9748 33.6738 37.0292 33.33C37.0836 32.9863 37.0188 32.6342 36.8457 32.3324ZM35.9547 32.9375C35.9565 32.972 35.9576 32.9554 35.9547 32.9375V32.9375ZM35.8641 32.7312C35.8606 32.7272 35.861 32.7276 35.8641 32.7312V32.7312ZM35.4649 32.892C35.459 32.8824 35.4596 32.8837 35.4649 32.892V32.892ZM35.5595 32.9723C35.5731 32.9784 35.582 32.98 35.5595 32.9723V32.9723ZM35.6018 32.9925L35.6111 32.9882C35.6088 32.9884 35.6065 32.9879 35.6045 32.9869L35.6048 32.9868L35.6121 32.9877L35.6135 32.9871L35.6092 32.9861C35.6129 32.986 35.6132 32.9865 35.6135 32.9871C35.6558 32.9677 35.6272 32.977 35.6027 32.9846L35.6011 32.9842C35.5857 32.9764 35.5693 32.9712 35.5523 32.9686C35.5507 32.9677 35.5489 32.967 35.5476 32.9661C35.5339 32.9564 35.4651 32.9025 35.529 32.959C35.5151 32.9467 35.5013 32.9346 35.4883 32.9214C35.4805 32.9134 35.4736 32.9048 35.4674 32.8957C35.459 32.8813 35.4509 32.8668 35.443 32.8521L35.4418 32.8442C35.4408 32.8377 35.44 32.8349 35.4391 32.831C35.4395 32.8269 35.4402 32.8225 35.4408 32.8183C35.4456 32.8055 35.4486 32.7921 35.4499 32.7785L35.4526 32.775C35.4628 32.7607 35.4718 32.7441 35.4815 32.7292C35.43 32.8076 35.5017 32.7206 35.507 32.7095C35.508 32.7076 35.5064 32.7087 35.5068 32.7074C35.5088 32.7062 35.5082 32.707 35.5107 32.7055C35.5267 32.6961 35.5418 32.6856 35.5581 32.6766C35.5774 32.6659 35.6535 32.6442 35.5746 32.6668C35.5925 32.6617 35.6097 32.6552 35.6278 32.6505C35.6311 32.6496 35.6577 32.6459 35.672 32.6433C35.6846 32.643 35.6968 32.6426 35.6981 32.6426C35.704 32.6427 35.7099 32.6434 35.7158 32.6437C35.7027 32.6455 35.7607 32.658 35.778 32.6607C35.7805 32.6626 35.7817 32.6639 35.7851 32.6664C35.7997 32.677 35.8174 32.6865 35.8328 32.6965C35.764 32.6519 35.8337 32.7 35.8469 32.7132C35.8547 32.721 35.862 32.7294 35.8694 32.7377C35.8761 32.7456 35.8823 32.754 35.8877 32.7629C35.899 32.7836 35.911 32.8045 35.9228 32.8249L35.9261 32.8301C35.926 32.8308 35.926 32.8315 35.926 32.8321C35.9322 32.8652 35.9413 32.8976 35.9532 32.929C35.9538 32.9316 35.9543 32.9343 35.9546 32.937C35.9557 32.9551 35.9572 32.9731 35.9572 32.9913L35.9571 32.995C35.9023 32.9664 35.8415 32.9513 35.7797 32.9508C35.7179 32.9504 35.6569 32.9647 35.6018 32.9925Z" fill="#E6E6E6"/>
<path d="M35.6155 32.9878L35.6133 32.9881C35.6162 32.9884 35.6155 32.9878 35.6155 32.9878Z" fill="#E6E6E6"/>
<path d="M35.6133 32.9873L35.6153 32.9883L35.6133 32.9873Z" fill="#E6E6E6"/>
<path d="M35.6157 32.9873C35.6183 32.9881 35.6152 32.9882 35.6152 32.9882L35.6157 32.9873Z" fill="#E6E6E6"/>
<path d="M50.3164 36.312L50.3184 36.313L50.3164 36.312Z" fill="#E6E6E6"/>
<path d="M51.5488 25.683C51.3844 25.3914 51.1221 25.1676 50.8084 25.0514C50.4948 24.9352 50.1502 24.934 49.8359 25.0481C49.6796 25.1053 49.5363 25.1932 49.4146 25.3067C49.2928 25.4203 49.1951 25.5571 49.127 25.7091C49.1134 25.7414 49.1054 25.7754 49.0943 25.8085C49.0789 25.8335 49.0604 25.856 49.0466 25.8821C48.8991 26.1763 48.8587 26.5129 48.9324 26.8337C49.0061 27.1545 49.1891 27.4396 49.4501 27.6398C49.7111 27.8401 50.0336 27.9429 50.3621 27.9306C50.6906 27.9183 51.0045 27.7917 51.2499 27.5725C51.5077 27.3391 51.6779 27.0244 51.7323 26.6806C51.7867 26.3368 51.722 25.9848 51.5488 25.683ZM50.6578 26.288C50.6596 26.3226 50.6607 26.306 50.6578 26.288V26.288ZM50.5672 26.0818C50.5637 26.0778 50.5642 26.0782 50.5672 26.0818V26.0818ZM50.168 26.2426C50.1622 26.2329 50.1627 26.2343 50.168 26.2426V26.2426ZM50.2626 26.3229C50.2763 26.329 50.2852 26.3306 50.2626 26.3229V26.3229ZM50.3049 26.3431L50.3143 26.3388C50.312 26.339 50.3097 26.3385 50.3076 26.3374L50.3079 26.3374L50.3152 26.3383L50.3166 26.3377L50.3124 26.3367C50.316 26.3366 50.3164 26.3371 50.3166 26.3377C50.3589 26.3183 50.3304 26.3276 50.3058 26.3352L50.3042 26.3348C50.2889 26.327 50.2724 26.3217 50.2554 26.3191C50.2539 26.3183 50.252 26.3176 50.2507 26.3167C50.2371 26.307 50.1682 26.2531 50.2321 26.3096C50.2182 26.2973 50.2044 26.2852 50.1914 26.2719C50.1837 26.264 50.1767 26.2554 50.1705 26.2463C50.1621 26.2319 50.154 26.2174 50.1461 26.2027L50.1449 26.1948C50.1439 26.1882 50.1431 26.1855 50.1423 26.1816C50.1427 26.1775 50.1433 26.1731 50.144 26.1689C50.1487 26.1561 50.1518 26.1427 50.153 26.1291L50.1557 26.1256C50.166 26.1113 50.1749 26.0946 50.1847 26.0798C50.1331 26.1582 50.2048 26.0711 50.2102 26.0601C50.2111 26.0582 50.2095 26.0593 50.2099 26.058C50.212 26.0568 50.2113 26.0576 50.2138 26.0561C50.2298 26.0467 50.245 26.0362 50.2612 26.0272C50.2805 26.0165 50.3566 25.9948 50.2777 26.0174C50.2956 26.0123 50.3128 26.0058 50.331 26.0011C50.3342 26.0002 50.3608 25.9965 50.3751 25.9939C50.3877 25.9936 50.3999 25.9932 50.4012 25.9932C50.4071 25.9933 50.413 25.994 50.4189 25.9943C50.4058 25.996 50.4639 26.0086 50.4811 26.0113C50.4836 26.0132 50.4849 26.0145 50.4883 26.017C50.5028 26.0276 50.5206 26.0371 50.5359 26.0471C50.4671 26.0025 50.5368 26.0506 50.55 26.0638C50.5578 26.0716 50.5651 26.08 50.5725 26.0883C50.5793 26.0962 50.5854 26.1046 50.5908 26.1135C50.6021 26.1342 50.6141 26.1551 50.6259 26.1755L50.6292 26.1807C50.6291 26.1814 50.6291 26.1821 50.6291 26.1827C50.6353 26.2158 50.6444 26.2482 50.6564 26.2796C50.6569 26.2822 50.6574 26.2849 50.6577 26.2876C50.6588 26.3057 50.6603 26.3237 50.6603 26.3419L50.6602 26.3456C50.6054 26.317 50.5446 26.3019 50.4828 26.3014C50.4211 26.301 50.3601 26.3152 50.3049 26.3431Z" fill="#E6E6E6"/>
<path d="M50.3154 36.3125L50.3145 36.313L50.3163 36.3125H50.3154Z" fill="#E6E6E6"/>
<path d="M50.3187 36.3125L50.3164 36.3129C50.3193 36.3132 50.3187 36.3125 50.3187 36.3125Z" fill="#E6E6E6"/>
<path d="M50.3188 36.312C50.3214 36.3128 50.3184 36.3129 50.3184 36.3129L50.3188 36.312Z" fill="#E6E6E6"/>
<path d="M66.4902 43.9692C66.3258 43.6776 66.0635 43.4538 65.7499 43.3375C65.4362 43.2213 65.0917 43.2201 64.7773 43.3343C64.621 43.3914 64.4777 43.4793 64.356 43.5929C64.2342 43.7064 64.1365 43.8432 64.0684 43.9952C64.0548 44.0275 64.0468 44.0615 64.0357 44.0946C64.0203 44.1196 64.0018 44.1421 63.988 44.1682C63.8405 44.4625 63.8002 44.799 63.8738 45.1198C63.9475 45.4407 64.1305 45.7258 64.3915 45.926C64.6525 46.1262 64.975 46.229 65.3035 46.2167C65.632 46.2044 65.9459 46.0778 66.1913 45.8586C66.4491 45.6252 66.6193 45.3105 66.6737 44.9667C66.7281 44.623 66.6634 44.2709 66.4902 43.9692ZM65.5992 44.5742C65.601 44.6087 65.6021 44.5922 65.5992 44.5742V44.5742ZM65.5086 44.3679C65.5051 44.3639 65.5056 44.3644 65.5086 44.3679V44.3679ZM65.1094 44.5287C65.1036 44.5191 65.1041 44.5205 65.1094 44.5287V44.5287ZM65.204 44.609C65.2177 44.6151 65.2266 44.6167 65.204 44.609V44.609ZM65.2463 44.6292L65.2557 44.6249C65.2534 44.6251 65.2511 44.6247 65.249 44.6236L65.2493 44.6235L65.2566 44.6244L65.258 44.6238L65.2538 44.6228C65.2574 44.6227 65.2578 44.6232 65.258 44.6238C65.3003 44.6044 65.2718 44.6137 65.2472 44.6213L65.2456 44.6209C65.2303 44.6132 65.2138 44.6079 65.1968 44.6053C65.1953 44.6044 65.1934 44.6038 65.1921 44.6028C65.1785 44.5931 65.1096 44.5392 65.1735 44.5957C65.1596 44.5834 65.1459 44.5713 65.1328 44.5581C65.1251 44.5502 65.1181 44.5416 65.1119 44.5324C65.1035 44.518 65.0954 44.5035 65.0875 44.4888L65.0864 44.4809C65.0853 44.4744 65.0845 44.4716 65.0837 44.4677C65.0841 44.4636 65.0847 44.4593 65.0854 44.455C65.0901 44.4422 65.0932 44.4288 65.0944 44.4152L65.0971 44.4117C65.1074 44.3974 65.1163 44.3808 65.1261 44.3659C65.0745 44.4444 65.1462 44.3573 65.1516 44.3463C65.1525 44.3444 65.1509 44.3454 65.1513 44.3441C65.1534 44.3429 65.1527 44.3437 65.1553 44.3423C65.1712 44.3328 65.1864 44.3223 65.2026 44.3133C65.2219 44.3026 65.298 44.281 65.2191 44.3035C65.237 44.2984 65.2542 44.2919 65.2724 44.2872C65.2756 44.2863 65.3022 44.2826 65.3165 44.28C65.3291 44.2797 65.3413 44.2793 65.3426 44.2794C65.3485 44.2794 65.3544 44.2802 65.3603 44.2804C65.3472 44.2822 65.4053 44.2947 65.4225 44.2974C65.425 44.2993 65.4263 44.3006 65.4297 44.3031C65.4442 44.3138 65.462 44.3232 65.4773 44.3332C65.4086 44.2887 65.4782 44.3367 65.4914 44.3499C65.4992 44.3578 65.5065 44.3662 65.5139 44.3744C65.5207 44.3823 65.5268 44.3907 65.5322 44.3996C65.5435 44.4203 65.5555 44.4412 65.5673 44.4616L65.5706 44.4668C65.5706 44.4675 65.5705 44.4682 65.5705 44.4689C65.5767 44.5019 65.5858 44.5343 65.5978 44.5657C65.5983 44.5683 65.5988 44.571 65.5991 44.5737C65.6002 44.5918 65.6017 44.6099 65.6018 44.6281L65.6016 44.6317C65.5468 44.6031 65.486 44.588 65.4243 44.5875C65.3625 44.5871 65.3015 44.6014 65.2463 44.6292Z" fill="#E6E6E6"/>
<path d="M65.2549 28.9507L65.2539 28.9512L65.2558 28.9507H65.2549Z" fill="#E6E6E6"/>
<path d="M65.2581 28.9507L65.2559 28.951C65.2587 28.9513 65.2581 28.9507 65.2581 28.9507Z" fill="#E6E6E6"/>
<path d="M65.2583 28.9502C65.2609 28.951 65.2578 28.9511 65.2578 28.9511L65.2583 28.9502Z" fill="#E6E6E6"/>
<path d="M65.2578 28.9497L65.2598 28.9507L65.2578 28.9497Z" fill="#E6E6E6"/>
<path d="M80.4804 33.0448C80.316 32.7532 80.0537 32.5295 79.7401 32.4132C79.4265 32.297 79.0819 32.2958 78.7675 32.41C78.6112 32.4671 78.468 32.555 78.3462 32.6685C78.2245 32.7821 78.1267 32.9189 78.0587 33.0709C78.045 33.1032 78.0371 33.1372 78.026 33.1703C78.0105 33.1953 77.992 33.2178 77.9782 33.2439C77.8308 33.5382 77.7904 33.8747 77.864 34.1955C77.9377 34.5164 78.1208 34.8014 78.3817 35.0017C78.6427 35.2019 78.9652 35.3047 79.2937 35.2924C79.6222 35.2801 79.9362 35.1535 80.1815 34.9343C80.4393 34.7009 80.6096 34.3862 80.664 34.0424C80.7184 33.6987 80.6536 33.3466 80.4804 33.0448ZM79.5894 33.6499C79.5913 33.6844 79.5924 33.6678 79.5894 33.6499V33.6499ZM79.4989 33.4436C79.4954 33.4396 79.4958 33.44 79.4989 33.4436V33.4436ZM79.0997 33.6044C79.0938 33.5948 79.0943 33.5961 79.0997 33.6044V33.6044ZM79.1943 33.6847C79.2079 33.6908 79.2168 33.6924 79.1943 33.6847V33.6847ZM79.2365 33.7049L79.2459 33.7006C79.2436 33.7008 79.2413 33.7003 79.2393 33.6993L79.2395 33.6992L79.2469 33.7001L79.2482 33.6995L79.244 33.6985C79.2477 33.6984 79.248 33.6989 79.2482 33.6995C79.2906 33.6801 79.262 33.6894 79.2375 33.697L79.2358 33.6966C79.2205 33.6888 79.204 33.6836 79.1871 33.681C79.1855 33.6801 79.1836 33.6794 79.1823 33.6785C79.1687 33.6688 79.0999 33.6149 79.1637 33.6714C79.1498 33.6591 79.1361 33.647 79.123 33.6338C79.1153 33.6258 79.1083 33.6172 79.1021 33.6081C79.0938 33.5937 79.0856 33.5792 79.0778 33.5645L79.0766 33.5566C79.0755 33.5501 79.0748 33.5473 79.0739 33.5434C79.0743 33.5393 79.075 33.5349 79.0756 33.5307C79.0804 33.5179 79.0834 33.5045 79.0846 33.4909L79.0874 33.4874C79.0976 33.4731 79.1065 33.4565 79.1163 33.4416C79.0647 33.52 79.1364 33.433 79.1418 33.4219C79.1427 33.4201 79.1411 33.4211 79.1415 33.4198C79.1436 33.4186 79.143 33.4194 79.1455 33.4179C79.1615 33.4085 79.1766 33.398 79.1928 33.389C79.2122 33.3783 79.2883 33.3566 79.2093 33.3792C79.2273 33.3741 79.2445 33.3676 79.2626 33.3629C79.2659 33.362 79.2925 33.3583 79.3068 33.3557C79.3193 33.3554 79.3315 33.355 79.3328 33.355C79.3387 33.3551 79.3446 33.3558 79.3505 33.3561C79.3374 33.3579 79.3955 33.3704 79.4127 33.3731C79.4152 33.375 79.4165 33.3763 79.4199 33.3788C79.4345 33.3894 79.4522 33.3989 79.4676 33.4089C79.3988 33.3643 79.4685 33.4124 79.4816 33.4256C79.4895 33.4334 79.4967 33.4418 79.5041 33.4501C79.5109 33.458 79.517 33.4664 79.5224 33.4753C79.5337 33.496 79.5457 33.5169 79.5576 33.5373L79.5609 33.5425C79.5608 33.5432 79.5608 33.5439 79.5608 33.5445C79.5669 33.5776 79.576 33.61 79.588 33.6414C79.5886 33.644 79.589 33.6467 79.5893 33.6494C79.5904 33.6675 79.592 33.6855 79.592 33.7037L79.5918 33.7074C79.5371 33.6788 79.4763 33.6637 79.4145 33.6632C79.3527 33.6628 79.2917 33.6771 79.2365 33.7049Z" fill="#E6E6E6"/>
<path d="M79.247 33.7002L79.2461 33.7007L79.248 33.7002H79.247Z" fill="#E6E6E6"/>
<path d="M79.248 33.6997L79.25 33.7007L79.248 33.6997Z" fill="#E6E6E6"/>
<path d="M79.2505 33.6997C79.2531 33.7005 79.25 33.7006 79.25 33.7006L79.2505 33.6997Z" fill="#E6E6E6"/>
<path d="M79.2503 33.7002L79.248 33.7005C79.2509 33.7008 79.2503 33.7002 79.2503 33.7002Z" fill="#E6E6E6"/>
<path d="M75.414 44.5836L64.3875 45.1974C64.3253 45.2008 64.2642 45.1803 64.2167 45.14C64.1693 45.0997 64.139 45.0426 64.1323 44.9807C64.1255 44.9187 64.1428 44.8565 64.1805 44.8069C64.2182 44.7572 64.2735 44.724 64.3349 44.714L75.6052 42.8774L75.414 44.5836Z" fill="#3F3D56"/>
<path d="M89.4274 69.1671L93.5826 62.1665L96.6537 63.6191C96.6537 63.6191 91.3617 70.2382 91.1931 70.4286C91.2653 70.7503 91.2383 71.0864 91.1156 71.3924C90.9929 71.6984 90.7803 71.9599 90.506 72.1423C90.2317 72.3247 89.9085 72.4194 89.5793 72.4138C89.2501 72.4083 88.9303 72.3028 88.6622 72.1113C88.3942 71.9198 88.1905 71.6513 88.0781 71.3414C87.9657 71.0314 87.95 70.6946 88.0329 70.3755C88.1158 70.0564 88.2935 69.77 88.5425 69.5542C88.7915 69.3384 89.1001 69.2035 89.4274 69.1671Z" fill="#FFB6B6"/>
<path d="M91.1555 52.9053L97.8875 56.4226C98.3082 56.7261 98.661 57.1142 98.9234 57.562C99.1858 58.0099 99.3521 58.5076 99.4114 59.0235C99.4708 59.5393 99.422 60.0619 99.2683 60.5578C99.1145 61.0537 98.8591 61.512 98.5183 61.9034L93.8774 67.2347L91.8555 64.4911L93.4139 61.2281L90.3965 60.4313L91.1555 52.9053Z" fill="#0267FF"/>
<path d="M71.9711 44.6979L71.2129 52.8064L67.8164 52.8121C67.8164 52.8121 69.7651 44.5604 69.8359 44.316C69.633 44.0563 69.5136 43.7411 69.4935 43.4119C69.4734 43.0828 69.5535 42.7553 69.7233 42.4728C69.8931 42.1903 70.1446 41.966 70.4444 41.8297C70.7442 41.6934 71.0783 41.6515 71.4025 41.7095C71.7266 41.7674 72.0255 41.9226 72.2597 42.1544C72.4939 42.3862 72.6523 42.6838 72.7139 43.0077C72.7756 43.3316 72.7375 43.6666 72.6049 43.9684C72.4723 44.2703 72.2513 44.5246 71.9711 44.6979Z" fill="#FFB6B6"/>
<path d="M78.7309 61.2796L70.9135 59.844C67.6216 59.4475 66.2706 57.2784 66.8646 55.1628L68.7761 48.354L71.777 49.9651L71.7655 53.5821L75.9661 53.007L78.7309 61.2796Z" fill="#0267FF"/>
<path d="M75.5314 117.316H73.382L72.3594 109.013H75.5319L75.5314 117.316Z" fill="#FFB6B6"/>
<path d="M75.6062 119.561L68.9961 119.561V119.477C68.9961 118.794 69.2672 118.139 69.7497 117.655C70.2322 117.172 70.8866 116.901 71.5689 116.901L72.7765 115.983L75.0293 116.901L75.6063 116.901L75.6062 119.561Z" fill="#2F2E41"/>
<path d="M90.7407 117.316H92.8902L93.9128 109.013H90.7402L90.7407 117.316Z" fill="#FFB6B6"/>
<path d="M90.6642 119.561L97.2742 119.561V119.477C97.2742 118.794 97.0031 118.139 96.5206 117.655C96.0381 117.172 95.3838 116.901 94.7014 116.901L93.4939 115.983L91.2411 116.901L90.6641 116.901L90.6642 119.561Z" fill="#2F2E41"/>
<path d="M72.2639 102.911C72.2956 102.438 72.5481 99.8175 72.5481 99.8175L73.1526 94.2609L74.2182 79.5317L75.1681 75.6602L79.8697 77.4943L83.6846 75.6629L88.2191 77.1144L91.7499 78.4404C91.7499 78.4404 91.7559 79.008 91.7831 79.6937C91.8194 80.5913 91.8829 81.6917 92.034 81.9777C92.2864 82.4833 92.223 85.1973 92.223 85.1973C92.223 85.1973 92.4739 90.719 92.7898 91.3245C93.1057 91.9299 93.1692 93.1908 93.0739 93.4435C92.9787 93.6963 93.3898 100.328 93.3898 100.328C93.3898 100.328 94.445 112.062 93.783 113.832C93.121 115.601 90.6193 114.442 90.6193 114.442C90.6193 114.442 90.7402 113.97 90.0147 113.747C89.2892 113.525 87.0794 96.8855 87.0794 96.8855C87.0794 96.8855 86.6683 93.4738 86.2904 92.496C85.9125 91.5182 85.5649 88.7709 85.5649 88.7709C85.5649 88.7709 83.2312 84.224 83.201 83.2129C83.201 83.2129 82.8956 82.2668 82.6069 83.3082C82.3183 84.3496 81.4673 86.8441 81.4673 86.8441L80.6375 89.9077L79.6611 94.4849L79.0293 98.3386C79.0293 98.3386 78.0831 103.453 77.9319 103.674C77.7808 103.895 77.9319 108.568 77.9319 108.568C77.9319 108.568 77.2004 112.547 76.1665 113.242C75.1327 113.937 72.3936 113.253 72.3936 113.253C72.3936 113.253 72.2322 103.385 72.2639 102.911Z" fill="#2F2E41"/>
<path d="M75.7802 63.2022L75.1794 70.996L74.2768 71.9315C74.1954 72.0158 74.1319 72.1157 74.09 72.2253C74.0481 72.3348 74.0287 72.4516 74.0329 72.5688C74.0372 72.6861 74.065 72.8012 74.1148 72.9074C74.1645 73.0136 74.2351 73.1086 74.3224 73.1868L73.8251 74.0408L73.6491 76.7315C73.5989 76.9409 73.5954 77.1587 73.639 77.3696C73.6826 77.5804 73.7722 77.779 73.9013 77.9512C74.0304 78.1234 74.1958 78.2649 74.3859 78.3657C74.5759 78.4664 74.7858 78.5238 75.0006 78.534L90.565 79.2662C90.7785 79.2763 90.9917 79.2392 91.1894 79.1577C91.3871 79.0762 91.5645 78.9523 91.7092 78.7946C91.8538 78.6369 91.962 78.4493 92.0263 78.2451C92.0906 78.0409 92.1093 77.825 92.0812 77.6128L90.7577 67.6351V66.8891L90.1652 65.4483L90.4697 60.6216L91.1781 52.9606L87.0606 51.8956L84.8282 50.3574L80.9497 50.4193L78.5963 52.3548L75.4585 52.8469L73.0855 53.3193L72.7832 53.9772L73.3878 53.8456L75.5792 62.4049L75.7802 63.2022Z" fill="#0267FF"/>
<path d="M82.8013 49.3133C85.3246 49.3133 87.3701 47.2649 87.3701 44.738C87.3701 42.2111 85.3246 40.1626 82.8013 40.1626C80.278 40.1626 78.2324 42.2111 78.2324 44.738C78.2324 47.2649 80.278 49.3133 82.8013 49.3133Z" fill="#FFB6B6"/>
<path d="M81.7005 49.0178L85.0015 48.8492C85.4245 48.8276 85.8861 48.7902 86.1938 48.4987C86.3593 48.3187 86.4865 48.1069 86.5679 47.8762C86.8731 47.1664 87.1783 46.4565 87.4757 45.7433C87.887 44.7568 88.291 43.7152 88.186 42.6513C88.1614 42.1655 87.9579 41.706 87.6149 41.3616C87.4398 41.1956 87.2148 41.0923 86.9749 41.068C86.7351 41.0437 86.494 41.0996 86.2892 41.227C86.2383 40.8905 86.1117 40.57 85.919 40.2897C85.7262 40.0094 85.4723 39.7767 85.1765 39.6092C84.5792 39.2787 83.897 39.1338 83.2172 39.1932C82.2306 39.2568 81.2887 39.6286 80.5241 40.2561C80.309 40.4548 80.0794 40.637 79.837 40.8013C79.7152 40.8829 79.5779 40.9388 79.4338 40.9655C79.2896 40.9922 79.1415 40.9892 78.9985 40.9567C78.8569 40.9188 78.7338 40.8308 78.6519 40.709C78.57 40.5873 78.5349 40.44 78.5531 40.2943C78.3206 40.4684 78.1612 40.7229 78.106 41.0083C78.0507 41.2937 78.1037 41.5895 78.2544 41.8379C78.083 41.9098 77.896 41.9361 77.7115 41.9142C77.527 41.8924 77.3513 41.8231 77.2014 41.7131C77.0409 41.7929 76.8987 41.9054 76.7841 42.0434C76.6694 42.1814 76.5848 42.3419 76.5357 42.5145C76.4865 42.6871 76.4739 42.8681 76.4987 43.0459C76.5234 43.2237 76.5849 43.3943 76.6793 43.5469C76.7738 43.6995 76.8989 43.8307 77.0469 43.932C77.1948 44.0334 77.3623 44.1026 77.5385 44.1354C77.7148 44.1682 77.8959 44.1638 78.0703 44.1224C78.2447 44.0811 78.4086 44.0037 78.5514 43.8952C78.7518 44.1762 78.6772 44.5581 78.6511 44.9024C78.625 45.2467 78.7172 45.6746 79.0486 45.7697C79.4967 45.8984 79.8596 45.2942 80.3257 45.3006C80.4407 45.31 80.5516 45.3476 80.6485 45.4102C80.7455 45.4728 80.8255 45.5584 80.8815 45.6593C80.9914 45.8622 81.0666 46.0821 81.104 46.3098L81.7006 48.9991" fill="#2F2E41"/>
<path d="M210.409 90.1579C210.409 89.4494 210.171 88.8744 209.879 88.8731H130.354C130.061 88.8744 129.824 89.4494 129.823 90.1579V119.323C129.823 119.389 129.799 119.452 129.754 119.501C129.71 119.55 129.65 119.58 129.584 119.587C129.371 119.607 129.157 119.626 128.944 119.644C128.939 119.644 128.933 119.645 128.928 119.645C128.812 119.656 128.696 119.664 128.58 119.673H128.578C128.519 119.563 128.46 119.451 128.401 119.338C128.381 119.3 128.371 119.258 128.371 119.216V88.4911C128.371 88.2955 128.379 88.0985 128.392 87.9042C128.411 87.6374 128.444 87.3717 128.491 87.1084C128.714 85.8805 129.218 85.049 129.791 85.0464H210.44C210.524 85.0469 210.607 85.0645 210.683 85.0979C210.796 85.1478 210.898 85.2192 210.983 85.3081C211.099 85.4286 211.198 85.5642 211.277 85.7113C211.606 86.3671 211.795 87.0841 211.833 87.8169C211.833 87.8249 211.834 87.8328 211.834 87.8407C211.853 88.0549 211.862 88.273 211.861 88.4911L211.879 91.3238L211.891 93.0131L211.927 98.3136L211.94 100.196L211.998 119.521C211.998 119.591 211.97 119.659 211.921 119.708C211.871 119.758 211.804 119.786 211.734 119.786H210.673C210.603 119.786 210.536 119.758 210.486 119.708C210.437 119.659 210.409 119.591 210.409 119.521V90.1579Z" fill="#E6E6E6"/>
<path d="M188.801 71.7915H180.232C180.111 71.7917 179.994 71.8401 179.909 71.926C179.823 72.012 179.775 72.1285 179.775 72.2498V85.8057H189.259V72.2498C189.259 72.1896 189.247 72.13 189.224 72.0744C189.201 72.0188 189.167 71.9682 189.125 71.9257C189.082 71.8831 189.032 71.8494 188.976 71.8263C188.921 71.8033 188.861 71.7915 188.801 71.7915ZM184.545 79.4938C184.277 79.4925 184.021 79.3854 183.831 79.1956C183.642 79.0059 183.535 78.7488 183.533 78.4805V76.9169C183.533 76.6482 183.64 76.3904 183.83 76.2004C184.02 76.0104 184.277 75.9036 184.545 75.9036C184.814 75.9036 185.071 76.0104 185.261 76.2004C185.45 76.3904 185.557 76.6482 185.557 76.9169V78.4805C185.556 78.7488 185.449 79.0059 185.259 79.1956C185.07 79.3854 184.813 79.4925 184.545 79.4938Z" fill="#CCCCCC"/>
<path d="M179.744 85.3721V86.6799C179.744 86.7477 179.771 86.8127 179.819 86.8606C179.867 86.9085 179.932 86.9355 179.999 86.9356H189.031C189.099 86.9353 189.163 86.9082 189.211 86.8603C189.259 86.8125 189.286 86.7476 189.286 86.6799V85.3721H179.744Z" fill="#3F3D56"/>
<path d="M202.99 50.6362H166.361C166.046 50.6367 165.745 50.7621 165.522 50.985C165.3 51.2078 165.174 51.5099 165.174 51.8251V76.578C165.174 76.8932 165.299 77.1954 165.522 77.4183C165.744 77.6412 166.046 77.7665 166.361 77.7668H202.99C203.305 77.7665 203.607 77.6412 203.829 77.4183C204.052 77.1954 204.177 76.8932 204.177 76.578V51.8251C204.177 51.5099 204.052 51.2078 203.829 50.985C203.607 50.7621 203.305 50.6367 202.99 50.6362Z" fill="#E6E6E6"/>
<path d="M202.684 51.4946H166.666C166.498 51.495 166.336 51.5623 166.217 51.6817C166.098 51.8012 166.031 51.963 166.031 52.1318V76.2711C166.032 76.4396 166.099 76.6012 166.218 76.7204C166.337 76.8395 166.498 76.9066 166.666 76.9069H202.684C202.852 76.9066 203.013 76.8395 203.132 76.7204C203.251 76.6012 203.318 76.4396 203.319 76.2711V52.1318C203.319 51.963 203.252 51.8012 203.133 51.6817C203.014 51.5623 202.852 51.495 202.684 51.4946Z" fill="white"/>
<path d="M195.668 87.3909H174.24C174.181 87.3909 174.123 87.3778 174.07 87.3526C174.017 87.3273 173.971 87.2905 173.934 87.2449C173.897 87.1993 173.871 87.146 173.857 87.0889C173.843 87.0318 173.842 86.9723 173.854 86.9149L174.187 85.3334C174.206 85.245 174.254 85.1656 174.324 85.1086C174.394 85.0516 174.482 85.0203 174.572 85.02H195.336C195.426 85.0203 195.514 85.0516 195.584 85.1086C195.654 85.1656 195.703 85.245 195.722 85.3334L196.054 86.9149C196.066 86.9723 196.065 87.0318 196.052 87.0889C196.038 87.146 196.011 87.1993 195.974 87.2449C195.937 87.2905 195.891 87.3273 195.838 87.3526C195.785 87.3778 195.727 87.3909 195.668 87.3909Z" fill="#CCCCCC"/>
<path d="M175.269 85.3047H174.84C174.776 85.3047 174.725 85.3566 174.725 85.4206V85.5853C174.725 85.6493 174.776 85.7012 174.84 85.7012H175.269C175.333 85.7012 175.385 85.6493 175.385 85.5853V85.4206C175.385 85.3566 175.333 85.3047 175.269 85.3047Z" fill="#E6E6E6"/>
<path d="M176.589 85.3047H176.161C176.097 85.3047 176.045 85.3566 176.045 85.4206V85.5853C176.045 85.6493 176.097 85.7012 176.161 85.7012H176.589C176.653 85.7012 176.705 85.6493 176.705 85.5853V85.4206C176.705 85.3566 176.653 85.3047 176.589 85.3047Z" fill="#E6E6E6"/>
<path d="M177.907 85.3047H177.479C177.415 85.3047 177.363 85.3566 177.363 85.4206V85.5853C177.363 85.6493 177.415 85.7012 177.479 85.7012H177.907C177.971 85.7012 178.023 85.6493 178.023 85.5853V85.4206C178.023 85.3566 177.971 85.3047 177.907 85.3047Z" fill="#E6E6E6"/>
<path d="M179.228 85.3047H178.799C178.735 85.3047 178.684 85.3566 178.684 85.4206V85.5853C178.684 85.6493 178.735 85.7012 178.799 85.7012H179.228C179.292 85.7012 179.344 85.6493 179.344 85.5853V85.4206C179.344 85.3566 179.292 85.3047 179.228 85.3047Z" fill="#E6E6E6"/>
<path d="M180.548 85.3047H180.12C180.056 85.3047 180.004 85.3566 180.004 85.4206V85.5853C180.004 85.6493 180.056 85.7012 180.12 85.7012H180.548C180.612 85.7012 180.664 85.6493 180.664 85.5853V85.4206C180.664 85.3566 180.612 85.3047 180.548 85.3047Z" fill="#E6E6E6"/>
<path d="M181.868 85.3047H181.44C181.376 85.3047 181.324 85.3566 181.324 85.4206V85.5853C181.324 85.6493 181.376 85.7012 181.44 85.7012H181.868C181.932 85.7012 181.984 85.6493 181.984 85.5853V85.4206C181.984 85.3566 181.932 85.3047 181.868 85.3047Z" fill="#E6E6E6"/>
<path d="M183.189 85.3047H182.76C182.696 85.3047 182.645 85.3566 182.645 85.4206V85.5853C182.645 85.6493 182.696 85.7012 182.76 85.7012H183.189C183.253 85.7012 183.304 85.6493 183.304 85.5853V85.4206C183.304 85.3566 183.253 85.3047 183.189 85.3047Z" fill="#E6E6E6"/>
<path d="M184.509 85.3047H184.081C184.017 85.3047 183.965 85.3566 183.965 85.4206V85.5853C183.965 85.6493 184.017 85.7012 184.081 85.7012H184.509C184.573 85.7012 184.625 85.6493 184.625 85.5853V85.4206C184.625 85.3566 184.573 85.3047 184.509 85.3047Z" fill="#E6E6E6"/>
<path d="M185.827 85.3047H185.399C185.335 85.3047 185.283 85.3566 185.283 85.4206V85.5853C185.283 85.6493 185.335 85.7012 185.399 85.7012H185.827C185.891 85.7012 185.943 85.6493 185.943 85.5853V85.4206C185.943 85.3566 185.891 85.3047 185.827 85.3047Z" fill="#E6E6E6"/>
<path d="M187.148 85.3047H186.719C186.655 85.3047 186.604 85.3566 186.604 85.4206V85.5853C186.604 85.6493 186.655 85.7012 186.719 85.7012H187.148C187.212 85.7012 187.263 85.6493 187.263 85.5853V85.4206C187.263 85.3566 187.212 85.3047 187.148 85.3047Z" fill="#E6E6E6"/>
<path d="M188.468 85.3047H188.04C187.976 85.3047 187.924 85.3566 187.924 85.4206V85.5853C187.924 85.6493 187.976 85.7012 188.04 85.7012H188.468C188.532 85.7012 188.584 85.6493 188.584 85.5853V85.4206C188.584 85.3566 188.532 85.3047 188.468 85.3047Z" fill="#E6E6E6"/>
<path d="M189.788 85.3047H189.36C189.296 85.3047 189.244 85.3566 189.244 85.4206V85.5853C189.244 85.6493 189.296 85.7012 189.36 85.7012H189.788C189.852 85.7012 189.904 85.6493 189.904 85.5853V85.4206C189.904 85.3566 189.852 85.3047 189.788 85.3047Z" fill="#E6E6E6"/>
<path d="M191.109 85.3047H190.68C190.616 85.3047 190.564 85.3566 190.564 85.4206V85.5853C190.564 85.6493 190.616 85.7012 190.68 85.7012H191.109C191.173 85.7012 191.224 85.6493 191.224 85.5853V85.4206C191.224 85.3566 191.173 85.3047 191.109 85.3047Z" fill="#E6E6E6"/>
<path d="M192.427 85.3047H191.999C191.935 85.3047 191.883 85.3566 191.883 85.4206V85.5853C191.883 85.6493 191.935 85.7012 191.999 85.7012H192.427C192.491 85.7012 192.543 85.6493 192.543 85.5853V85.4206C192.543 85.3566 192.491 85.3047 192.427 85.3047Z" fill="#E6E6E6"/>
<path d="M193.747 85.3047H193.319C193.255 85.3047 193.203 85.3566 193.203 85.4206V85.5853C193.203 85.6493 193.255 85.7012 193.319 85.7012H193.747C193.811 85.7012 193.863 85.6493 193.863 85.5853V85.4206C193.863 85.3566 193.811 85.3047 193.747 85.3047Z" fill="#E6E6E6"/>
<path d="M195.068 85.3047H194.639C194.575 85.3047 194.523 85.3566 194.523 85.4206V85.5853C194.523 85.6493 194.575 85.7012 194.639 85.7012H195.068C195.132 85.7012 195.183 85.6493 195.183 85.5853V85.4206C195.183 85.3566 195.132 85.3047 195.068 85.3047Z" fill="#E6E6E6"/>
<path d="M175.253 85.9658H174.825C174.761 85.9658 174.709 86.0177 174.709 86.0818V86.2464C174.709 86.3105 174.761 86.3624 174.825 86.3624H175.253C175.317 86.3624 175.369 86.3105 175.369 86.2464V86.0818C175.369 86.0177 175.317 85.9658 175.253 85.9658Z" fill="#E6E6E6"/>
<path d="M176.573 85.9658H176.145C176.081 85.9658 176.029 86.0177 176.029 86.0818V86.2464C176.029 86.3105 176.081 86.3624 176.145 86.3624H176.573C176.637 86.3624 176.689 86.3105 176.689 86.2464V86.0818C176.689 86.0177 176.637 85.9658 176.573 85.9658Z" fill="#E6E6E6"/>
<path d="M177.892 85.9658H177.463C177.399 85.9658 177.348 86.0177 177.348 86.0818V86.2464C177.348 86.3105 177.399 86.3624 177.463 86.3624H177.892C177.956 86.3624 178.008 86.3105 178.008 86.2464V86.0818C178.008 86.0177 177.956 85.9658 177.892 85.9658Z" fill="#E6E6E6"/>
<path d="M179.212 85.9658H178.784C178.72 85.9658 178.668 86.0177 178.668 86.0818V86.2464C178.668 86.3105 178.72 86.3624 178.784 86.3624H179.212C179.276 86.3624 179.328 86.3105 179.328 86.2464V86.0818C179.328 86.0177 179.276 85.9658 179.212 85.9658Z" fill="#E6E6E6"/>
<path d="M180.532 85.9658H180.104C180.04 85.9658 179.988 86.0177 179.988 86.0818V86.2464C179.988 86.3105 180.04 86.3624 180.104 86.3624H180.532C180.596 86.3624 180.648 86.3105 180.648 86.2464V86.0818C180.648 86.0177 180.596 85.9658 180.532 85.9658Z" fill="#E6E6E6"/>
<path d="M181.853 85.9658H181.424C181.36 85.9658 181.309 86.0177 181.309 86.0818V86.2464C181.309 86.3105 181.36 86.3624 181.424 86.3624H181.853C181.917 86.3624 181.969 86.3105 181.969 86.2464V86.0818C181.969 86.0177 181.917 85.9658 181.853 85.9658Z" fill="#E6E6E6"/>
<path d="M183.173 85.9658H182.745C182.681 85.9658 182.629 86.0177 182.629 86.0818V86.2464C182.629 86.3105 182.681 86.3624 182.745 86.3624H183.173C183.237 86.3624 183.289 86.3105 183.289 86.2464V86.0818C183.289 86.0177 183.237 85.9658 183.173 85.9658Z" fill="#E6E6E6"/>
<path d="M184.493 85.9658H184.065C184.001 85.9658 183.949 86.0177 183.949 86.0818V86.2464C183.949 86.3105 184.001 86.3624 184.065 86.3624H184.493C184.557 86.3624 184.609 86.3105 184.609 86.2464V86.0818C184.609 86.0177 184.557 85.9658 184.493 85.9658Z" fill="#E6E6E6"/>
<path d="M185.812 85.9658H185.383C185.319 85.9658 185.268 86.0177 185.268 86.0818V86.2464C185.268 86.3105 185.319 86.3624 185.383 86.3624H185.812C185.876 86.3624 185.928 86.3105 185.928 86.2464V86.0818C185.928 86.0177 185.876 85.9658 185.812 85.9658Z" fill="#E6E6E6"/>
<path d="M187.132 85.9658H186.704C186.64 85.9658 186.588 86.0177 186.588 86.0818V86.2464C186.588 86.3105 186.64 86.3624 186.704 86.3624H187.132C187.196 86.3624 187.248 86.3105 187.248 86.2464V86.0818C187.248 86.0177 187.196 85.9658 187.132 85.9658Z" fill="#E6E6E6"/>
<path d="M188.452 85.9658H188.024C187.96 85.9658 187.908 86.0177 187.908 86.0818V86.2464C187.908 86.3105 187.96 86.3624 188.024 86.3624H188.452C188.516 86.3624 188.568 86.3105 188.568 86.2464V86.0818C188.568 86.0177 188.516 85.9658 188.452 85.9658Z" fill="#E6E6E6"/>
<path d="M189.773 85.9658H189.344C189.28 85.9658 189.229 86.0177 189.229 86.0818V86.2464C189.229 86.3105 189.28 86.3624 189.344 86.3624H189.773C189.837 86.3624 189.888 86.3105 189.888 86.2464V86.0818C189.888 86.0177 189.837 85.9658 189.773 85.9658Z" fill="#E6E6E6"/>
<path d="M191.093 85.9658H190.665C190.601 85.9658 190.549 86.0177 190.549 86.0818V86.2464C190.549 86.3105 190.601 86.3624 190.665 86.3624H191.093C191.157 86.3624 191.209 86.3105 191.209 86.2464V86.0818C191.209 86.0177 191.157 85.9658 191.093 85.9658Z" fill="#E6E6E6"/>
<path d="M192.411 85.9658H191.983C191.919 85.9658 191.867 86.0177 191.867 86.0818V86.2464C191.867 86.3105 191.919 86.3624 191.983 86.3624H192.411C192.475 86.3624 192.527 86.3105 192.527 86.2464V86.0818C192.527 86.0177 192.475 85.9658 192.411 85.9658Z" fill="#E6E6E6"/>
<path d="M193.732 85.9658H193.303C193.239 85.9658 193.188 86.0177 193.188 86.0818V86.2464C193.188 86.3105 193.239 86.3624 193.303 86.3624H193.732C193.796 86.3624 193.847 86.3105 193.847 86.2464V86.0818C193.847 86.0177 193.796 85.9658 193.732 85.9658Z" fill="#E6E6E6"/>
<path d="M195.052 85.9658H194.624C194.56 85.9658 194.508 86.0177 194.508 86.0818V86.2464C194.508 86.3105 194.56 86.3624 194.624 86.3624H195.052C195.116 86.3624 195.168 86.3105 195.168 86.2464V86.0818C195.168 86.0177 195.116 85.9658 195.052 85.9658Z" fill="#E6E6E6"/>
<path d="M186.209 86.7588H181.161C181.097 86.7588 181.045 86.8107 181.045 86.8747V87.0394C181.045 87.1034 181.097 87.1553 181.161 87.1553H186.209C186.273 87.1553 186.325 87.1034 186.325 87.0394V86.8747C186.325 86.8107 186.273 86.7588 186.209 86.7588Z" fill="#E6E6E6"/>
<path d="M200.874 54.8207H167.172C167.137 54.8199 167.104 54.8054 167.079 54.7803C167.055 54.7552 167.041 54.7215 167.041 54.6865C167.041 54.6514 167.055 54.6177 167.079 54.5926C167.104 54.5675 167.137 54.553 167.172 54.5522H200.874C200.909 54.553 200.942 54.5675 200.966 54.5926C200.991 54.6177 201.005 54.6514 201.005 54.6865C201.005 54.7215 200.991 54.7552 200.966 54.7803C200.942 54.8054 200.909 54.8199 200.874 54.8207Z" fill="#CACACA"/>
<path d="M169.465 53.8669C169.899 53.8669 170.251 53.5069 170.251 53.0629C170.251 52.6188 169.899 52.2588 169.465 52.2588C169.031 52.2588 168.68 52.6188 168.68 53.0629C168.68 53.5069 169.031 53.8669 169.465 53.8669Z" fill="#CCCCCC"/>
<path d="M172.18 53.8669C172.614 53.8669 172.965 53.5069 172.965 53.0629C172.965 52.6188 172.614 52.2588 172.18 52.2588C171.746 52.2588 171.395 52.6188 171.395 53.0629C171.395 53.5069 171.746 53.8669 172.18 53.8669Z" fill="#CCCCCC"/>
<path d="M174.893 53.8669C175.327 53.8669 175.678 53.5069 175.678 53.0629C175.678 52.6188 175.327 52.2588 174.893 52.2588C174.459 52.2588 174.107 52.6188 174.107 53.0629C174.107 53.5069 174.459 53.8669 174.893 53.8669Z" fill="#CCCCCC"/>
<path d="M199.24 52.458H197.313C197.275 52.4588 197.238 52.4745 197.212 52.5018C197.185 52.5291 197.17 52.5659 197.17 52.6042C197.17 52.6424 197.185 52.6792 197.212 52.7065C197.238 52.7338 197.275 52.7495 197.313 52.7503H199.24C199.279 52.7495 199.315 52.7338 199.342 52.7065C199.368 52.6792 199.383 52.6424 199.383 52.6042C199.383 52.5659 199.368 52.5291 199.342 52.5018C199.315 52.4745 199.279 52.4588 199.24 52.458Z" fill="#CCCCCC"/>
<path d="M199.24 53.0068H197.313C197.275 53.0076 197.238 53.0233 197.212 53.0507C197.185 53.078 197.17 53.1147 197.17 53.153C197.17 53.1912 197.185 53.228 197.212 53.2553C197.238 53.2826 197.275 53.2984 197.313 53.2991H199.24C199.279 53.2984 199.315 53.2826 199.342 53.2553C199.368 53.228 199.383 53.1912 199.383 53.153C199.383 53.1147 199.368 53.078 199.342 53.0507C199.315 53.0233 199.279 53.0076 199.24 53.0068Z" fill="#CCCCCC"/>
<path d="M199.24 53.5547H197.313C197.275 53.5554 197.238 53.5712 197.212 53.5985C197.185 53.6258 197.17 53.6626 197.17 53.7008C197.17 53.7391 197.185 53.7758 197.212 53.8032C197.238 53.8305 197.275 53.8462 197.313 53.847H199.24C199.279 53.8462 199.315 53.8305 199.342 53.8032C199.368 53.7758 199.383 53.7391 199.383 53.7008C199.383 53.6626 199.368 53.6258 199.342 53.5985C199.315 53.5712 199.279 53.5554 199.24 53.5547Z" fill="#CCCCCC"/>
<path d="M186.743 62.1328H182.532C182.215 62.1328 181.959 62.3896 181.959 62.7064C181.959 63.0231 182.215 63.2799 182.532 63.2799H186.743C187.059 63.2799 187.316 63.0231 187.316 62.7064C187.316 62.3896 187.059 62.1328 186.743 62.1328Z" fill="#0267FF"/>
<path d="M189.463 64.4268H179.811C179.495 64.4268 179.238 64.6835 179.238 65.0003C179.238 65.3171 179.495 65.5738 179.811 65.5738H189.463C189.779 65.5738 190.036 65.3171 190.036 65.0003C190.036 64.6835 189.779 64.4268 189.463 64.4268Z" fill="#E6E6E6"/>
<path d="M189.463 66.7212H179.811C179.495 66.7212 179.238 66.978 179.238 67.2947C179.238 67.6115 179.495 67.8683 179.811 67.8683H189.463C189.779 67.8683 190.036 67.6115 190.036 67.2947C190.036 66.978 189.779 66.7212 189.463 66.7212Z" fill="#E6E6E6"/>
<path d="M124.437 102.462L122.496 101.532L125.163 93.4062L128.028 94.7784L124.437 102.462Z" fill="#FFB6B6"/>
<path d="M137.451 101.152C137.31 101.24 137.169 101.327 137.026 101.415C136.743 101.589 136.456 101.76 136.169 101.929C136.025 102.013 135.88 102.097 135.736 102.18V102.184L135.727 102.186L135.725 102.187L135.505 102.241L135.19 101.407L135.044 101.023L134.839 100.479L134.463 99.4839L132.48 94.2431L135.562 93.4819L135.678 93.9546H135.679L135.736 94.1888L136.813 98.5614L137.032 99.4553L137.039 99.4825L137.172 100.017L137.286 100.479L137.413 100.996L137.451 101.152Z" fill="#FFB6B6"/>
<path d="M155.834 82.7475C155.638 83.0617 155.439 83.3744 155.238 83.6843C154.864 84.2612 154.481 84.8296 154.087 85.3893C154.087 85.3908 154.086 85.3908 154.084 85.3922C153.854 85.6052 153.601 85.7907 153.328 85.9448C153.317 85.9534 153.304 85.9591 153.293 85.9663C153.092 86.0773 152.878 86.1632 152.657 86.2219C152.577 86.2419 152.496 86.2618 152.416 86.2818C152.128 86.3504 151.842 86.4089 151.559 86.4603C151.054 86.5503 150.555 86.6146 150.059 86.6546C150.019 86.6589 149.979 86.6617 149.939 86.6646C147.898 86.8145 145.912 86.5732 143.838 86.1776C142.815 85.9834 141.769 85.7506 140.687 85.5093C140.333 85.4293 139.978 85.3508 139.619 85.2722C139.592 85.2665 139.563 85.2594 139.535 85.2537C139.021 85.1409 138.5 85.0295 137.965 84.9195C137.292 84.781 136.597 84.6468 135.876 84.5197L135.927 85.5378C135.97 86.3211 136.132 87.0931 136.409 87.827C136.717 88.7295 136.961 89.4435 136.446 90.93L136.198 91.6498C136.327 92.0072 136.371 92.3895 136.327 92.7669C136.283 93.1442 136.153 93.5063 135.946 93.8246L135.896 93.9003L137.965 99.1426L138.099 99.4824H137.039L135.736 99.4838H133.527L130.34 93.0806L130.188 92.775V92.7593L130.517 80.4541C130.521 80.3456 130.53 80.2356 130.544 80.1271C130.602 79.6337 130.758 79.1569 131.002 78.7244C131.246 78.2919 131.574 77.9124 131.966 77.6081C132.341 77.314 132.772 77.0977 133.232 76.9717C133.692 76.8457 134.172 76.8125 134.645 76.8741L135.736 77.0155L137.965 77.3039L139.535 77.5081L139.566 77.5124L144.196 78.1122L144.529 76.7556L144.59 76.7327L146.539 76.0173L153.281 73.5425L153.298 73.5368L153.742 73.374L153.795 73.4597C153.81 73.4854 153.826 73.5111 153.84 73.5368C154.279 74.3237 154.635 75.1534 154.905 76.013C155.359 77.4171 155.733 78.846 156.025 80.2928C156.038 80.3556 156.049 80.4127 156.059 80.4641L156.063 80.4798C156.068 80.5041 156.07 80.5198 156.072 80.5241C156.206 81.2728 156.123 82.0442 155.834 82.7475Z" fill="#2F2E41"/>
<path d="M156.12 78.2127C156.098 78.1213 156.071 78.0285 156.043 77.9385C155.816 77.2571 155.553 76.5888 155.253 75.9365C154.916 75.1939 154.513 74.3985 154.032 73.5374C153.8 73.1204 153.55 72.6868 153.282 72.2365C153.148 72.0108 153.009 71.7809 152.864 71.5467C152.859 71.536 152.852 71.5255 152.846 71.5153L152.804 71.4468L146.134 72.3407L143.65 72.6734L143.501 73.913L143.466 74.22C143.464 74.22 143.464 74.22 143.466 74.2214L143.366 75.0582V75.0597L143.233 76.1649L143.222 76.1635L139.536 75.6851L135.737 75.1925L133.696 74.9283C133.223 74.8666 132.743 74.8997 132.283 75.0257C131.823 75.1517 131.393 75.3681 131.017 75.6623C130.625 75.9667 130.297 76.3462 130.053 76.7787C129.809 77.2111 129.653 77.688 129.595 78.1813C129.582 78.2813 129.574 78.3841 129.57 78.4855L127.644 83.0537C126.492 85.7857 125.759 88.6762 125.468 91.6275L124.057 96.1472L124.258 96.1657L127.249 96.4442L128.039 96.5185L129.779 93.9752C129.977 93.6853 130.166 93.3868 130.341 93.0812C130.63 92.5821 130.886 92.0651 131.11 91.5333L134.873 82.5653C135.164 82.6153 135.452 82.6629 135.737 82.7081C137.056 82.9223 138.322 83.097 139.536 83.2322C143.481 83.6735 146.898 83.7077 149.94 83.3336C150.794 83.2294 151.619 83.0923 152.417 82.9223C152.709 82.8609 152.997 82.7948 153.282 82.7238C153.349 82.7081 153.415 82.6924 153.48 82.6753C154.07 82.5231 154.611 82.2253 155.056 81.8092C155.501 81.393 155.834 80.8719 156.026 80.2933C156.254 79.6229 156.287 78.9011 156.12 78.2127Z" fill="#2F2E41"/>
<path d="M125.057 101.135L122.956 100.127L122.627 99.9683L122.101 101.262L118.427 102.072C118.246 102.112 118.081 102.209 117.959 102.349C117.836 102.488 117.761 102.664 117.745 102.85C117.729 103.035 117.773 103.221 117.87 103.38C117.967 103.539 118.112 103.662 118.285 103.733L121.874 105.199L123.013 104.172L122.734 105.55L124.085 106.103L125.567 101.381L125.057 101.135Z" fill="#2F2E41"/>
<path d="M137.965 99.1426L138.099 99.4824H137.965V99.1426Z" fill="#2F2E41"/>
<path d="M137.233 99.5548L135.033 100.318L134.687 100.438L135.222 101.728L133.181 104.892C133.08 105.048 133.031 105.233 133.043 105.418C133.054 105.604 133.124 105.782 133.243 105.925C133.362 106.068 133.524 106.169 133.704 106.214C133.885 106.258 134.075 106.244 134.247 106.172L137.827 104.685L137.916 103.153L138.685 104.329L140.034 103.769L137.769 99.3696L137.233 99.5548Z" fill="#2F2E41"/>
<path d="M123.875 52.3056C123.98 52.5092 124.127 52.6874 124.308 52.8276C124.489 52.9679 124.698 53.0668 124.92 53.1174C125.143 53.168 125.375 53.169 125.598 53.1205C125.821 53.0719 126.031 52.9748 126.213 52.8362L130.841 55.9129L130.85 53.0221L126.454 50.5436C126.201 50.2532 125.85 50.0657 125.469 50.0167C125.087 49.9677 124.701 50.0606 124.383 50.2778C124.065 50.4949 123.838 50.8213 123.744 51.1951C123.651 51.5688 123.697 51.9639 123.875 52.3056Z" fill="#FFB6B6"/>
<path d="M127.334 53.6417L129.493 51.1816L138.285 56.4085L149.94 55.3397C150.516 55.2869 151.097 55.3617 151.641 55.5589C152.185 55.7561 152.679 56.0708 153.087 56.4806C153.496 56.8904 153.81 57.3854 154.006 57.9303C154.203 58.4753 154.277 59.0568 154.224 59.6337C154.126 60.6755 153.62 61.636 152.816 62.3046C152.012 62.9731 150.977 63.2951 149.936 63.1997L136.81 61.9831L127.334 53.6417Z" fill="#CCCCCC"/>
<path d="M154.384 53.68L154.363 53.6545C152.724 53.4925 151.073 53.8103 149.61 54.5693C148.147 55.3283 146.935 56.496 146.122 57.9308L145.133 59.6756C141.934 63.5925 144.258 66.2936 144.398 66.6953L143.287 71.823L143.536 73.539L143.66 74.0488L156.337 80.6819C157.058 77.2094 156.361 74.2503 153.731 71.9897L156.275 64.0629C156.839 62.3102 156.962 60.4451 156.632 58.6335C156.302 56.822 155.529 55.1203 154.384 53.68Z" fill="#CCCCCC"/>
<path d="M144.304 92.1898H140.238C140.015 92.1897 139.798 92.1087 139.63 91.9618C139.461 91.8149 139.351 91.6119 139.319 91.3902C139.068 89.54 139.068 87.6643 139.319 85.8142C139.35 85.5951 139.458 85.3943 139.624 85.2477C139.789 85.1012 140.002 85.0186 140.223 85.0147C141.502 84.4404 142.88 84.4405 144.318 85.0146C144.452 85.0164 144.584 85.0475 144.705 85.1058C144.826 85.1641 144.932 85.2481 145.017 85.352C145.105 85.4601 145.169 85.5865 145.202 85.7222C145.236 85.8578 145.239 85.9992 145.211 86.1361C144.884 87.7639 144.884 89.4405 145.211 91.0683C145.239 91.2052 145.236 91.3466 145.202 91.4822C145.169 91.6178 145.105 91.7443 145.017 91.8523C144.931 91.9581 144.822 92.0432 144.699 92.1016C144.575 92.16 144.441 92.1901 144.304 92.1898Z" fill="#0267FF"/>
<path d="M143.878 87.1403H140.456C140.428 87.1406 140.4 87.1352 140.374 87.1246C140.347 87.1139 140.324 87.0982 140.304 87.0783C140.283 87.0584 140.268 87.0346 140.257 87.0085C140.246 86.9824 140.24 86.9544 140.24 86.9261C140.24 86.8978 140.246 86.8698 140.257 86.8437C140.268 86.8176 140.283 86.7939 140.304 86.774C140.324 86.7541 140.347 86.7383 140.374 86.7277C140.4 86.717 140.428 86.7117 140.456 86.7119H143.878C143.907 86.7117 143.935 86.717 143.961 86.7277C143.987 86.7383 144.011 86.7541 144.031 86.774C144.051 86.7939 144.067 86.8176 144.078 86.8437C144.089 86.8698 144.094 86.8978 144.094 86.9261C144.094 86.9544 144.089 86.9824 144.078 87.0085C144.067 87.0346 144.051 87.0584 144.031 87.0783C144.011 87.0982 143.987 87.1139 143.961 87.1246C143.935 87.1352 143.907 87.1406 143.878 87.1403Z" fill="white"/>
<path d="M143.878 88.8537H140.456C140.428 88.8539 140.4 88.8486 140.374 88.8379C140.347 88.8273 140.324 88.8115 140.304 88.7916C140.283 88.7717 140.268 88.748 140.257 88.7219C140.246 88.6958 140.24 88.6678 140.24 88.6395C140.24 88.6112 140.246 88.5832 140.257 88.5571C140.268 88.531 140.283 88.5073 140.304 88.4874C140.324 88.4675 140.347 88.4517 140.374 88.4411C140.4 88.4304 140.428 88.4251 140.456 88.4253H143.878C143.907 88.4251 143.935 88.4304 143.961 88.4411C143.987 88.4517 144.011 88.4675 144.031 88.4874C144.051 88.5073 144.067 88.531 144.078 88.5571C144.089 88.5832 144.094 88.6112 144.094 88.6395C144.094 88.6678 144.089 88.6958 144.078 88.7219C144.067 88.748 144.051 88.7717 144.031 88.7916C144.011 88.8115 143.987 88.8273 143.961 88.8379C143.935 88.8486 143.907 88.8539 143.878 88.8537Z" fill="white"/>
<path d="M143.878 90.5676H140.456C140.428 90.5678 140.4 90.5625 140.374 90.5519C140.347 90.5412 140.324 90.5255 140.304 90.5056C140.284 90.4856 140.268 90.4619 140.257 90.4358C140.246 90.4097 140.24 90.3817 140.24 90.3534C140.24 90.3251 140.246 90.297 140.257 90.2709C140.268 90.2448 140.284 90.2211 140.304 90.2012C140.324 90.1813 140.347 90.1655 140.374 90.1549C140.4 90.1443 140.428 90.1389 140.456 90.1392H143.878C143.907 90.1389 143.935 90.1443 143.961 90.1549C143.987 90.1655 144.011 90.1813 144.031 90.2012C144.051 90.2211 144.067 90.2448 144.078 90.2709C144.089 90.297 144.094 90.3251 144.094 90.3534C144.094 90.3817 144.089 90.4097 144.078 90.4358C144.067 90.4619 144.051 90.4856 144.031 90.5056C144.011 90.5255 143.987 90.5412 143.961 90.5519C143.935 90.5625 143.907 90.5678 143.878 90.5676Z" fill="white"/>
<path d="M124.621 53.7172H120.555C120.331 53.717 120.115 53.636 119.946 53.4891C119.777 53.3422 119.667 53.1393 119.636 52.9175C119.384 51.0674 119.384 49.1917 119.636 47.3415C119.667 47.1224 119.775 46.9216 119.94 46.7751C120.106 46.6285 120.318 46.5459 120.539 46.542C121.818 45.9677 123.196 45.9678 124.635 46.5419C124.769 46.5437 124.901 46.5749 125.021 46.6331C125.142 46.6914 125.249 46.7755 125.333 46.8794C125.422 46.9874 125.485 47.1139 125.519 47.2495C125.552 47.3851 125.555 47.5265 125.527 47.6634C125.201 49.2912 125.201 50.9678 125.527 52.5956C125.555 52.7325 125.552 52.8739 125.519 53.0095C125.485 53.1452 125.422 53.2716 125.333 53.3797C125.247 53.4854 125.138 53.5706 125.015 53.6289C124.892 53.6873 124.757 53.7174 124.621 53.7172Z" fill="#0267FF"/>
<path d="M124.195 48.6677H120.772C120.744 48.6679 120.716 48.6626 120.69 48.6519C120.664 48.6413 120.64 48.6255 120.62 48.6056C120.6 48.5857 120.584 48.562 120.573 48.5359C120.562 48.5098 120.557 48.4818 120.557 48.4535C120.557 48.4252 120.562 48.3972 120.573 48.3711C120.584 48.3449 120.6 48.3212 120.62 48.3013C120.64 48.2814 120.664 48.2657 120.69 48.255C120.716 48.2444 120.744 48.239 120.772 48.2393H124.195C124.223 48.239 124.251 48.2444 124.277 48.255C124.303 48.2657 124.327 48.2814 124.347 48.3013C124.367 48.3212 124.383 48.3449 124.394 48.3711C124.405 48.3972 124.411 48.4252 124.411 48.4535C124.411 48.4818 124.405 48.5098 124.394 48.5359C124.383 48.562 124.367 48.5857 124.347 48.6056C124.327 48.6255 124.303 48.6413 124.277 48.6519C124.251 48.6626 124.223 48.6679 124.195 48.6677Z" fill="white"/>
<path d="M124.195 50.3815H120.772C120.744 50.3818 120.716 50.3764 120.69 50.3658C120.664 50.3551 120.64 50.3394 120.62 50.3195C120.6 50.2996 120.584 50.2759 120.573 50.2497C120.562 50.2236 120.557 50.1956 120.557 50.1673C120.557 50.139 120.562 50.111 120.573 50.0849C120.584 50.0588 120.6 50.0351 120.62 50.0152C120.64 49.9953 120.664 49.9795 120.69 49.9689C120.716 49.9582 120.744 49.9529 120.772 49.9531H124.195C124.223 49.9529 124.251 49.9582 124.277 49.9689C124.303 49.9795 124.327 49.9953 124.347 50.0152C124.367 50.0351 124.383 50.0588 124.394 50.0849C124.405 50.111 124.411 50.139 124.411 50.1673C124.411 50.1956 124.405 50.2236 124.394 50.2497C124.383 50.2759 124.367 50.2996 124.347 50.3195C124.327 50.3394 124.303 50.3551 124.277 50.3658C124.251 50.3764 124.223 50.3818 124.195 50.3815Z" fill="white"/>
<path d="M124.195 52.0949H120.773C120.744 52.0952 120.716 52.0898 120.69 52.0792C120.664 52.0686 120.64 52.0528 120.62 52.0329C120.6 52.013 120.584 51.9893 120.573 51.9632C120.562 51.937 120.557 51.909 120.557 51.8807C120.557 51.8524 120.562 51.8244 120.573 51.7983C120.584 51.7722 120.6 51.7485 120.62 51.7285C120.64 51.7086 120.664 51.6929 120.69 51.6822C120.716 51.6716 120.744 51.6662 120.773 51.6665H124.195C124.223 51.6662 124.251 51.6716 124.277 51.6822C124.304 51.6929 124.327 51.7086 124.347 51.7285C124.368 51.7485 124.383 51.7722 124.394 51.7983C124.405 51.8244 124.411 51.8524 124.411 51.8807C124.411 51.909 124.405 51.937 124.394 51.9632C124.383 51.9893 124.368 52.013 124.347 52.0329C124.327 52.0528 124.304 52.0686 124.277 52.0792C124.251 52.0898 124.223 52.0952 124.195 52.0949Z" fill="white"/>
<path d="M53.2399 64.1664H49.1737C48.9501 64.1662 48.734 64.0853 48.5652 63.9384C48.3963 63.7915 48.2861 63.5885 48.2547 63.3668C48.0036 61.5166 48.0036 59.6409 48.2547 57.7907C48.2857 57.5716 48.3937 57.3708 48.5593 57.2243C48.7249 57.0778 48.9372 56.9951 49.1581 56.9912C50.4375 56.417 51.8152 56.417 53.2539 56.9912C53.3878 56.9929 53.5198 57.0241 53.6405 57.0824C53.7612 57.1406 53.8677 57.2247 53.9525 57.3286C54.0409 57.4366 54.1042 57.5631 54.1377 57.6987C54.1713 57.8343 54.1742 57.9757 54.1464 58.1127C53.8197 59.7404 53.8197 61.417 54.1464 63.0448C54.1742 63.1817 54.1713 63.3231 54.1377 63.4588C54.1042 63.5944 54.0409 63.7208 53.9525 63.8289C53.8662 63.9346 53.7575 64.0198 53.6342 64.0781C53.5109 64.1365 53.3762 64.1667 53.2399 64.1664Z" fill="#0267FF"/>
<path d="M52.8139 59.1169H49.3916C49.3633 59.1171 49.3353 59.1118 49.3091 59.1011C49.283 59.0905 49.2592 59.0747 49.2391 59.0548C49.219 59.0349 49.2031 59.0112 49.1922 58.9851C49.1814 58.959 49.1758 58.931 49.1758 58.9027C49.1758 58.8744 49.1814 58.8464 49.1922 58.8203C49.2031 58.7942 49.219 58.7705 49.2391 58.7506C49.2592 58.7306 49.283 58.7149 49.3091 58.7042C49.3353 58.6936 49.3633 58.6882 49.3916 58.6885H52.8139C52.8422 58.6882 52.8702 58.6936 52.8964 58.7042C52.9225 58.7149 52.9463 58.7306 52.9664 58.7506C52.9865 58.7705 53.0024 58.7942 53.0132 58.8203C53.0241 58.8464 53.0297 58.8744 53.0297 58.9027C53.0297 58.931 53.0241 58.959 53.0132 58.9851C53.0024 59.0112 52.9865 59.0349 52.9664 59.0548C52.9463 59.0747 52.9225 59.0905 52.8964 59.1011C52.8702 59.1118 52.8422 59.1171 52.8139 59.1169Z" fill="white"/>
<path d="M52.8139 60.8308H49.3916C49.3633 60.831 49.3353 60.8257 49.3091 60.815C49.283 60.8043 49.2592 60.7886 49.2391 60.7687C49.219 60.7488 49.2031 60.7251 49.1922 60.699C49.1814 60.6729 49.1758 60.6448 49.1758 60.6166C49.1758 60.5883 49.1814 60.5603 49.1922 60.5341C49.2031 60.508 49.219 60.4843 49.2391 60.4644C49.2592 60.4445 49.283 60.4288 49.3091 60.4181C49.3353 60.4075 49.3633 60.4021 49.3916 60.4024H52.8139C52.8422 60.4021 52.8702 60.4075 52.8964 60.4181C52.9225 60.4288 52.9463 60.4445 52.9664 60.4644C52.9865 60.4843 53.0024 60.508 53.0132 60.5341C53.0241 60.5603 53.0297 60.5883 53.0297 60.6166C53.0297 60.6448 53.0241 60.6729 53.0132 60.699C53.0024 60.7251 52.9865 60.7488 52.9664 60.7687C52.9463 60.7886 52.9225 60.8043 52.8964 60.815C52.8702 60.8257 52.8422 60.831 52.8139 60.8308Z" fill="white"/>
<path d="M52.8141 62.5441H49.3917C49.3634 62.5444 49.3354 62.5391 49.3092 62.5284C49.283 62.5178 49.2592 62.502 49.2391 62.4821C49.2191 62.4622 49.2031 62.4385 49.1923 62.4124C49.1814 62.3863 49.1758 62.3582 49.1758 62.3299C49.1758 62.3016 49.1814 62.2736 49.1923 62.2475C49.2031 62.2214 49.2191 62.1977 49.2391 62.1778C49.2592 62.1578 49.283 62.1421 49.3092 62.1315C49.3354 62.1208 49.3634 62.1155 49.3917 62.1157H52.8141C52.8423 62.1155 52.8703 62.1208 52.8965 62.1315C52.9227 62.1421 52.9465 62.1578 52.9666 62.1778C52.9867 62.1977 53.0026 62.2214 53.0135 62.2475C53.0244 62.2736 53.03 62.3016 53.03 62.3299C53.03 62.3582 53.0244 62.3863 53.0135 62.4124C53.0026 62.4385 52.9867 62.4622 52.9666 62.4821C52.9465 62.502 52.9227 62.5178 52.8965 62.5284C52.8703 62.5391 52.8423 62.5444 52.8141 62.5441Z" fill="white"/>
<path d="M145.495 86.9845C145.692 86.8681 145.861 86.7099 145.99 86.5211C146.119 86.3322 146.205 86.1174 146.242 85.8916C146.279 85.6658 146.267 85.4345 146.205 85.2142C146.143 84.9938 146.034 84.7897 145.885 84.6161L148.678 79.8071L145.796 79.9698L143.586 84.5116C143.311 84.7816 143.145 85.143 143.119 85.5274C143.093 85.9118 143.208 86.2925 143.444 86.5973C143.679 86.9021 144.018 87.1099 144.396 87.1812C144.774 87.2526 145.165 87.1826 145.495 86.9845Z" fill="#FFB6B6"/>
<path d="M146.623 83.4487L144.043 81.4361L148.732 72.337L146.975 60.7496C146.888 60.1768 146.928 59.5919 147.092 59.0364C147.257 58.481 147.541 57.9685 147.925 57.5355C148.31 57.1024 148.784 56.7594 149.316 56.5308C149.847 56.3022 150.423 56.1935 151.001 56.2126C152.045 56.2482 153.033 56.6972 153.747 57.461C154.461 58.2249 154.843 59.2413 154.81 60.2871L154.376 73.4809L146.623 83.4487Z" fill="#CCCCCC"/>
<path d="M21.9086 80.9628C22.0711 80.7993 22.1959 80.602 22.274 80.3849C22.3522 80.1678 22.3818 79.9362 22.3609 79.7065C22.34 79.4767 22.2691 79.2542 22.1531 79.0549C22.037 78.8555 21.8788 78.684 21.6894 78.5526L24.1989 66.0703L21.4277 66.9614L19.4189 79.0348C19.2194 79.368 19.1489 79.7629 19.2208 80.1447C19.2926 80.5264 19.5018 80.8686 19.8086 81.1062C20.1155 81.3439 20.4988 81.4605 20.8858 81.4341C21.2729 81.4077 21.6368 81.24 21.9086 80.9628Z" fill="#9E616A"/>
<path d="M25.6144 54.5538L23.895 53.254C23.895 53.254 22.3782 53.1464 22.1095 55.8857C21.8409 58.625 21.2893 63.9634 21.2893 63.9634L18.6582 76.1669L22.3003 76.9675L25.1184 63.7977L26.809 59.8868L25.6144 54.5538Z" fill="#CCCCCC"/>
<path d="M22.7793 74.4805L32.4684 74.3188L33.2759 67.6885H22.7793V74.4805Z" fill="#9E616A"/>
<path d="M31.5005 115.282H33.7372L34.8013 106.642L31.5 106.642L31.5005 115.282Z" fill="#9E616A"/>
<path d="M17.4863 115.489L19.7231 115.473L20.7267 106.826L17.8176 107.494L17.4863 115.489Z" fill="#9E616A"/>
<path d="M24.4833 61.9786L23.9766 63.2981L24.0778 64.6178L33.9969 68.0582L33.5049 62.2831L32.3898 60.9634L24.4833 61.9786Z" fill="#FFB6B6"/>
<path d="M28.738 50.1033C30.6946 50.1033 32.2807 48.515 32.2807 46.5556C32.2807 44.5962 30.6946 43.0078 28.738 43.0078C26.7814 43.0078 25.1953 44.5962 25.1953 46.5556C25.1953 48.515 26.7814 50.1033 28.738 50.1033Z" fill="#9E616A"/>
<path d="M30.9459 114.177L34.4817 113.965V115.482L37.8434 117.807C38.0094 117.922 38.1345 118.087 38.2003 118.278C38.2661 118.469 38.2692 118.676 38.2091 118.869C38.1491 119.062 38.029 119.231 37.8665 119.351C37.704 119.47 37.5075 119.535 37.3057 119.535H33.0961L32.3705 118.034L32.0872 119.535H30.5L30.9459 114.177Z" fill="#2F2E41"/>
<path d="M16.7209 114.389L20.2552 114.153L20.2658 115.67L23.6436 117.972C23.8105 118.085 23.9367 118.249 24.0038 118.44C24.071 118.631 24.0755 118.838 24.0168 119.031C23.9581 119.224 23.8392 119.394 23.6775 119.515C23.5158 119.636 23.3198 119.702 23.118 119.703L18.9085 119.732L18.1725 118.237L17.8997 119.74L16.3125 119.751L16.7209 114.389Z" fill="#2F2E41"/>
<path d="M16.7909 108.865L18.4196 95.8273L20.3575 82.0815C18.9384 79.4423 22.1338 71.2466 22.1338 71.2466L22.5849 71.2683L32.794 73.197L32.7918 73.1872C34.8799 78.8906 35.5717 81.7082 35.4573 87.7817L35.0459 109.615H35.175C35.3891 109.615 35.5945 109.7 35.7459 109.852C35.8973 110.003 35.9824 110.209 35.9824 110.423C35.9824 110.638 35.8973 110.844 35.7459 110.995C35.5945 111.147 35.3891 111.232 35.175 111.232H31.1378C31.0317 111.232 30.9265 111.211 30.8284 111.171C30.7303 111.13 30.6411 111.071 30.566 110.996C30.4909 110.921 30.4313 110.831 30.3906 110.733C30.35 110.635 30.329 110.53 30.329 110.423C30.329 110.317 30.35 110.212 30.3906 110.114C30.4313 110.016 30.4909 109.926 30.566 109.851C30.6411 109.776 30.7303 109.717 30.8284 109.676C30.9265 109.635 31.0317 109.615 31.1378 109.615H31.2419L27.5363 83.6181L24.3946 94.5336L20.8419 108.765C22.1338 108.441 21.9332 109.19 21.9332 109.615C21.9332 109.829 21.8481 110.035 21.6967 110.187C21.5453 110.338 21.3399 110.423 21.1258 110.423H17.0887C16.9009 110.424 16.719 110.358 16.5742 110.238C16.4294 110.119 16.3309 109.952 16.2956 109.767C16.2603 109.583 16.2905 109.392 16.3809 109.227C16.4713 109.062 16.6163 108.934 16.7909 108.865Z" fill="#2F2E41"/>
<path d="M21.3383 71.6707L21.6613 68.4364C21.6948 68.3045 21.7692 68.1866 21.8738 68.0996C21.9784 68.0126 22.1078 67.961 22.2434 67.9521C22.378 66.4114 22.9442 59.7647 22.978 59.4748L22.9793 59.4626L23.2368 53.9549C23.2461 53.7549 23.3287 53.5653 23.4688 53.4224C23.6089 53.2795 23.7966 53.1933 23.9962 53.1802L25.356 53.0912C25.3746 53.0906 25.3923 53.0827 25.4053 53.0693C25.4183 53.0558 25.4255 53.0379 25.4255 53.0192C25.4255 52.8688 25.4551 52.7199 25.5126 52.581C25.57 52.442 25.6543 52.3158 25.7605 52.2094C25.8666 52.1031 25.9927 52.0187 26.1314 51.9612C26.2702 51.9036 26.4189 51.874 26.5691 51.874H30.5951C30.8558 51.8741 31.1076 51.9695 31.3031 52.1424C31.4986 52.3152 31.6244 52.5535 31.6569 52.8126C31.6587 52.8304 31.6671 52.8469 31.6806 52.8588C31.694 52.8707 31.7114 52.8771 31.7293 52.8767H31.7297C32.1872 52.8672 32.6329 53.0223 32.9859 53.3138C33.339 53.6053 33.576 54.0139 33.6539 54.4654C34.2043 57.6724 35.3074 64.951 34.762 68.9975C34.5721 70.4061 34.9814 69.2904 35.0532 70.4691C35.0603 70.583 35.045 70.6971 35.0079 70.8051C34.9709 70.913 34.913 71.0126 34.8375 71.0981C34.9921 71.1543 35.1183 71.2694 35.1886 71.4182C35.259 71.5671 35.268 71.7377 35.2135 71.8931L35.2842 71.8755C35.2635 71.9579 35.2268 72.0354 35.1761 72.1035C35.1255 72.1717 35.062 72.2292 34.9891 72.2728C34.9163 72.3163 34.8356 72.3451 34.7517 72.3574C34.6678 72.3698 34.5823 72.3654 34.5 72.3447L23.967 73.7739C23.6211 73.6866 21.2511 72.0172 21.3383 71.6707Z" fill="#CCCCCC"/>
<path d="M49.4847 58.5209C49.4187 58.742 49.3051 58.9459 49.1519 59.1183C48.9987 59.2906 48.8097 59.4273 48.598 59.5186C48.3864 59.6098 48.1574 59.6535 47.9271 59.6466C47.6967 59.6396 47.4707 59.5822 47.265 59.4783L43.193 63.1998L42.6523 60.3358L46.6046 57.2501C46.8018 56.9155 47.1147 56.665 47.484 56.546C47.8533 56.427 48.2533 56.4478 48.6083 56.6045C48.9633 56.7611 49.2486 57.0427 49.4101 57.3959C49.5716 57.7491 49.5982 58.1494 49.4847 58.5209Z" fill="#9E616A"/>
<path d="M35.3118 55.6762C35.3118 55.6762 33.8919 52.4629 32.0986 53.1016C30.3052 53.7403 31.2312 56.8581 31.2312 56.8581L37.9687 67.0252C37.9687 67.0252 47.6868 60.7823 46.505 60.7382C45.3233 60.6941 44.9699 58.5417 44.9699 58.5417L39.8337 61.1117L39.6599 60.1968L39.3814 60.4758L38.6626 59.9092L35.3118 55.6762Z" fill="#CCCCCC"/>
<path d="M151.462 52.1466C154.193 52.1466 156.408 49.929 156.408 47.1934C156.408 44.4578 154.193 42.2402 151.462 42.2402C148.73 42.2402 146.516 44.4578 146.516 47.1934C146.516 49.929 148.73 52.1466 151.462 52.1466Z" fill="#FFB6B6"/>
<path d="M167.334 54.4818C166.764 55.2919 165.931 55.8792 164.977 56.1443C164.595 56.258 164.201 56.3251 163.803 56.3439C163.754 55.8933 163.636 55.453 163.454 55.038C163.472 55.4797 163.411 55.921 163.273 56.3409C162.675 56.3069 162.091 56.1502 161.557 55.8804C161.032 55.616 160.576 55.2327 160.225 54.761C159.873 54.2892 159.637 53.742 159.534 53.1627C159.324 51.8079 159.937 50.4776 160.159 49.1248C160.382 47.7721 159.964 46.0587 158.642 45.7032C157.635 45.4323 157.747 45.5494 156.91 46.1718C157.781 47.4612 154.565 52.1864 153.248 51.7743C152.504 51.5413 152.028 50.8575 151.874 50.8575C150.84 52.6422 152.788 55.6492 150.824 56.2736L150.986 56.1117C152.171 54.652 149.694 51.5624 150.879 50.1027C151.21 49.6942 151.562 49.2104 151.464 48.6939C151.372 48.203 150.594 47.9432 150.366 48.3466C150.776 47.4064 150.17 46.1514 149.168 45.91C148.278 45.6951 148.295 45.9599 147.402 46.075C147.343 45.6885 147.234 45.3114 147.077 44.9535C147.094 45.3391 147.049 45.7249 146.944 46.0964C146.628 46.0902 146.324 45.9799 146.077 45.7827C145.349 45.1949 145.496 43.9603 146.146 43.287C146.797 42.6137 147.765 42.3712 148.687 42.2144C148.956 40.3441 154.108 40.149 154.791 42.0178C155.082 40.6222 156.827 39.898 158.183 40.3309C159.539 40.7639 160.48 42.032 160.975 43.3685C161.47 44.7039 161.609 46.1412 161.914 47.5327C162.219 48.9242 162.735 50.3411 163.797 51.2894C164.859 52.2368 166.589 52.5505 167.708 51.6704C167.87 52.1354 167.921 52.6323 167.856 53.1208C167.792 53.6092 167.613 54.0755 167.334 54.4818Z" fill="#2F2E41"/>
<path d="M213.74 65.785L213.047 69.2642C212.995 69.5301 212.94 69.8009 212.881 70.0692C212.302 69.9491 211.702 69.9826 211.141 70.1666C211.586 70.8044 211.986 71.4735 212.336 72.1686C211.899 73.5151 211.259 74.7595 210.187 75.6596C209.471 76.2474 208.616 76.6405 207.704 76.801C206.793 76.9616 205.855 76.8842 204.982 76.5763L205.013 76.4386C203.86 74.1991 204.486 71.3754 205.919 69.3069C206.649 68.2864 207.515 67.3701 208.492 66.5829C209.459 65.7755 210.505 65.0512 211.541 64.3363C211.774 64.1761 212.049 64.0889 212.332 64.086C212.614 64.0831 212.891 64.1646 213.127 64.3201C213.363 64.4756 213.547 64.6981 213.656 64.959C213.766 65.2199 213.795 65.5075 213.74 65.785Z" fill="#E4E4E4"/>
<path d="M205.227 84.9477C204.936 82.8215 204.636 80.6682 204.841 78.5192C205.022 76.6108 205.604 74.7468 206.787 73.2183C207.416 72.4086 208.18 71.7148 209.047 71.1681C209.273 71.0256 209.48 71.384 209.256 71.526C207.757 72.4748 206.597 73.8757 205.944 75.5269C205.223 77.3631 205.108 79.3649 205.233 81.3154C205.308 82.495 205.467 83.6665 205.628 84.8373C205.641 84.8902 205.633 84.9462 205.606 84.9936C205.579 85.041 205.535 85.0763 205.483 85.0923C205.43 85.1066 205.374 85.0994 205.326 85.0723C205.278 85.0452 205.243 85.0003 205.228 84.9475L205.227 84.9477Z" fill="#F2F2F2"/>
<path d="M24.5681 44.3835C24.0247 44.6447 23.4165 44.2518 22.9474 43.8625L23.1152 44.0077C22.2861 44.8154 21.8985 45.9776 21.7091 47.1216C21.5195 48.2644 21.4984 49.4332 21.2597 50.5679C21.0208 51.7014 20.5253 52.8402 19.5996 53.5345C18.3596 54.4644 16.6493 54.4047 15.1276 54.1196C15.1073 54.1155 15.0884 54.1124 15.0681 54.1083C15.4776 52.9243 15.644 51.6698 15.5575 50.4199C15.1496 51.6724 14.4551 52.8123 13.5296 53.7485C12.5206 53.4705 11.5358 53.1111 10.5847 52.6739C9.96937 52.3903 9.30677 52.0025 9.13598 51.3458C8.96476 50.694 9.36236 50.0104 9.89401 49.5989C10.4257 49.1873 11.0782 48.9726 11.6838 48.6794C12.2885 48.3876 12.8869 47.9716 13.129 47.3435C13.6874 45.8986 12.0966 44.2407 12.7166 42.8204C13.0223 42.122 13.7711 41.7421 14.4749 41.4492C15.5494 41.0032 16.6527 40.6306 17.7774 40.3337C18.7646 40.0729 19.7955 39.8702 20.8013 40.0412C21.807 40.2121 22.7923 40.8247 23.1543 41.7812C23.7583 41.9857 24.3995 42.216 24.7871 42.7252C25.1746 43.2331 25.1433 44.1075 24.5681 44.3835Z" fill="#2F2E41"/>
<path d="M29.402 42.709C27.8476 41.4802 26.5909 41.6899 25.6213 42.4534C25.4584 42.2718 24.7647 42.7714 24.5299 42.6996L23.6805 44.2965C23.2434 45.0689 23.064 45.8574 23.1347 46.3012C22.3307 48.5591 24.2373 50.0839 26.4921 50.889C27.3918 51.2125 28.3735 51.2268 29.2821 50.9295L29.3098 50.5447L29.4806 50.8601C29.4806 50.8601 31.5419 55.1104 32.029 55.3013C31.7334 54.5335 30.9539 50.8844 30.7363 50.1238C30.438 49.0888 30.6418 47.4446 30.8171 46.4366C30.9264 45.8151 30.9321 45.1797 30.834 44.5564L30.8297 44.5291L31.312 45.5041L32.3941 44.8227C31.9805 43.6164 31.9723 42.1733 29.402 42.709Z" fill="#2F2E41"/>
</svg>
