<svg width="66" height="89" viewBox="0 0 66 89" fill="none" xmlns="http://www.w3.org/2000/svg">
<path d="M65.7217 27.062V77.1742C65.7185 80.1103 64.5175 82.9251 62.3827 85.0001C60.2479 87.0751 57.3538 88.2407 54.3363 88.2407H11.6648C8.64523 88.2437 5.74812 87.0795 3.61074 85.0042C1.47336 82.9288 0.270796 80.1123 0.267578 77.1742V11.8264C0.267577 10.3706 0.56246 8.92905 1.13537 7.58422C1.70827 6.23939 2.54797 5.01761 3.60645 3.98875C4.66493 2.95988 5.92144 2.1441 7.30414 1.58804C8.68684 1.03198 10.1686 0.746543 11.6648 0.748053H38.7936L65.7217 27.062Z" fill="#5599FF"/>
<path d="M39.9745 1.90527C37.7896 7.5271 32.7347 16.1488 37.8368 23.4005C39.1596 25.4083 47.2262 28.5145 52.2812 30.2979C55.5172 31.4435 58.1746 35.0575 58.1746 38.4826L58.588 71.9301C58.568 73.4046 58.2575 74.8606 57.6743 76.215C57.0911 77.5694 56.2467 78.7956 55.1893 79.8234C54.1319 80.8512 52.8822 81.6605 51.5118 82.205C50.1414 82.7494 48.6771 83.0184 47.2026 82.9966H4.54288C3.61621 82.9994 2.69248 82.8923 1.79102 82.6777C2.81311 84.3815 4.26076 85.7902 5.99181 86.7655C7.72285 87.7407 9.67779 88.249 11.6646 88.2405H54.3362C60.6312 88.2405 65.7334 83.28 65.7216 77.174V27.0618L39.9745 1.90527Z" fill="#2A7FFF"/>
<path d="M6.14916 7.55095C6.36263 7.54783 6.57461 7.58699 6.77288 7.66616C6.97115 7.74534 7.1518 7.86297 7.3044 8.01228C7.457 8.16159 7.57855 8.33963 7.66203 8.53612C7.74552 8.73262 7.78929 8.9437 7.79082 9.15719V13.6924C7.79239 13.9069 7.75131 14.1196 7.66996 14.318C7.58861 14.5165 7.46861 14.6968 7.31695 14.8484C7.16529 15.0001 6.98499 15.1201 6.78654 15.2014C6.58809 15.2828 6.37544 15.3239 6.16097 15.3223C5.94848 15.3208 5.73838 15.2774 5.54266 15.1946C5.34694 15.1119 5.16943 14.9914 5.02028 14.84C4.87113 14.6887 4.75325 14.5095 4.67337 14.3125C4.59349 14.1156 4.55317 13.9049 4.55473 13.6924V9.15719C4.55782 8.73215 4.72804 8.32539 5.0286 8.02483C5.32916 7.72427 5.72411 7.55405 6.14916 7.55095ZM6.14916 16.3971C6.36462 16.3939 6.57854 16.4338 6.77836 16.5145C6.97819 16.5951 7.15989 16.7149 7.31281 16.8667C7.46573 17.0185 7.58679 17.1993 7.66887 17.3986C7.75096 17.5978 7.79242 17.8114 7.79082 18.0269V18.7001C7.7846 19.1272 7.60976 19.5345 7.30444 19.8332C6.99912 20.1319 6.58808 20.2977 6.16097 20.2945C5.73794 20.2915 5.33293 20.1229 5.0327 19.8249C4.73247 19.5269 4.5609 19.1231 4.55473 18.7001V18.0269C4.55317 17.8144 4.59349 17.6037 4.67337 17.4068C4.75325 17.2099 4.87113 17.0307 5.02028 16.8793C5.16943 16.728 5.34694 16.6075 5.54266 16.5247C5.73838 16.442 5.93667 16.3986 6.14916 16.3971Z" fill="white"/>
<path d="M38.793 0.759766L35.2499 14.5781C35.0151 15.499 34.9778 16.4574 35.1403 17.393C35.3029 18.3286 35.6617 19.2212 36.1943 20.0145C36.7268 20.8078 37.4215 21.4846 38.2347 22.0023C39.0478 22.52 39.9618 22.8674 40.9189 23.0227L65.7211 27.0619L38.793 0.759766Z" fill="#AACCFF"/>
<path d="M22.5414 39.628C22.3289 39.6264 22.1182 39.6667 21.9213 39.7466C21.7244 39.8265 21.5452 39.9444 21.3938 40.0935C21.2425 40.2427 21.122 40.4202 21.0392 40.6159C20.9565 40.8116 20.9131 41.0217 20.9116 41.2342C20.9116 42.1318 21.6438 42.8641 22.5414 42.8641H53.5441C53.7586 42.8656 53.9712 42.8246 54.1697 42.7432C54.3682 42.6618 54.5485 42.5419 54.7001 42.3902C54.8518 42.2385 54.9718 42.0582 55.0531 41.8598C55.1345 41.6613 55.1756 41.4487 55.174 41.2342C55.1724 41.0217 55.1291 40.8116 55.0463 40.6159C54.9636 40.4202 54.8431 40.2427 54.6917 40.0935C54.5404 39.9444 54.3611 39.8265 54.1642 39.7466C53.9673 39.6667 53.7566 39.6264 53.5441 39.628H22.5414ZM12.0654 47.7655C11.852 47.7639 11.6403 47.8046 11.4426 47.8852C11.2449 47.9658 11.0652 48.0848 10.9137 48.2352C10.7622 48.3856 10.6419 48.5645 10.5599 48.7616C10.4778 48.9586 10.4356 49.17 10.4356 49.3835C10.4474 50.2811 11.1678 50.9897 12.0654 50.9897H53.9221C54.3471 50.9866 54.7539 50.8164 55.0544 50.5159C55.355 50.2153 55.5252 49.8085 55.5283 49.3835C55.5283 48.9564 55.3595 48.5466 55.0586 48.2435C54.7577 47.9404 54.3491 47.7686 53.9221 47.7655H12.0654ZM12.0654 55.8911C11.851 55.8895 11.6383 55.9306 11.4399 56.012C11.2414 56.0933 11.0611 56.2133 10.9095 56.365C10.7578 56.5166 10.6378 56.6969 10.5565 56.8954C10.4751 57.0939 10.434 57.3065 10.4356 57.521C10.4356 58.4186 11.1678 59.1508 12.0654 59.139H28.5057C28.7192 59.1406 28.9309 59.0999 29.1286 59.0193C29.3262 58.9386 29.506 58.8197 29.6575 58.6693C29.809 58.5189 29.9293 58.34 30.0113 58.1429C30.0934 57.9458 30.1356 57.7345 30.1356 57.521C30.1372 57.3065 30.0961 57.0939 30.0147 56.8954C29.9334 56.6969 29.8134 56.5166 29.6617 56.365C29.5101 56.2133 29.3298 56.0933 29.1313 56.012C28.9329 55.9306 28.7202 55.8895 28.5057 55.8911H12.0654ZM34.6236 55.8911C34.4101 55.8911 34.1988 55.9333 34.0017 56.0154C33.8046 56.0975 33.6257 56.2177 33.4753 56.3692C33.3249 56.5207 33.2059 56.7005 33.1253 56.8981C33.0447 57.0958 33.004 57.3075 33.0056 57.521C33.0056 58.4186 33.7378 59.1508 34.6354 59.139H53.9221C54.3491 59.1359 54.7577 58.9641 55.0586 58.6609C55.3595 58.3578 55.5283 57.9481 55.5283 57.521C55.5299 57.3085 55.4895 57.0978 55.4097 56.9009C55.3298 56.704 55.2119 56.5247 55.0628 56.3734C54.9136 56.222 54.7361 56.1015 54.5404 56.0188C54.3447 55.936 54.1346 55.8927 53.9221 55.8911H34.6236ZM12.0654 64.0404C11.853 64.0388 11.6422 64.0792 11.4453 64.159C11.2484 64.2389 11.0692 64.3568 10.9178 64.5059C10.7665 64.6551 10.646 64.8326 10.5633 65.0283C10.4805 65.224 10.4371 65.4341 10.4356 65.6466C10.4356 66.5442 11.1678 67.2765 12.0654 67.2765H17.8526C18.2797 67.2703 18.687 67.0954 18.9857 66.7901C19.2844 66.4848 19.4502 66.0737 19.447 65.6466C19.444 65.2236 19.2754 64.8186 18.9774 64.5184C18.6794 64.2181 18.2756 64.0466 17.8526 64.0404H12.0654ZM23.7343 64.0404C23.3092 64.0435 22.9025 64.2137 22.6019 64.5143C22.3014 64.8148 22.1311 65.2216 22.128 65.6466C22.128 66.5324 22.8367 67.2647 23.7343 67.2765H41.6391C41.8526 67.2765 42.0639 67.2343 42.261 67.1522C42.4581 67.0702 42.637 66.9499 42.7874 66.7984C42.9378 66.6469 43.0568 66.4671 43.1374 66.2695C43.218 66.0718 43.2587 65.8601 43.2571 65.6466C43.254 65.2196 43.0822 64.811 42.7791 64.5101C42.476 64.2092 42.0662 64.0404 41.6391 64.0404H23.7343ZM47.2373 64.0404C47.0248 64.0388 46.8141 64.0792 46.6172 64.159C46.4203 64.2389 46.241 64.3568 46.0897 64.5059C45.9383 64.6551 45.8178 64.8326 45.7351 65.0283C45.6524 65.224 45.609 65.4341 45.6074 65.6466C45.6074 66.5442 46.3397 67.2765 47.2373 67.2765H53.9221C54.1346 67.2749 54.3447 67.2316 54.5404 67.1488C54.7361 67.0661 54.9136 66.9456 55.0628 66.7942C55.2119 66.6429 55.3298 66.4636 55.4097 66.2667C55.4895 66.0698 55.5299 65.8591 55.5283 65.6466C55.5252 65.2216 55.355 64.8148 55.0544 64.5143C54.7539 64.2137 54.3471 64.0435 53.9221 64.0404H47.2373ZM12.0654 72.1779C11.852 72.1763 11.6403 72.217 11.4426 72.2976C11.2449 72.3783 11.0652 72.4972 10.9137 72.6476C10.7622 72.798 10.6419 72.9769 10.5599 73.174C10.4778 73.3711 10.4356 73.5824 10.4356 73.7959C10.4474 74.6935 11.1678 75.4022 12.0654 75.4022H53.9221C54.3471 75.3991 54.7539 75.2288 55.0544 74.9283C55.355 74.6277 55.5252 74.221 55.5283 73.7959C55.5283 73.3688 55.3595 72.959 55.0586 72.6559C54.7577 72.3528 54.3491 72.181 53.9221 72.1779H12.0654Z" fill="white"/>
</svg>
