<svg width="24" height="24" viewBox="0 0 24 24" fill="none" xmlns="http://www.w3.org/2000/svg">
<g id="Group">
<g id="Group_2">
<path id="Vector" fill-rule="evenodd" clip-rule="evenodd" d="M1.98141 0.421875H22.0186C22.8764 0.421875 23.5781 1.12364 23.5781 1.98141V22.0186C23.5781 22.8763 22.8764 23.5781 22.0186 23.5781H1.98141C1.12364 23.5781 0.421875 22.8764 0.421875 22.0186V1.98141C0.421875 1.12364 1.12364 0.421875 1.98141 0.421875Z" fill="#64B5F6"/>
<path id="Vector_2" fill-rule="evenodd" clip-rule="evenodd" d="M2.32373 6.04004H21.6766C21.8313 6.04004 21.9579 6.1666 21.9579 6.32129V21.6761C21.9579 21.8308 21.8313 21.9574 21.6766 21.9574H2.32373C2.16904 21.9574 2.04248 21.8308 2.04248 21.6761V6.32129C2.04248 6.1666 2.16904 6.04004 2.32373 6.04004Z" fill="#E6F8FF"/>
<path id="Vector_3" fill-rule="evenodd" clip-rule="evenodd" d="M0.421875 4.41994H23.5781V1.98141C23.5781 1.12364 22.8764 0.421875 22.0186 0.421875H1.98141C1.12364 0.421875 0.421875 1.12364 0.421875 1.98141V4.41994Z" fill="#004960"/>
<path id="Vector_4" fill-rule="evenodd" clip-rule="evenodd" d="M2.98584 2.93652C3.26981 2.93652 3.50147 2.70491 3.50147 2.4209C3.50147 2.13688 3.26986 1.90527 2.98584 1.90527C2.70182 1.90527 2.47021 2.13688 2.47021 2.4209C2.47021 2.70487 2.70187 2.93652 2.98584 2.93652Z" fill="#FC685B"/>
<path id="Vector_5" fill-rule="evenodd" clip-rule="evenodd" d="M5.12402 2.93652C5.40804 2.93652 5.63965 2.70491 5.63965 2.4209C5.63965 2.13688 5.40804 1.90527 5.12402 1.90527C4.84005 1.90527 4.6084 2.13688 4.6084 2.4209C4.6084 2.70487 4.84005 2.93652 5.12402 2.93652Z" fill="#FFDA2D"/>
<path id="Vector_6" d="M7.28137 2.93392C7.56595 2.92369 7.78836 2.68469 7.77812 2.4001C7.76789 2.11551 7.52888 1.8931 7.2443 1.90334C6.95971 1.91358 6.7373 2.15258 6.74754 2.43717C6.75777 2.72175 6.99678 2.94416 7.28137 2.93392Z" fill="#72D561"/>
<path id="Vector_7" fill-rule="evenodd" clip-rule="evenodd" d="M21.2918 2.0459C21.3913 2.0459 21.4867 2.08541 21.557 2.15573C21.6273 2.22606 21.6668 2.32144 21.6668 2.4209C21.6668 2.52035 21.6273 2.61574 21.557 2.68606C21.4867 2.75639 21.3913 2.7959 21.2918 2.7959H14.5044C14.4049 2.7959 14.3096 2.75639 14.2392 2.68606C14.1689 2.61574 14.1294 2.52035 14.1294 2.4209C14.1294 2.32144 14.1689 2.22606 14.2392 2.15573C14.3096 2.08541 14.4049 2.0459 14.5044 2.0459H21.2918Z" fill="#EFF4F7"/>
<path id="Vector_8" fill-rule="evenodd" clip-rule="evenodd" d="M1.57373 13.6237H11.6251V5.57129H12.3751V13.6237H22.4266V14.3737H12.3751V22.4261H11.6251V14.3737H1.57373V13.6237Z" fill="#64B5F6"/>
<path id="Vector_9" fill-rule="evenodd" clip-rule="evenodd" d="M16.9791 7.04883C19.1669 7.04883 20.9406 8.82244 20.9406 11.0103C20.9406 11.732 20.7475 12.4086 20.4103 12.9914L19.1927 12.2884C19.4103 11.9124 19.5349 11.4759 19.5349 11.0103C19.5349 9.59878 18.3906 8.45452 16.9791 8.45452C15.5675 8.45452 14.4233 9.59878 14.4233 11.0103C14.4233 11.4759 14.5478 11.9124 14.7654 12.2884L13.5478 12.9913C13.2107 12.4086 13.0176 11.732 13.0176 11.0103C13.0176 8.82248 14.7912 7.04883 16.9791 7.04883Z" fill="#FFDA2D"/>
<path id="Vector_10" fill-rule="evenodd" clip-rule="evenodd" d="M15.7009 8.79566L14.998 7.57812C14.3962 7.92658 13.8962 8.4266 13.5477 9.02839C13.2106 9.61114 13.0176 10.2878 13.0176 11.0095H14.4233C14.4233 10.5439 14.5478 10.1073 14.7653 9.73138C14.9901 9.34309 15.3127 9.02047 15.7009 8.79566Z" fill="#FFC700"/>
<path id="Vector_11" fill-rule="evenodd" clip-rule="evenodd" d="M14.9976 7.57903C14.3958 7.92749 13.8958 8.42751 13.5474 9.0293L14.7649 9.73223C14.9897 9.34398 15.3123 9.02139 15.7006 8.79656C16.0766 8.57902 16.5131 8.45452 16.9787 8.45452V7.04883C16.257 7.04883 15.5803 7.24181 14.9976 7.57903Z" fill="#72D561"/>
<path id="Vector_12" fill-rule="evenodd" clip-rule="evenodd" d="M16.9786 7.35633V7.04883C16.2569 7.04883 15.5803 7.24181 14.9976 7.57903L15.7005 8.79656C16.0765 8.57902 16.513 8.45452 16.9787 8.45452C17.4443 8.45452 17.8808 8.57902 18.2568 8.79656L18.9597 7.57898C18.377 7.24181 17.7003 7.04883 16.9787 7.04883V7.35633H16.9786Z" fill="#3CBE52"/>
<path id="Vector_13" fill-rule="evenodd" clip-rule="evenodd" d="M18.96 7.57898C18.3773 7.24181 17.7006 7.04883 16.979 7.04883V8.45452C17.4446 8.45452 17.8812 8.57902 18.2571 8.79656C18.6454 9.02137 18.968 9.34397 19.1928 9.73223L20.4103 9.0293C20.0618 8.42749 19.5618 7.92746 18.96 7.57898Z" fill="#64B5F6"/>
<path id="Vector_14" fill-rule="evenodd" clip-rule="evenodd" d="M20.41 9.02839C20.0616 8.42659 19.5616 7.92657 18.9598 7.57812L18.2568 8.7957C18.6451 9.02051 18.9677 9.34311 19.1925 9.73138C19.4101 10.1074 19.5346 10.5439 19.5346 11.0095H20.9402C20.9402 10.2878 20.7472 9.61119 20.41 9.02839Z" fill="#42A5F5"/>
<path id="Vector_15" fill-rule="evenodd" clip-rule="evenodd" d="M20.9402 11.0104C20.9402 10.2887 20.7472 9.61205 20.41 9.0293L19.1925 9.73223C19.41 10.1082 19.5345 10.5447 19.5345 11.0103C19.5345 11.476 19.4099 11.9124 19.1924 12.2884L20.4099 12.9914C20.7471 12.4087 20.9402 11.7321 20.9402 11.0104Z" fill="#FC685B"/>
<path id="Vector_16" fill-rule="evenodd" clip-rule="evenodd" d="M20.4099 12.9908C20.7471 12.408 20.9402 11.7315 20.9402 11.0098H19.5345C19.5345 11.4754 19.4099 11.9119 19.1924 12.2879L20.4099 12.9908Z" fill="#F35244"/>
<path id="Vector_17" fill-rule="evenodd" clip-rule="evenodd" d="M18.2617 9.83854C18.3474 9.79055 18.4487 9.77833 18.5434 9.80451C18.6382 9.83069 18.7188 9.89317 18.7677 9.97839C18.8167 10.0636 18.8301 10.1647 18.805 10.2597C18.7799 10.3548 18.7184 10.4361 18.6337 10.486L17.1651 11.3339C17.0793 11.3819 16.9781 11.3942 16.8833 11.368C16.7886 11.3418 16.708 11.2793 16.659 11.1941C16.6101 11.1089 16.5967 11.0078 16.6217 10.9127C16.6468 10.8177 16.7084 10.7364 16.793 10.6865L18.2617 9.83854Z" fill="#8D9CA8"/>
<path id="Vector_18" fill-rule="evenodd" clip-rule="evenodd" d="M16.979 11.7187C17.3694 11.7187 17.6879 11.4002 17.6879 11.0097C17.6879 10.6193 17.3694 10.3008 16.979 10.3008C16.5885 10.3008 16.27 10.6193 16.27 11.0097C16.27 11.4002 16.5885 11.7187 16.979 11.7187Z" fill="#64B5F6"/>
<path id="Vector_19" d="M9.13308 12.1332C10.3004 10.9659 10.3004 9.0732 9.13308 7.90583C7.96572 6.73847 6.07305 6.73847 4.90569 7.90583C3.73833 9.0732 3.73833 10.9659 4.90569 12.1332C6.07305 13.3006 7.96572 13.3006 9.13308 12.1332Z" fill="#72D561"/>
<path id="Vector_20" fill-rule="evenodd" clip-rule="evenodd" d="M7.021 7.03027V10.0195L9.76642 11.2038C9.92331 10.8406 10.0102 10.4402 10.0102 10.0194C10.0102 8.3686 8.67189 7.03027 7.021 7.03027Z" fill="#FFDA2D"/>
<path id="Vector_21" fill-rule="evenodd" clip-rule="evenodd" d="M9.76653 11.2039L7.02111 10.0195L5.22607 12.41C5.72595 12.786 6.34751 13.0088 7.02111 13.0088C8.25125 13.0088 9.30786 12.2657 9.76653 11.2039Z" fill="#FC685B"/>
<path id="Vector_22" d="M8.27349 10.0766C8.31157 9.38471 7.7816 8.79299 7.08977 8.75492C6.39794 8.71684 5.80623 9.24684 5.76816 9.93869C5.73008 10.6305 6.26006 11.2223 6.95189 11.2603C7.64371 11.2984 8.23542 10.7684 8.27349 10.0766Z" fill="#EFF4F7"/>
<path id="Vector_23" fill-rule="evenodd" clip-rule="evenodd" d="M13.9072 19.7012H14.5742C14.6774 19.7012 14.7617 19.7854 14.7617 19.8887V20.8247C14.7617 20.928 14.6774 21.0122 14.5742 21.0122H13.9072C13.804 21.0122 13.7197 20.928 13.7197 20.8247V19.8887C13.7197 19.7854 13.804 19.7012 13.9072 19.7012Z" fill="#FC685B"/>
<path id="Vector_24" fill-rule="evenodd" clip-rule="evenodd" d="M15.8828 18.7471H16.5497C16.653 18.7471 16.7372 18.8313 16.7372 18.9346V20.8244C16.7372 20.9277 16.653 21.0119 16.5497 21.0119H15.8828C15.7795 21.0119 15.6953 20.9277 15.6953 20.8244V18.9346C15.6953 18.8313 15.7795 18.7471 15.8828 18.7471Z" fill="#FFDA2D"/>
<path id="Vector_25" fill-rule="evenodd" clip-rule="evenodd" d="M17.8584 17.7939H18.5253C18.6286 17.7939 18.7128 17.8782 18.7128 17.9814V20.8252C18.7128 20.9284 18.6286 21.0127 18.5253 21.0127H17.8584C17.7551 21.0127 17.6709 20.9284 17.6709 20.8252V17.9814C17.671 17.9318 17.6908 17.8841 17.7259 17.849C17.7611 17.8138 17.8087 17.7941 17.8584 17.7939Z" fill="#72D561"/>
<path id="Vector_26" fill-rule="evenodd" clip-rule="evenodd" d="M19.8345 16.8398H20.5014C20.6047 16.8398 20.6889 16.9241 20.6889 17.0273V20.8248C20.6889 20.9281 20.6047 21.0123 20.5014 21.0123H19.8345C19.7312 21.0123 19.647 20.9281 19.647 20.8248V17.0273C19.647 16.9241 19.7312 16.8398 19.8345 16.8398Z" fill="#64B5F6"/>
<path id="Vector_27" fill-rule="evenodd" clip-rule="evenodd" d="M18.5362 15.9414L14.4542 18.2981C14.3684 18.347 14.2668 18.3599 14.1715 18.3342C14.0761 18.3084 13.9949 18.246 13.9454 18.1605C13.8959 18.0751 13.8822 17.9736 13.9073 17.8781C13.9323 17.7825 13.9942 17.7008 14.0792 17.6507L18.1617 15.2937C18.0741 15.2601 18.0023 15.1949 17.9605 15.111C17.9186 15.027 17.9098 14.9304 17.9358 14.8403C17.9617 14.7502 18.0205 14.673 18.1006 14.6242C18.1807 14.5753 18.2762 14.5583 18.3682 14.5764L19.276 14.7561C19.3299 14.7666 19.3808 14.7889 19.4251 14.8212C19.4694 14.8536 19.5061 14.8953 19.5326 14.9434C19.559 14.9915 19.5745 15.0448 19.5781 15.0996C19.5816 15.1544 19.5731 15.2093 19.5531 15.2604L19.2605 16.12C19.2304 16.2089 19.1681 16.2832 19.0858 16.3283C19.0035 16.3733 18.9073 16.3859 18.8163 16.3634C18.7252 16.341 18.6459 16.2851 18.594 16.207C18.5422 16.1288 18.5215 16.034 18.5362 15.9414Z" fill="#8D9CA8"/>
<path id="Vector_28" fill-rule="evenodd" clip-rule="evenodd" d="M3.88223 15.3799C3.82545 15.38 3.77102 15.4026 3.73087 15.4427C3.69071 15.4829 3.66809 15.5373 3.66797 15.5941V20.8852C3.66809 20.942 3.69071 20.9964 3.73087 21.0366C3.77102 21.0767 3.82545 21.0993 3.88223 21.0994H10.1599C10.2167 21.0993 10.2711 21.0767 10.3113 21.0366C10.3514 20.9964 10.3741 20.942 10.3742 20.8852V15.5941C10.3741 15.5373 10.3515 15.4829 10.3113 15.4427C10.2712 15.4026 10.2168 15.38 10.16 15.3799H3.88223Z" fill="#E2E3E3"/>
<path id="Vector_29" fill-rule="evenodd" clip-rule="evenodd" d="M7.57558 19.3672C7.47613 19.3672 7.38074 19.3277 7.31042 19.2574C7.24009 19.187 7.20058 19.0916 7.20058 18.9922C7.20058 18.8927 7.24009 18.7973 7.31042 18.727C7.38074 18.6567 7.47613 18.6172 7.57558 18.6172H7.89541C7.99487 18.6172 8.09025 18.6567 8.16058 18.727C8.2309 18.7973 8.27041 18.8927 8.27041 18.9922C8.27041 19.0916 8.2309 19.187 8.16058 19.2574C8.09025 19.3277 7.99487 19.3672 7.89541 19.3672H7.57558ZM9.00414 20.4537C8.90469 20.4537 8.80931 20.4142 8.73898 20.3439C8.66865 20.2735 8.62914 20.1782 8.62914 20.0787C8.62914 19.9792 8.66865 19.8839 8.73898 19.8135C8.80931 19.7432 8.90469 19.7037 9.00414 19.7037H9.32397C9.42343 19.7037 9.51881 19.7432 9.58914 19.8135C9.65946 19.8839 9.69897 19.9792 9.69897 20.0787C9.69897 20.1782 9.65946 20.2735 9.58914 20.3439C9.51881 20.4142 9.42343 20.4537 9.32397 20.4537H9.00414ZM7.57558 20.4537C7.47613 20.4537 7.38074 20.4142 7.31042 20.3439C7.24009 20.2735 7.20058 20.1782 7.20058 20.0787C7.20058 19.9792 7.24009 19.8839 7.31042 19.8135C7.38074 19.7432 7.47613 19.7037 7.57558 19.7037H7.89541C7.99487 19.7037 8.09025 19.7432 8.16058 19.8135C8.2309 19.8839 8.27041 19.9792 8.27041 20.0787C8.27041 20.1782 8.2309 20.2735 8.16058 20.3439C8.09025 20.4142 7.99487 20.4537 7.89541 20.4537H7.57558ZM6.14697 20.4537C6.04752 20.4537 5.95213 20.4142 5.88181 20.3439C5.81148 20.2735 5.77197 20.1782 5.77197 20.0787C5.77197 19.9792 5.81148 19.8839 5.88181 19.8135C5.95213 19.7432 6.04752 19.7037 6.14697 19.7037H6.4668C6.56626 19.7037 6.66164 19.7432 6.73197 19.8135C6.80229 19.8839 6.8418 19.9792 6.8418 20.0787C6.8418 20.1782 6.80229 20.2735 6.73197 20.3439C6.66164 20.4142 6.56626 20.4537 6.4668 20.4537H6.14697ZM9.00414 19.3672C8.90469 19.3672 8.80931 19.3277 8.73898 19.2574C8.66865 19.187 8.62914 19.0916 8.62914 18.9922C8.62914 18.8927 8.66865 18.7973 8.73898 18.727C8.80931 18.6567 8.90469 18.6172 9.00414 18.6172H9.32397C9.42343 18.6172 9.51881 18.6567 9.58914 18.727C9.65946 18.7973 9.69897 18.8927 9.69897 18.9922C9.69897 19.0916 9.65946 19.187 9.58914 19.2574C9.51881 19.3277 9.42343 19.3672 9.32397 19.3672H9.00414Z" fill="#FC685B"/>
<path id="Vector_30" fill-rule="evenodd" clip-rule="evenodd" d="M4.71826 20.4534C4.61881 20.4534 4.52342 20.4138 4.4531 20.3435C4.38277 20.2732 4.34326 20.1778 4.34326 20.0784C4.34326 19.9789 4.38277 19.8835 4.4531 19.8132C4.52342 19.7429 4.61881 19.7034 4.71826 19.7034H5.03814C5.13759 19.7034 5.23298 19.7429 5.3033 19.8132C5.37363 19.8835 5.41314 19.9789 5.41314 20.0784C5.41314 20.1778 5.37363 20.2732 5.3033 20.3435C5.23298 20.4138 5.13759 20.4534 5.03814 20.4534H4.71826ZM4.71826 18.2803C4.61881 18.2803 4.52342 18.2408 4.4531 18.1704C4.38277 18.1001 4.34326 18.0047 4.34326 17.9053C4.34326 17.8058 4.38277 17.7104 4.4531 17.6401C4.52342 17.5698 4.61881 17.5303 4.71826 17.5303H5.03814C5.13759 17.5303 5.23298 17.5698 5.3033 17.6401C5.37363 17.7104 5.41314 17.8058 5.41314 17.9053C5.41314 18.0047 5.37363 18.1001 5.3033 18.1704C5.23298 18.2408 5.13759 18.2803 5.03814 18.2803H4.71826ZM4.71826 19.3668C4.61881 19.3668 4.52342 19.3273 4.4531 19.257C4.38277 19.1867 4.34326 19.0913 4.34326 18.9918C4.34326 18.8924 4.38277 18.797 4.4531 18.7267C4.52342 18.6563 4.61881 18.6168 4.71826 18.6168H5.03814C5.13759 18.6168 5.23298 18.6563 5.3033 18.7267C5.37363 18.797 5.41314 18.8924 5.41314 18.9918C5.41314 19.0913 5.37363 19.1867 5.3033 19.257C5.23298 19.3273 5.13759 19.3668 5.03814 19.3668H4.71826ZM6.14687 19.3668C6.04741 19.3668 5.95203 19.3273 5.88171 19.257C5.81138 19.1867 5.77187 19.0913 5.77187 18.9918C5.77187 18.8924 5.81138 18.797 5.88171 18.7267C5.95203 18.6563 6.04741 18.6168 6.14687 18.6168H6.4667C6.56616 18.6168 6.66154 18.6563 6.73186 18.7267C6.80219 18.797 6.8417 18.8924 6.8417 18.9918C6.8417 19.0913 6.80219 19.1867 6.73186 19.257C6.66154 19.3273 6.56616 19.3668 6.4667 19.3668H6.14687ZM9.00404 18.2803C8.90459 18.2803 8.8092 18.2408 8.73888 18.1704C8.66855 18.1001 8.62904 18.0047 8.62904 17.9053C8.62904 17.8058 8.66855 17.7104 8.73888 17.6401C8.8092 17.5698 8.90459 17.5303 9.00404 17.5303H9.32387C9.42333 17.5303 9.51871 17.5698 9.58904 17.6401C9.65936 17.7104 9.69887 17.8058 9.69887 17.9053C9.69887 18.0047 9.65936 18.1001 9.58904 18.1704C9.51871 18.2408 9.42333 18.2803 9.32387 18.2803H9.00404ZM7.57548 18.2803C7.47602 18.2803 7.38064 18.2408 7.31032 18.1704C7.23999 18.1001 7.20048 18.0047 7.20048 17.9053C7.20048 17.8058 7.23999 17.7104 7.31032 17.6401C7.38064 17.5698 7.47602 17.5303 7.57548 17.5303H7.89531C7.99476 17.5303 8.09015 17.5698 8.16047 17.6401C8.2308 17.7104 8.27031 17.8058 8.27031 17.9053C8.27031 18.0047 8.2308 18.1001 8.16047 18.1704C8.09015 18.2408 7.99476 18.2803 7.89531 18.2803H7.57548ZM6.14687 18.2803C6.04741 18.2803 5.95203 18.2408 5.88171 18.1704C5.81138 18.1001 5.77187 18.0047 5.77187 17.9053C5.77187 17.8058 5.81138 17.7104 5.88171 17.6401C5.95203 17.5698 6.04741 17.5303 6.14687 17.5303H6.4667C6.56616 17.5303 6.66154 17.5698 6.73186 17.6401C6.80219 17.7104 6.8417 17.8058 6.8417 17.9053C6.8417 18.0047 6.80219 18.1001 6.73186 18.1704C6.66154 18.2408 6.56616 18.2803 6.4667 18.2803H6.14687Z" fill="#64B5F6"/>
<path id="Vector_31" fill-rule="evenodd" clip-rule="evenodd" d="M10.3742 16.9336V15.5941C10.3741 15.5373 10.3515 15.4829 10.3113 15.4427C10.2712 15.4026 10.2168 15.38 10.16 15.3799H3.88223C3.82545 15.38 3.77102 15.4026 3.73087 15.4427C3.69071 15.4829 3.66809 15.5373 3.66797 15.5941V16.9336H10.3742Z" fill="#004960"/>
<path id="Vector_32" fill-rule="evenodd" clip-rule="evenodd" d="M9.67066 15.7448C9.67066 15.8443 9.63115 15.9397 9.56082 16.01C9.4905 16.0803 9.39512 16.1198 9.29566 16.1198C9.1962 16.1198 9.10082 16.0803 9.0305 16.01C8.96017 15.9397 8.92066 15.8443 8.92066 15.7448V15.0156C8.92066 14.9162 8.96017 14.8208 9.0305 14.7505C9.10082 14.6801 9.1962 14.6406 9.29566 14.6406C9.39512 14.6406 9.4905 14.6801 9.56082 14.7505C9.63115 14.8208 9.67066 14.9162 9.67066 15.0156V15.7448ZM5.12158 15.7449C5.12158 15.8443 5.08207 15.9397 5.01175 16.01C4.94142 16.0803 4.84604 16.1199 4.74658 16.1199C4.64713 16.1199 4.55174 16.0803 4.48142 16.01C4.41109 15.9397 4.37158 15.8443 4.37158 15.7449V15.0157C4.37158 14.9162 4.41109 14.8208 4.48142 14.7505C4.55174 14.6802 4.64713 14.6407 4.74658 14.6407C4.84604 14.6407 4.94142 14.6802 5.01175 14.7505C5.08207 14.8208 5.12158 14.9162 5.12158 15.0157V15.7449ZM6.25882 15.7449C6.25882 15.8443 6.21931 15.9397 6.14898 16.01C6.07866 16.0803 5.98327 16.1199 5.88382 16.1199C5.78436 16.1199 5.68898 16.0803 5.61865 16.01C5.54833 15.9397 5.50882 15.8443 5.50882 15.7449V15.0157C5.50882 14.9162 5.54833 14.8208 5.61865 14.7505C5.68898 14.6802 5.78436 14.6407 5.88382 14.6407C5.98327 14.6407 6.07866 14.6802 6.14898 14.7505C6.21931 14.8208 6.25882 14.9162 6.25882 15.0157V15.7449ZM7.3961 15.7449C7.3961 15.8443 7.35659 15.9397 7.28626 16.01C7.21594 16.0803 7.12055 16.1199 7.0211 16.1199C6.92164 16.1199 6.82626 16.0803 6.75593 16.01C6.68561 15.9397 6.6461 15.8443 6.6461 15.7449V15.0157C6.6461 14.9162 6.68561 14.8208 6.75593 14.7505C6.82626 14.6802 6.92164 14.6407 7.0211 14.6407C7.12055 14.6407 7.21594 14.6802 7.28626 14.7505C7.35659 14.8208 7.3961 14.9162 7.3961 15.0157V15.7449ZM8.53338 15.7448C8.53338 15.8443 8.49387 15.9397 8.42354 16.01C8.35322 16.0803 8.25783 16.1198 8.15838 16.1198C8.05892 16.1198 7.96354 16.0803 7.89321 16.01C7.82289 15.9397 7.78338 15.8443 7.78338 15.7448V15.0156C7.78338 14.9162 7.82289 14.8208 7.89321 14.7505C7.96354 14.6801 8.05892 14.6406 8.15838 14.6406C8.25783 14.6406 8.35322 14.6801 8.42354 14.7505C8.49387 14.8208 8.53338 14.9162 8.53338 15.0156V15.7448Z" fill="#E2E3E3"/>
</g>
</g>
</svg>
