<svg width="24" height="24" viewBox="0 0 24 24" fill="none" xmlns="http://www.w3.org/2000/svg">
<g id="Group">
<path id="Vector" d="M19.1342 4.19086V18.7976C19.1342 18.8268 19.1337 18.8559 19.1322 18.8851C19.0865 19.8854 18.2607 20.683 17.2482 20.683H6.64618C5.60452 20.683 4.76025 19.8387 4.76025 18.7976V1.88592C4.76025 0.99061 5.38388 0.241079 6.22041 0.0480943C6.36006 0.0160236 6.50289 -0.00011074 6.64618 5.72028e-07H15.0677C15.3541 5.72028e-07 15.6335 0.0651568 15.8867 0.187641C16.3962 0.432844 16.5397 0.742735 17.4553 1.67888C18.5086 2.82258 18.7601 2.93981 18.9747 3.43505C19.08 3.6731 19.1344 3.93055 19.1342 4.19086Z" fill="#FFC477"/>
<path id="Vector_2" d="M19.1345 4.19086V18.7976C19.1345 18.8268 19.134 18.8559 19.1325 18.8851C18.9929 18.9172 18.85 18.9334 18.7067 18.9332H8.10467C7.06302 18.9332 6.21875 18.0889 6.21875 17.0478V0.136079C6.21875 0.106407 6.21922 0.0772505 6.22067 0.0480943C6.36034 0.016026 6.50319 -0.000108264 6.64648 5.46697e-07H15.068C15.3544 5.46697e-07 15.6338 0.0651568 15.887 0.187641C16.0972 0.288939 16.2868 0.428381 16.446 0.598876L17.4556 1.67892L18.6114 2.88825C18.7641 3.04751 18.8872 3.23268 18.975 3.43509C19.0803 3.67312 19.1347 3.93056 19.1345 4.19086Z" fill="#FFDAAA"/>
<path id="Vector_3" d="M23.9725 10.7315V21.3346C23.9725 21.9242 23.7809 22.4695 23.4563 22.9109C22.9716 23.571 22.1896 23.9997 21.3074 23.9997H14.3819C12.91 23.9997 11.7168 22.8064 11.7168 21.3346V10.7315C11.7168 9.63156 12.3837 8.68713 13.3349 8.2803C13.6658 8.13873 14.022 8.06596 14.3819 8.06641H21.3074C22.7797 8.06646 23.9725 9.25975 23.9725 10.7315Z" fill="#4CBA68"/>
<path id="Vector_4" d="M23.9726 10.7315V21.3346C23.9726 21.9242 23.781 22.4695 23.4564 22.9109C23.1255 23.0524 22.7693 23.1252 22.4094 23.1248H15.4839C14.0121 23.1248 12.8188 21.9315 12.8188 20.4597V9.85661C12.8188 9.26702 13.0104 8.72163 13.335 8.2803C13.6659 8.13873 14.0221 8.06596 14.382 8.06641H21.3075C22.7798 8.06646 23.9726 9.25975 23.9726 10.7315Z" fill="#7CCC92"/>
<path id="Vector_5" d="M18.8662 17.7033V18.9485C18.8662 19.1687 18.6878 19.3471 18.4681 19.3471H17.2223C17.17 19.3471 17.1181 19.3368 17.0698 19.3168C17.0214 19.2968 16.9775 19.2674 16.9405 19.2304C16.9034 19.1934 16.8741 19.1494 16.8541 19.1011C16.834 19.0527 16.8237 19.0009 16.8237 18.9485V17.7033C16.8237 17.6509 16.834 17.5991 16.8541 17.5507C16.8741 17.5024 16.9034 17.4584 16.9405 17.4214C16.9775 17.3844 17.0214 17.355 17.0698 17.335C17.1181 17.315 17.17 17.3047 17.2223 17.3047H18.4681C18.6879 17.3047 18.8662 17.4831 18.8662 17.7033Z" fill="#2C733F"/>
<path id="Vector_6" d="M22.141 10.4824V11.8167C22.141 12.2911 21.7565 12.676 21.2816 12.676H14.4077C13.9333 12.676 13.5483 12.291 13.5483 11.8167V10.4824C13.5483 10.008 13.9333 9.62305 14.4077 9.62305H21.2816C21.7565 9.62305 22.141 10.008 22.141 10.4824Z" fill="#1E81CE"/>
<path id="Vector_7" d="M22.1413 10.4824V11.8167C22.1413 12.2911 21.7568 12.676 21.2819 12.676H15.8662C15.3918 12.676 15.0068 12.291 15.0068 11.8167V10.4824C15.0068 10.008 15.3918 9.62305 15.8662 9.62305H21.2819C21.7568 9.62305 22.1413 10.008 22.1413 10.4824Z" fill="#3D9AE2"/>
<path id="Vector_8" d="M15.5913 17.7031V18.9484C15.5913 19.0007 15.581 19.0525 15.561 19.1009C15.5409 19.1492 15.5116 19.1932 15.4746 19.2302C15.4376 19.2672 15.3936 19.2966 15.3453 19.3166C15.2969 19.3366 15.2451 19.3469 15.1927 19.3469H13.9469C13.7272 19.3469 13.5483 19.1685 13.5483 18.9484V17.7031C13.5483 17.4829 13.7272 17.3045 13.9469 17.3045H15.1927C15.2451 17.3045 15.2969 17.3148 15.3453 17.3348C15.3936 17.3548 15.4376 17.3842 15.4746 17.4212C15.5116 17.4582 15.541 17.5022 15.561 17.5505C15.581 17.5989 15.5913 17.6507 15.5913 17.7031ZM18.8659 14.4464V15.6917C18.8659 15.9119 18.6875 16.0903 18.4678 16.0903H17.222C17.1697 16.0903 17.1179 16.08 17.0695 16.06C17.0211 16.0399 16.9772 16.0106 16.9402 15.9736C16.9032 15.9365 16.8738 15.8926 16.8538 15.8442C16.8337 15.7959 16.8234 15.7441 16.8235 15.6917V14.4464C16.8234 14.3941 16.8337 14.3423 16.8538 14.2939C16.8738 14.2455 16.9032 14.2016 16.9402 14.1646C16.9772 14.1276 17.0211 14.0982 17.0695 14.0782C17.1179 14.0582 17.1697 14.0478 17.222 14.0479H18.4678C18.6876 14.0479 18.8659 14.2263 18.8659 14.4464Z" fill="#2C733F"/>
<path id="Vector_9" d="M22.1806 14.4464V15.6917C22.1806 15.7441 22.1703 15.7959 22.1503 15.8442C22.1303 15.8926 22.1009 15.9365 22.0639 15.9736C22.0269 16.0106 21.9829 16.0399 21.9346 16.06C21.8862 16.08 21.8344 16.0903 21.782 16.0903H20.5368C20.4844 16.0903 20.4326 16.08 20.3842 16.06C20.3359 16.0399 20.2919 16.0106 20.2549 15.9736C20.2179 15.9365 20.1885 15.8926 20.1685 15.8442C20.1485 15.7959 20.1382 15.7441 20.1382 15.6917V14.4464C20.1382 14.3941 20.1485 14.3423 20.1685 14.2939C20.1885 14.2455 20.2179 14.2016 20.2549 14.1646C20.2919 14.1276 20.3359 14.0982 20.3842 14.0782C20.4326 14.0582 20.4844 14.0478 20.5368 14.0479H21.782C21.8344 14.0478 21.8862 14.0581 21.9346 14.0782C21.983 14.0982 22.0269 14.1276 22.0639 14.1646C22.1009 14.2016 22.1303 14.2455 22.1503 14.2939C22.1703 14.3422 22.1806 14.3941 22.1806 14.4464Z" fill="#EE8700"/>
<path id="Vector_10" d="M15.5913 14.4464V15.6917C15.5913 15.7441 15.581 15.7959 15.561 15.8442C15.5409 15.8926 15.5116 15.9365 15.4746 15.9736C15.4376 16.0106 15.3936 16.0399 15.3453 16.06C15.2969 16.08 15.2451 16.0903 15.1927 16.0903H13.9469C13.7272 16.0903 13.5483 15.9119 13.5483 15.6917V14.4464C13.5483 14.2263 13.7272 14.0479 13.9469 14.0479H15.1927C15.2451 14.0478 15.2969 14.0581 15.3453 14.0782C15.3936 14.0982 15.4376 14.1276 15.4746 14.1646C15.5116 14.2016 15.541 14.2455 15.561 14.2939C15.581 14.3422 15.5913 14.3941 15.5913 14.4464ZM18.8659 20.7998V22.0456C18.8659 22.2658 18.6875 22.4442 18.4678 22.4442H17.222C17.1697 22.4442 17.1179 22.4339 17.0695 22.4139C17.0211 22.3938 16.9772 22.3645 16.9402 22.3275C16.9032 22.2905 16.8738 22.2465 16.8538 22.1982C16.8337 22.1498 16.8234 22.098 16.8235 22.0456V20.7998C16.8235 20.5801 17.0019 20.4017 17.222 20.4017H18.4678C18.6876 20.4017 18.8659 20.5801 18.8659 20.7998ZM15.5913 20.7998V22.0456C15.5913 22.098 15.581 22.1498 15.561 22.1982C15.5409 22.2465 15.5116 22.2905 15.4746 22.3275C15.4376 22.3645 15.3936 22.3938 15.3453 22.4139C15.2969 22.4339 15.2451 22.4442 15.1927 22.4442H13.9469C13.7272 22.4442 13.5483 22.2658 13.5483 22.0456V20.7998C13.5483 20.5801 13.7272 20.4017 13.9469 20.4017H15.1927C15.4129 20.4017 15.5913 20.5801 15.5913 20.7998Z" fill="#2C733F"/>
<path id="Vector_11" d="M22.1806 17.8967V21.7643C22.1806 22.1401 21.8763 22.4443 21.5011 22.4443H20.8177C20.4424 22.4443 20.1382 22.1401 20.1382 21.7643V17.8967C20.1382 17.5696 20.4036 17.3047 20.7302 17.3047H21.5886C21.9157 17.3047 22.1806 17.5696 22.1806 17.8967Z" fill="#EE8700"/>
<path id="Vector_12" d="M18.8659 17.7031V18.0734C18.8659 18.2936 18.6875 18.472 18.4678 18.472H17.222C17.1697 18.472 17.1179 18.4617 17.0695 18.4417C17.0211 18.4217 16.9772 18.3923 16.9402 18.3553C16.9032 18.3183 16.8738 18.2743 16.8538 18.226C16.8337 18.1776 16.8234 18.1258 16.8235 18.0734V17.7031C16.8234 17.6507 16.8337 17.5989 16.8538 17.5505C16.8738 17.5022 16.9032 17.4582 16.9402 17.4212C16.9772 17.3842 17.0211 17.3548 17.0695 17.3348C17.1179 17.3148 17.1697 17.3045 17.222 17.3045H18.4678C18.6876 17.3045 18.8659 17.4829 18.8659 17.7031ZM15.5913 17.7031V18.0734C15.5913 18.1258 15.581 18.1776 15.561 18.226C15.5409 18.2743 15.5116 18.3183 15.4746 18.3553C15.4376 18.3923 15.3936 18.4217 15.3453 18.4417C15.2969 18.4617 15.2451 18.472 15.1927 18.472H13.9469C13.7272 18.472 13.5483 18.2936 13.5483 18.0734V17.7031C13.5483 17.4829 13.7272 17.3045 13.9469 17.3045H15.1927C15.2451 17.3045 15.2969 17.3148 15.3453 17.3348C15.3936 17.3548 15.4376 17.3842 15.4746 17.4212C15.5116 17.4582 15.541 17.5022 15.561 17.5505C15.581 17.5989 15.5913 17.6507 15.5913 17.7031ZM18.8659 14.4464V14.8168C18.8659 15.037 18.6875 15.2154 18.4678 15.2154H17.222C17.1697 15.2154 17.1179 15.2051 17.0695 15.185C17.0211 15.165 16.9772 15.1357 16.9402 15.0986C16.9032 15.0616 16.8738 15.0177 16.8538 14.9693C16.8337 14.921 16.8234 14.8691 16.8235 14.8168V14.4464C16.8234 14.3941 16.8337 14.3423 16.8538 14.2939C16.8738 14.2455 16.9032 14.2016 16.9402 14.1646C16.9772 14.1276 17.0211 14.0982 17.0695 14.0782C17.1179 14.0582 17.1697 14.0478 17.222 14.0479H18.4678C18.6876 14.0479 18.8659 14.2263 18.8659 14.4464Z" fill="#317F46"/>
<path id="Vector_13" d="M22.1806 14.4464V14.8168C22.1806 14.8691 22.1703 14.921 22.1503 14.9693C22.1303 15.0177 22.1009 15.0616 22.0639 15.0986C22.0269 15.1357 21.9829 15.165 21.9346 15.185C21.8862 15.2051 21.8344 15.2154 21.782 15.2154H20.5368C20.4844 15.2154 20.4326 15.2051 20.3842 15.185C20.3359 15.165 20.2919 15.1357 20.2549 15.0986C20.2179 15.0616 20.1885 15.0177 20.1685 14.9693C20.1485 14.921 20.1382 14.8691 20.1382 14.8168V14.4464C20.1382 14.3941 20.1485 14.3423 20.1685 14.2939C20.1885 14.2455 20.2179 14.2016 20.2549 14.1646C20.2919 14.1276 20.3359 14.0982 20.3842 14.0782C20.4326 14.0582 20.4844 14.0478 20.5368 14.0479H21.782C21.8344 14.0478 21.8862 14.0581 21.9346 14.0782C21.983 14.0982 22.0269 14.1276 22.0639 14.1646C22.1009 14.2016 22.1303 14.2455 22.1503 14.2939C22.1703 14.3422 22.1806 14.3941 22.1806 14.4464Z" fill="#FF9811"/>
<path id="Vector_14" d="M15.5913 14.4464V14.8168C15.5913 14.8691 15.581 14.921 15.561 14.9693C15.5409 15.0177 15.5116 15.0616 15.4746 15.0986C15.4376 15.1357 15.3936 15.165 15.3453 15.185C15.2969 15.2051 15.2451 15.2154 15.1927 15.2154H13.9469C13.7272 15.2154 13.5483 15.037 13.5483 14.8168V14.4464C13.5483 14.2263 13.7272 14.0479 13.9469 14.0479H15.1927C15.2451 14.0478 15.2969 14.0581 15.3453 14.0782C15.3936 14.0982 15.4376 14.1276 15.4746 14.1646C15.5116 14.2016 15.541 14.2455 15.561 14.2939C15.581 14.3422 15.5913 14.3941 15.5913 14.4464ZM18.8659 20.7998V21.1707C18.8659 21.3909 18.6875 21.5693 18.4678 21.5693H17.222C17.1697 21.5693 17.1179 21.559 17.0695 21.5389C17.0211 21.5189 16.9772 21.4896 16.9402 21.4525C16.9032 21.4155 16.8738 21.3716 16.8538 21.3232C16.8337 21.2749 16.8234 21.223 16.8235 21.1707V20.7998C16.8235 20.5801 17.0019 20.4017 17.222 20.4017H18.4678C18.6876 20.4017 18.8659 20.5801 18.8659 20.7998ZM15.5913 20.7998V21.1707C15.5913 21.223 15.581 21.2749 15.561 21.3232C15.5409 21.3716 15.5116 21.4155 15.4746 21.4525C15.4376 21.4896 15.3936 21.5189 15.3453 21.5389C15.2969 21.559 15.2451 21.5693 15.1927 21.5693H13.9469C13.7272 21.5693 13.5483 21.3909 13.5483 21.1707V20.7998C13.5483 20.5801 13.7272 20.4017 13.9469 20.4017H15.1927C15.4129 20.4017 15.5913 20.5801 15.5913 20.7998Z" fill="#317F46"/>
<path id="Vector_15" d="M22.1806 17.8967V20.8894C22.1806 21.2652 21.8763 21.5694 21.5011 21.5694H20.8177C20.4424 21.5694 20.1382 21.2652 20.1382 20.8894V17.8967C20.1382 17.5696 20.4036 17.3047 20.7302 17.3047H21.5886C21.9157 17.3047 22.1806 17.5696 22.1806 17.8967Z" fill="#FF9811"/>
<path id="Vector_16" d="M18.9749 3.43486H16.6117C16.2113 3.43486 15.8867 3.11025 15.8867 2.70984V0.1875C16.0969 0.288697 16.2864 0.428044 16.4457 0.598453L17.4556 1.67859L18.6113 2.88811C18.7639 3.04745 18.887 3.23256 18.9749 3.43486Z" fill="#FFB655"/>
<path id="Vector_17" d="M9.02083 10.2001C8.57632 10.0368 8.25522 9.91881 8.25522 9.50701C8.25522 9.13173 8.50446 8.94141 8.99604 8.94141C9.32636 8.94141 9.51265 9.03727 9.63621 9.10079C9.70952 9.13848 9.77285 9.17105 9.84218 9.17105C10.0422 9.17105 10.1529 8.95876 10.1529 8.81195C10.1529 8.50824 9.65754 8.35763 9.21466 8.31793V8.04409C9.21466 7.85359 9.05969 7.69862 8.86919 7.69862C8.67869 7.69862 8.52372 7.85359 8.52372 8.04409V8.36148C7.91819 8.50524 7.58547 8.92351 7.58547 9.54319C7.58547 10.3917 8.21013 10.6264 8.71211 10.8151C9.20364 10.9998 9.59191 11.1457 9.59191 11.7069C9.59191 12.1704 9.33452 12.4054 8.82691 12.4054C8.36716 12.4054 8.18397 12.2079 8.05029 12.0638C7.9706 11.9779 7.90183 11.9037 7.79355 11.9037C7.61805 11.9037 7.47668 12.1002 7.47668 12.2628C7.47668 12.5501 7.9045 12.9277 8.52377 13.0257V13.2903C8.52377 13.4808 8.67874 13.6358 8.86924 13.6358C9.05974 13.6358 9.21471 13.4808 9.21471 13.2903V13.0186C9.8808 12.8933 10.2618 12.4042 10.2618 11.6706C10.2617 10.656 9.57363 10.4033 9.02083 10.2001ZM15.4481 5.32187H16.3638C16.5651 5.32187 16.7283 5.1587 16.7283 4.95732C16.7283 4.75595 16.5651 4.59277 16.3638 4.59277H15.4481C15.2467 4.59277 15.0835 4.75595 15.0835 4.95732C15.0835 5.1587 15.2467 5.32187 15.4481 5.32187ZM7.52519 5.32187H13.9899C14.1912 5.32187 14.3544 5.1587 14.3544 4.95732C14.3544 4.75595 14.1912 4.59277 13.9899 4.59277H7.52519C7.32386 4.59277 7.16064 4.75595 7.16064 4.95732C7.16064 5.1587 7.32386 5.32187 7.52519 5.32187ZM8.68394 7.13134C8.88527 7.13134 9.04849 6.96816 9.04849 6.76679C9.04849 6.56541 8.88527 6.40224 8.68394 6.40224H7.52519C7.32386 6.40224 7.16064 6.56541 7.16064 6.76679C7.16064 6.96816 7.32386 7.13134 7.52519 7.13134H8.68394ZM16.3638 6.40224H10.1421C9.9408 6.40224 9.77758 6.56541 9.77758 6.76679C9.77758 6.96816 9.9408 7.13134 10.1421 7.13134H16.3638C16.5651 7.13134 16.7283 6.96816 16.7283 6.76679C16.7283 6.56541 16.5651 6.40224 16.3638 6.40224Z" fill="#4E901E"/>
<path id="Vector_18" d="M10.4731 22.8542C10.4731 23.1084 10.3691 23.3388 10.2019 23.5065C10.0342 23.6737 9.80381 23.7777 9.54961 23.7777H3.89179C3.38386 23.7777 2.96826 23.3621 2.96826 22.8542C2.96826 22.6 3.07228 22.3696 3.23948 22.2019C3.40715 22.0347 3.63759 21.9307 3.89179 21.9307H9.54961C10.0576 21.9307 10.4731 22.3463 10.4731 22.8542Z" fill="#AA6100"/>
<path id="Vector_19" d="M10.4731 21.0065C10.4731 21.2607 10.3691 21.4911 10.2019 21.6589C10.0342 21.8261 9.80381 21.9301 9.54961 21.9301H3.89179C3.38386 21.9301 2.96826 21.5145 2.96826 21.0065C2.96826 20.7523 3.07228 20.5219 3.23948 20.3542C3.40715 20.187 3.63759 20.083 3.89179 20.083H9.54961C10.0576 20.083 10.4731 20.4986 10.4731 21.0065Z" fill="#CC7400"/>
<path id="Vector_20" d="M10.4731 19.1599C10.4731 19.4141 10.3691 19.6445 10.2019 19.8122C10.0342 19.9794 9.80381 20.0834 9.54961 20.0834H3.89179C3.38386 20.0834 2.96826 19.6678 2.96826 19.1599C2.96826 18.9057 3.07228 18.6753 3.23948 18.5075C3.40715 18.3403 3.63759 18.2363 3.89179 18.2363H9.54961C10.0576 18.2364 10.4731 18.6519 10.4731 19.1599Z" fill="#EE8700"/>
<path id="Vector_21" d="M10.4731 17.3132C10.4731 17.5674 10.3691 17.7978 10.2019 17.9655C10.0342 18.1327 9.80381 18.2367 9.54961 18.2367H3.89179C3.38386 18.2367 2.96826 17.8211 2.96826 17.3132C2.96826 17.1324 3.02123 16.9632 3.11212 16.8203C3.1485 16.7626 3.19122 16.7091 3.23948 16.6609C3.40715 16.4937 3.63759 16.3896 3.89179 16.3896H9.54961C10.0576 16.3896 10.4731 16.8052 10.4731 17.3132Z" fill="#FF9811"/>
<path id="Vector_22" d="M9.54937 16.3891H3.89179C3.38386 16.3891 2.96826 15.9735 2.96826 15.4655C2.96826 14.9576 3.38386 14.542 3.89179 14.542H9.54942C10.0574 14.542 10.4729 14.9576 10.4729 15.4655C10.4729 15.9735 10.0574 16.3891 9.54937 16.3891Z" fill="#FFA733"/>
<path id="Vector_23" d="M4.09249 17.8701V23.8824H3.17248C2.36009 23.9173 1.60873 23.6259 1.04543 23.1252C-0.998881 21.311 0.245463 17.9859 2.91504 17.8701H4.09249Z" fill="#CC7400"/>
<path id="Vector_24" d="M7.22478 20.9857C7.17064 22.5405 5.92704 23.8152 4.34689 23.8828C2.68685 23.9538 1.28356 22.6656 1.21259 21.0055C1.21231 20.9988 1.21198 20.9924 1.21198 20.9857C1.15198 19.3339 2.43659 17.9416 4.08987 17.871C5.7499 17.8 7.1532 19.0882 7.22417 20.7486C7.22754 20.8284 7.22782 20.9073 7.22478 20.9857Z" fill="#FFC477"/>
<path id="Vector_25" d="M4.71615 23.0725C4.67944 23.0808 4.64297 23.0881 4.60632 23.0946C3.43158 23.3014 2.28933 22.5505 2.02247 21.3746C1.74769 20.1619 2.50777 18.9563 3.72043 18.6812C4.01261 18.6146 4.31514 18.6071 4.61026 18.6591C5.47562 18.8128 6.20729 19.4682 6.41382 20.3791C6.68888 21.5918 5.9288 22.7977 4.71615 23.0725Z" fill="#CC7400"/>
<path id="Vector_26" d="M4.71614 23.0716C4.67944 23.0798 4.64297 23.0872 4.60631 23.0936C3.74128 22.94 3.00933 22.2843 2.80275 21.3736C2.52797 20.1609 3.28805 18.9553 4.5007 18.6802C4.53704 18.672 4.57356 18.6647 4.61025 18.6582C5.47561 18.8118 6.20728 19.4673 6.41381 20.3782C6.68887 21.5908 5.9288 22.7968 4.71614 23.0716Z" fill="#EE8700"/>
<path id="Vector_27" d="M7.22471 20.9854C7.17057 22.5401 5.92698 23.8149 4.34682 23.8825C2.68679 23.9535 1.28349 22.6653 1.21252 21.0052C1.21224 20.9985 1.21191 20.9921 1.21191 20.9854H1.9689C1.97551 21.1163 1.99344 21.2464 2.02248 21.3743C2.29759 22.587 3.50349 23.3473 4.71615 23.0722C5.72504 22.8436 6.42052 21.9709 6.46735 20.9854H7.22471Z" fill="#FFA733"/>
<path id="Vector_28" d="M4.48821 20.4195L4.43172 20.3987C4.11156 20.281 4.07899 20.2437 4.07899 20.1352C4.07899 20.0438 4.11264 20.0176 4.14419 20.0001C4.19332 19.9729 4.27042 19.9579 4.36127 19.9579C4.52008 19.9579 4.60005 19.9991 4.6713 20.0357C4.72581 20.0638 4.78764 20.0955 4.86808 20.0955C5.07602 20.0955 5.21571 19.9008 5.21571 19.7189C5.21571 19.4972 5.01747 19.3445 4.65377 19.2819V19.259C4.65377 19.0559 4.48849 18.8906 4.28538 18.8906C4.08227 18.8906 3.91699 19.0559 3.91699 19.259V19.3289C3.55811 19.4591 3.35505 19.7551 3.35505 20.1569C3.35505 20.7769 3.80552 20.9461 4.13453 21.0698C4.44822 21.1877 4.55674 21.2393 4.55674 21.4527C4.55674 21.5861 4.52083 21.7095 4.26006 21.7095C4.05513 21.7095 3.98303 21.6318 3.91324 21.5565C3.85881 21.4978 3.77646 21.4092 3.64113 21.4092C3.44008 21.4092 3.28985 21.608 3.28985 21.7857C3.28985 22.0376 3.55174 22.2766 3.91703 22.3736V22.4011C3.91703 22.6043 4.08231 22.7695 4.28542 22.7695C4.48853 22.7695 4.65381 22.6043 4.65381 22.4011V22.3639C5.04902 22.2368 5.28096 21.8966 5.28096 21.431C5.28072 20.715 4.76524 20.5228 4.48821 20.4195ZM1.70744 19.2187C1.55821 19.4441 1.44016 19.6887 1.35649 19.9458H0.182455C0.26608 19.6824 0.392689 19.4298 0.532892 19.2187H1.70744ZM1.23288 21.2541H0.0583299C0.0279701 21.0127 0.0268212 20.7686 0.054908 20.5269H1.22992C1.20175 20.763 1.20236 21.0085 1.23288 21.2541ZM1.74864 22.5953H0.573627C0.41714 22.3711 0.292206 22.1265 0.20233 21.8682H1.37688C1.46668 22.1266 1.59178 22.3713 1.74864 22.5953Z" fill="#AA6100"/>
</g>
</svg>
