<svg width="94" height="101" viewBox="0 0 94 101" fill="none" xmlns="http://www.w3.org/2000/svg">
<path d="M72.5295 3.52109H68.0156C68.0156 1.85293 66.6635 0.5 64.9945 0.5H12.4488C10.7805 0.5 9.42773 1.85254 9.42773 3.52109V83.8137C9.42773 85.4822 10.7805 86.8348 12.4488 86.8348C69.727 86.8348 65.2627 87.0109 66.2492 86.5594C66.63 86.3849 66.9704 86.1333 67.249 85.8206C67.5276 85.5079 67.7384 85.1408 67.868 84.7426H72.5293L72.5295 3.52109Z" fill="#60B7FF"/>
<path d="M71.2744 0.5H64.9941C66.6627 0.5 68.0152 1.85254 68.0152 3.52109V83.8137C68.0152 85.4822 66.6627 86.8348 64.9941 86.8348H71.2744C72.943 86.8348 74.2955 85.4822 74.2955 83.8137V3.52109C74.2955 1.85254 72.943 0.5 71.2744 0.5Z" fill="#26A6FE"/>
<path d="M74.2969 21.1953L60.3428 7.24121H18.3322C16.026 7.24121 14.1562 9.11094 14.1562 11.4172V86.084C14.1562 86.3406 14.1828 86.5906 14.2271 86.8344H71.2758C72.9443 86.8344 74.2969 85.4818 74.2969 83.8133V21.1953Z" fill="#26A6FE"/>
<path d="M79.2455 21.973L72.1648 17.552L66.0518 7.24121H24.0412C21.735 7.24121 19.8652 9.11094 19.8652 11.4172V86.084C19.8652 88.3902 21.735 90.26 24.0412 90.26H79.1645C79.1918 90.26 79.2184 90.2564 79.2455 90.2559V21.973Z" fill="#EAF6FF"/>
<path d="M83.3389 24.5307L77.0588 20.6094V86.085C77.0588 88.3912 75.1891 90.2609 72.8828 90.2609H79.1631C81.4693 90.2609 83.3391 88.3912 83.3391 86.085V24.5307H83.3389Z" fill="#D8ECFE"/>
<path d="M70.2268 24.5299H83.3395L66.0508 7.24121V20.3539C66.0508 22.6602 67.9205 24.5299 70.2268 24.5299Z" fill="#B3DAFE"/>
<path d="M73.318 33.9938H29.8875C29.4869 33.9938 29.1027 33.8346 28.8194 33.5513C28.5361 33.268 28.377 32.8838 28.377 32.4832C28.377 32.0826 28.5361 31.6984 28.8194 31.4151C29.1027 31.1318 29.4869 30.9727 29.8875 30.9727H73.318C73.7186 30.9727 74.1028 31.1318 74.3861 31.4151C74.6694 31.6984 74.8285 32.0826 74.8285 32.4832C74.8285 32.8838 74.6694 33.268 74.3861 33.5513C74.1028 33.8346 73.7186 33.9938 73.318 33.9938ZM73.318 43.9879H29.8875C29.4869 43.9879 29.1027 43.8287 28.8194 43.5455C28.5361 43.2622 28.377 42.878 28.377 42.4773C28.377 42.0767 28.5361 41.6925 28.8194 41.4092C29.1027 41.1259 29.4869 40.9668 29.8875 40.9668H73.318C73.7186 40.9668 74.1028 41.1259 74.3861 41.4092C74.6694 41.6925 74.8285 42.0767 74.8285 42.4773C74.8285 42.878 74.6694 43.2622 74.3861 43.5455C74.1028 43.8287 73.7186 43.9879 73.318 43.9879Z" fill="#82AEE3"/>
<path d="M89.7781 50.4996H86.5043C85.8033 49.2877 84.4932 48.475 83.0158 48.475H32.3041L27.0014 39.7014H23.7869C23.5058 39.3253 23.141 39.0199 22.7212 38.8095C22.3015 38.5991 21.8385 38.4894 21.3689 38.4893H3.69687C2.02832 38.4893 0.675781 39.842 0.675781 41.5104V96.4713C0.675781 98.6961 2.4793 100.499 4.70391 100.499H83.0158C83.6811 100.499 84.3574 100.327 84.9557 99.9965H84.9635C85.4696 99.7153 85.9095 99.3288 86.2535 98.8631H89.7779L89.7781 50.4996Z" fill="#FDB441"/>
<path d="M24.0459 40.1098L28.423 48.475H34.7033L30.3262 40.1098C30.0705 39.621 29.6858 39.2116 29.214 38.9259C28.7421 38.6403 28.201 38.4892 27.6494 38.4893H21.3691C21.9207 38.4892 22.4618 38.6403 22.9337 38.9259C23.4055 39.2116 23.7902 39.621 24.0459 40.1098ZM89.2961 48.475H83.016C85.2408 48.475 87.0441 50.2785 87.0441 52.5031V96.4713C87.0441 98.6961 85.2406 100.499 83.016 100.499H89.2961C91.5209 100.499 93.3242 98.6959 93.3242 96.4713V52.5033C93.3242 50.2785 91.5207 48.475 89.2961 48.475Z" fill="#FEA613"/>
</svg>
