<svg width="22" height="24" viewBox="0 0 22 24" fill="none" xmlns="http://www.w3.org/2000/svg">
<g id="Group">
<g id="Group_2">
<path id="Vector" d="M9.99445 15.0132C10.5858 15.3546 10.9531 15.9909 10.9531 16.6736H11.0468C11.0468 15.9909 11.4142 15.3546 12.0055 15.0132L16.9574 12.1542V8.17201C16.9574 7.37917 16.3147 6.73647 15.5219 6.73647H14.8694C14.7383 6.73647 14.6753 6.57409 14.7736 6.48742C15.2506 6.06639 15.5219 5.38693 15.5219 4.50545C15.5219 2.30907 12.7777 1.36576 11.2814 0.103184C11.1182 -0.0344881 10.8819 -0.0345818 10.7196 0.104028C9.17409 1.42398 6.47803 2.30298 6.47803 4.50545C6.47803 5.38693 6.74925 6.06639 7.22629 6.48742C7.32454 6.57414 7.26159 6.73647 7.13053 6.73647H6.47803C5.68523 6.73647 5.04248 7.37917 5.04248 8.17201V12.1542L9.99445 15.0132ZM11.9424 20.5367C11.7312 20.6586 11.4917 20.7227 11.2479 20.7228H10.752C10.5082 20.7228 10.2687 20.6586 10.0575 20.5367L9.02353 19.9398L6.20517 23.3438H15.7948L12.9764 19.9398L11.9424 20.5367ZM5.04253 20.8647L6.52762 18.4988L5.04253 17.6414V20.8647ZM16.9574 20.8647V17.6414L15.4723 18.4988L16.9574 20.8647Z" fill="#FFE177"/>
</g>
<path id="Vector_2" d="M9.99456 15.0134C10.5859 15.3548 10.9532 15.9911 10.9532 16.6738H11.047C11.047 15.9911 11.4143 15.3548 12.0056 15.0134L15.551 12.9665V8.38112C15.551 8.31803 15.526 8.25752 15.4814 8.21291C15.4367 8.16829 15.3762 8.14323 15.3131 8.14323H14.8695C14.219 8.14323 13.6499 7.74995 13.4197 7.14132C13.1899 6.53345 13.3561 5.86295 13.843 5.4332C14.0162 5.28034 14.1155 4.94223 14.1155 4.50568C14.1155 3.73126 13.2518 3.11954 11.934 2.27467C11.6705 2.10568 11.4026 1.93393 11.1415 1.75492C11.1015 1.7274 11.054 1.71274 11.0054 1.71289C10.9568 1.71304 10.9094 1.728 10.8696 1.75576C10.5838 1.95414 10.2907 2.14215 10.0028 2.32684C8.68492 3.17228 7.88477 3.74082 7.88477 4.50568C7.88477 4.94223 7.98409 5.28034 8.1572 5.43315C8.64423 5.86295 8.81041 6.53345 8.58053 7.14132C8.35038 7.74995 7.78127 8.14323 7.13073 8.14323H6.68711C6.62402 8.14323 6.56351 8.16829 6.5189 8.21291C6.47428 8.25752 6.44922 8.31803 6.44922 8.38112V12.9665L9.99456 15.0134ZM11.9425 20.5369C11.7314 20.6588 11.4919 20.7229 11.248 20.723H10.7521C10.5083 20.7229 10.2688 20.6588 10.0576 20.5369L9.02364 19.94L7.11756 22.2422H14.8826L12.9766 19.94L11.9425 20.5369Z" fill="#9857BD"/>
<path id="Vector_3" d="M12.6233 5.26979C12.6233 5.70634 12.524 6.04445 12.3508 6.19731C11.8638 6.62706 11.6976 7.29756 11.9275 7.90543C12.1577 8.51406 12.7268 8.90734 13.3773 8.90734H13.8209C13.884 8.90735 13.9445 8.93242 13.9892 8.97704C14.0338 9.02166 14.0589 9.08218 14.0589 9.14528V13.8279L15.5509 12.9665V8.38117C15.5509 8.31808 15.5258 8.25757 15.4812 8.21295C15.4366 8.16834 15.3761 8.14328 15.313 8.14328H14.8694C14.2189 8.14328 13.6498 7.75 13.4196 7.14137C13.1898 6.53349 13.3559 5.863 13.8429 5.43325C14.016 5.28039 14.1154 4.94228 14.1154 4.50568C14.1154 3.73131 13.2516 3.11959 11.9338 2.27467C11.6704 2.10573 11.4025 1.93393 11.1414 1.75492C11.1013 1.7274 11.0539 1.71274 11.0053 1.71289C10.9567 1.71304 10.9093 1.728 10.8694 1.75576C10.5836 1.95414 10.2906 2.14215 10.0026 2.32684C9.89372 2.39665 9.7851 2.4669 9.67676 2.53759C9.92918 2.7099 10.1875 2.87575 10.4418 3.03882C11.7595 3.8837 12.6233 4.49542 12.6233 5.26979Z" fill="#814AA0"/>
<path id="Vector_4" d="M15.1737 22.5939L14.5915 21.8908H7.40866L6.82647 22.5939H15.1737ZM13.7639 4.50585C13.7639 4.92379 13.6635 5.12292 13.6104 5.16979C13.02 5.69076 12.8138 6.49987 13.0807 7.23848C13.3561 8.00057 14.0968 8.49496 14.9072 8.49496H15.1994V13.1697L15.9025 12.7638V8.38138C15.9025 8.05579 15.6386 7.79188 15.313 7.79188H14.8983C14.383 7.79188 13.9104 7.47707 13.739 6.99107C13.5757 6.52823 13.7062 6.02301 14.0756 5.69704C14.3281 5.47424 14.4671 5.05124 14.4671 4.50595C14.4671 3.55274 13.5393 2.88656 12.1237 1.97901C11.8649 1.81303 11.5973 1.64146 11.3402 1.46517C11.2416 1.3973 11.1246 1.36108 11.0049 1.36133C10.8851 1.36158 10.7683 1.39829 10.6699 1.46657C10.3893 1.66143 10.0965 1.84926 9.81292 2.03118C8.39444 2.94117 7.53316 3.56184 7.53316 4.50595C7.53316 5.05124 7.67214 5.47424 7.92456 5.69699C8.29403 6.02306 8.42458 6.52842 8.26117 6.99126C8.08966 7.47717 7.61702 7.79188 7.10177 7.79188H6.68716C6.36156 7.79188 6.09766 8.05584 6.09766 8.38138V12.7638L6.80078 13.1697V8.49496H7.13078C7.92888 8.49496 8.62703 8.01253 8.90941 7.26581C9.19145 6.51993 8.9875 5.69713 8.38984 5.16974C8.33673 5.12287 8.23633 4.92379 8.23633 4.50585C8.23633 3.9216 9.01089 3.38099 10.1931 2.6226C10.4603 2.45118 10.736 2.27432 11.0065 2.08851C11.2522 2.25524 11.502 2.41546 11.7443 2.57076C12.9268 3.32906 13.7639 3.91167 13.7639 4.50585Z" fill="#FFC344"/>
<path id="Vector_5" d="M6.26606 23.3433L9.05681 19.9727L6.48051 18.4854L3.43115 23.3433H6.26606Z" fill="#FED2A4"/>
<path id="Vector_6" d="M7.30202 20.7636L5.16602 23.3434H6.26631L9.05702 19.9728L6.48072 18.4854L5.94503 19.3388L7.17339 20.048C7.42853 20.1953 7.48989 20.5366 7.30202 20.7636Z" fill="#FFBD86"/>
<path id="Vector_7" d="M18.569 23.3433L15.5197 18.4854L12.9434 19.9727L15.7341 23.3433H18.569Z" fill="#FED2A4"/>
<path id="Vector_8" d="M14.928 19.928C15.0347 19.8664 15.161 19.8486 15.2805 19.8783C15.4001 19.9079 15.5034 19.9828 15.5689 20.0871L17.6129 23.3433H18.569L15.5197 18.4854L12.9434 19.9728L13.5601 20.7177L14.928 19.928Z" fill="#FFBD86"/>
<path id="Vector_9" d="M18.2648 11.6153C18.2326 11.5619 18.1808 11.5232 18.1204 11.5076C18.0601 11.492 17.996 11.5007 17.942 11.5319L11.9821 14.9728C11.6835 15.1452 11.4355 15.3931 11.2631 15.6917C11.0907 15.9903 11 16.329 11 16.6738L10.9531 16.7174V17.6862L11 17.7503C11.0944 17.7503 11.1875 17.7253 11.2693 17.6782L19.1681 13.1178L18.2648 11.6153Z" fill="#F3EAE6"/>
<path id="Vector_10" d="M11.649 16.1062L17.6089 12.6653C17.6629 12.6341 17.727 12.6254 17.7873 12.641C17.8477 12.6566 17.8996 12.6953 17.9317 12.7487L18.415 13.5525L19.1681 13.1177L18.2648 11.6153C18.2326 11.5619 18.1808 11.5232 18.1204 11.5076C18.0601 11.492 17.996 11.5007 17.942 11.5319L11.9821 14.9728C11.6835 15.1452 11.4355 15.3932 11.2631 15.6918C11.0908 15.9904 11 16.3291 11 16.6739V16.7132C11.1671 16.4639 11.3891 16.2562 11.649 16.1062Z" fill="#E1D3CE"/>
<path id="Vector_11" d="M10.7309 17.6781C10.8128 17.7253 10.9057 17.7502 11.0002 17.7503V16.6738C11.0002 16.329 10.9094 15.9903 10.7371 15.6917C10.5647 15.3932 10.3167 15.1452 10.0181 14.9728L4.05823 11.5319C4.00423 11.5007 3.94013 11.492 3.87976 11.5076C3.81938 11.5232 3.76754 11.5619 3.73541 11.6153L2.83203 13.1177L10.7309 17.6781Z" fill="#F9F3F1"/>
<path id="Vector_12" d="M10.7003 19.1266C10.7913 19.1792 10.8949 19.2069 11 19.2069C11.105 19.2069 11.2087 19.1792 11.2997 19.1266L20.5019 13.8137L20.0329 12.8652C20.018 12.8351 19.9971 12.8084 19.9715 12.7867C19.9459 12.765 19.9161 12.7488 19.884 12.739C19.8518 12.7293 19.818 12.7263 19.7847 12.7301C19.7513 12.734 19.7191 12.7446 19.69 12.7614L11.2455 17.6369C11.1709 17.68 11.0862 17.7027 11 17.7027C10.9138 17.7027 10.8291 17.68 10.7545 17.6369L2.30992 12.7615C2.28085 12.7447 2.24864 12.734 2.21529 12.7302C2.18194 12.7263 2.14815 12.7294 2.11602 12.7391C2.08388 12.7488 2.05409 12.765 2.02847 12.7867C2.00285 12.8084 1.98196 12.8352 1.96708 12.8653L1.49805 13.8138L10.7003 19.1266Z" fill="#22B27F"/>
<path id="Vector_13" d="M20.0328 12.8652C20.0179 12.8351 19.997 12.8084 19.9714 12.7867C19.9458 12.765 19.916 12.7488 19.8839 12.739C19.8517 12.7293 19.8179 12.7263 19.7846 12.7301C19.7512 12.734 19.719 12.7446 19.6899 12.7614L18.8511 13.2457C18.8928 13.2497 18.9327 13.2642 18.9672 13.2879C19.0017 13.3116 19.0296 13.3438 19.0481 13.3813L19.5326 14.3733L20.5019 13.8137L20.0328 12.8652Z" fill="#09A76D"/>
<path id="Vector_14" d="M10.7521 20.7697H11.2481C11.5002 20.7697 11.7478 20.7034 11.9661 20.5774L21.5325 15.0541C21.5914 15.0202 21.6351 14.9651 21.6548 14.9C21.6745 14.835 21.6687 14.7649 21.6385 14.704L21.1529 13.722C21.1362 13.6882 21.1127 13.6581 21.0839 13.6337C21.0551 13.6094 21.0216 13.5911 20.9855 13.5802C20.9494 13.5693 20.9114 13.5659 20.8739 13.5702C20.8364 13.5745 20.8002 13.5865 20.7675 13.6053L11.2761 19.0852C11.1922 19.1337 11.097 19.1592 11.0001 19.1592C10.9032 19.1592 10.8081 19.1337 10.7242 19.0852L1.23267 13.6053C1.19999 13.5865 1.16379 13.5745 1.1263 13.5702C1.08881 13.5659 1.05084 13.5693 1.01473 13.5802C0.97861 13.5911 0.94512 13.6094 0.916325 13.6337C0.887531 13.6581 0.864042 13.6882 0.847312 13.722L0.361687 14.704C0.331574 14.7649 0.32577 14.835 0.345455 14.9C0.36514 14.9651 0.408837 15.0202 0.467672 15.0541L10.0342 20.5774C10.2524 20.7034 10.5001 20.7697 10.7521 20.7697Z" fill="#F6A96C"/>
<path id="Vector_15" d="M21.6387 14.704L21.1531 13.722C21.1364 13.6882 21.1129 13.6581 21.0841 13.6337C21.0553 13.6094 21.0218 13.5911 20.9857 13.5802C20.9496 13.5693 20.9116 13.5659 20.8741 13.5702C20.8366 13.5745 20.8004 13.5865 20.7677 13.6053L11.2763 19.0852C11.1924 19.1337 11.0972 19.1592 11.0003 19.1592C10.9034 19.1592 10.8083 19.1337 10.7244 19.0852L1.23287 13.6053C1.20019 13.5865 1.16399 13.5745 1.1265 13.5702C1.08901 13.5659 1.05104 13.5693 1.01492 13.5802C0.978809 13.5911 0.94532 13.6094 0.916525 13.6337C0.88773 13.6581 0.864242 13.6882 0.847512 13.722L0.581543 14.2598L10.732 20.0845C10.8159 20.133 10.9111 20.1585 11.008 20.1585C11.1049 20.1585 11.2 20.133 11.2839 20.0845L20.3119 14.8177C20.3446 14.7988 20.3808 14.7869 20.4183 14.7825C20.4558 14.7782 20.4938 14.7816 20.5299 14.7926C20.566 14.8035 20.5995 14.8217 20.6283 14.8461C20.6571 14.8705 20.6806 14.9005 20.6973 14.9344L20.9289 15.4028L21.5327 15.0542C21.5916 15.0202 21.6353 14.9651 21.655 14.9001C21.6747 14.835 21.6689 14.7649 21.6387 14.704Z" fill="#EA9B58"/>
<path id="Vector_16" d="M21.0814 24H0.918945C0.724789 24 0.567383 23.8426 0.567383 23.6484C0.567383 23.4542 0.724789 23.2969 0.918945 23.2969H21.0814C21.2755 23.2969 21.4329 23.4542 21.4329 23.6484C21.4329 23.8426 21.2755 24 21.0814 24Z" fill="#F6A96C"/>
<g id="Group_3">
<path id="Vector_17" d="M11.0002 4.4619C11.0935 4.4619 11.1829 4.42486 11.2488 4.35893C11.3147 4.293 11.3518 4.20358 11.3518 4.11034V3.87793C11.3518 3.68373 11.1944 3.52637 11.0002 3.52637C10.8061 3.52637 10.6487 3.68373 10.6487 3.87793V4.11034C10.6487 4.20358 10.6857 4.293 10.7516 4.35893C10.8176 4.42486 10.907 4.4619 11.0002 4.4619ZM11.0002 4.95938C10.907 4.95938 10.8176 4.99642 10.7516 5.06235C10.6857 5.12828 10.6487 5.21771 10.6487 5.31095V5.5433C10.6487 5.73751 10.8061 5.89487 11.0002 5.89487C11.1944 5.89487 11.3518 5.73751 11.3518 5.5433V5.31095C11.3518 5.21771 11.3147 5.12828 11.2488 5.06235C11.1829 4.99642 11.0935 4.95938 11.0002 4.95938ZM10.3999 4.35905H10.1675C9.97332 4.35905 9.81592 4.51641 9.81592 4.71062C9.81592 4.90482 9.97332 5.06218 10.1675 5.06218H10.3999C10.594 5.06218 10.7514 4.90482 10.7514 4.71062C10.7514 4.51641 10.594 4.35905 10.3999 4.35905ZM12.1845 4.71062C12.1845 4.61738 12.1474 4.52796 12.0815 4.46202C12.0156 4.39609 11.9261 4.35905 11.8329 4.35905H11.6005C11.4063 4.35905 11.2489 4.51641 11.2489 4.71062C11.2489 4.90482 11.4063 5.06218 11.6005 5.06218H11.8329C11.9261 5.06218 12.0156 5.02514 12.0815 4.95921C12.1474 4.89328 12.1845 4.80386 12.1845 4.71062Z" fill="#FFF0AD"/>
<path id="Vector_18" d="M12.0469 7.32227C12.241 7.32227 12.3984 7.16487 12.3984 6.9707C12.3984 6.77654 12.241 6.61914 12.0469 6.61914C11.8527 6.61914 11.6953 6.77654 11.6953 6.9707C11.6953 7.16487 11.8527 7.32227 12.0469 7.32227Z" fill="#FFF0AD"/>
<path id="Vector_19" d="M12.1899 9.8916C12.3841 9.8916 12.5415 9.7342 12.5415 9.54004C12.5415 9.34588 12.3841 9.18848 12.1899 9.18848C11.9958 9.18848 11.8384 9.34588 11.8384 9.54004C11.8384 9.7342 11.9958 9.8916 12.1899 9.8916Z" fill="#FFF0AD"/>
<path id="Vector_20" d="M9.5249 8.79785C9.71906 8.79785 9.87646 8.64045 9.87646 8.44629C9.87646 8.25213 9.71906 8.09473 9.5249 8.09473C9.33074 8.09473 9.17334 8.25213 9.17334 8.44629C9.17334 8.64045 9.33074 8.79785 9.5249 8.79785Z" fill="#FFF0AD"/>
</g>
<g id="Group_4">
<path id="Vector_21" d="M6.90771 20.7881C7.10188 20.7881 7.25928 20.6307 7.25928 20.4365C7.25928 20.2424 7.10188 20.085 6.90771 20.085C6.71355 20.085 6.55615 20.2424 6.55615 20.4365C6.55615 20.6307 6.71355 20.7881 6.90771 20.7881Z" fill="#FFF3DE"/>
<path id="Vector_22" d="M15.0923 20.7881C15.2864 20.7881 15.4438 20.6307 15.4438 20.4365C15.4438 20.2424 15.2864 20.085 15.0923 20.085C14.8981 20.085 14.7407 20.2424 14.7407 20.4365C14.7407 20.6307 14.8981 20.7881 15.0923 20.7881Z" fill="#FFF3DE"/>
</g>
</g>
</svg>
