<svg width="22" height="24" viewBox="0 0 22 24" fill="none" xmlns="http://www.w3.org/2000/svg">
<g id="Group">
<g id="Group_2">
<path id="Vector" fill-rule="evenodd" clip-rule="evenodd" d="M0.236422 19.7698V2.87133C0.23881 2.1103 0.542283 1.38114 1.08055 0.843134C1.61881 0.305131 2.34812 0.00201502 3.10916 0L17.2714 0V22.0759H2.54258C1.93149 22.0741 1.34594 21.8305 0.913835 21.3984C0.481725 20.9663 0.238158 20.3808 0.236328 19.7697L0.236422 19.7698Z" fill="#60B7FF"/>
<path id="Vector_2" fill-rule="evenodd" clip-rule="evenodd" d="M0.236422 19.7698V2.87133C0.23881 2.1103 0.542283 1.38114 1.08055 0.843134C1.61881 0.305131 2.34812 0.00201502 3.10916 0V22.0759H2.54258C1.93149 22.0741 1.34594 21.8305 0.913835 21.3984C0.481725 20.9663 0.238158 20.3808 0.236328 19.7697L0.236422 19.7698Z" fill="#56A5E6"/>
<path id="Vector_3" fill-rule="evenodd" clip-rule="evenodd" d="M17.2715 18.1445H2.54268C2.11165 18.1445 1.69828 18.3158 1.39349 18.6205C1.08871 18.9253 0.91748 19.3387 0.91748 19.7697C0.91748 20.2008 1.08871 20.6141 1.39349 20.9189C1.69828 21.2237 2.11165 21.3949 2.54268 21.3949H17.2715V18.1445Z" fill="#EAF6FF"/>
<path id="Vector_4" fill-rule="evenodd" clip-rule="evenodd" d="M4.48052 19.876H7.65508V23.8528C7.6553 23.882 7.64675 23.9105 7.63056 23.9348C7.61436 23.9591 7.59126 23.9779 7.56424 23.9889C7.53721 23.9999 7.50752 24.0025 7.47898 23.9964C7.45045 23.9904 7.4244 23.9759 7.4042 23.9548L6.17322 22.6715C6.15967 22.6571 6.14332 22.6456 6.12519 22.6378C6.10705 22.63 6.0875 22.6259 6.06775 22.6259C6.048 22.6259 6.02845 22.63 6.01031 22.6378C5.99218 22.6456 5.97583 22.6571 5.96228 22.6715L4.7327 23.9548C4.7124 23.9759 4.68626 23.9904 4.65765 23.9964C4.62904 24.0025 4.59927 23.9999 4.57215 23.989C4.54504 23.978 4.52182 23.9592 4.50548 23.9349C4.48915 23.9106 4.48043 23.8821 4.48047 23.8528L4.48052 19.876Z" fill="#FFBB33"/>
<path id="Vector_5" fill-rule="evenodd" clip-rule="evenodd" d="M5.39991 2.44238H14.6121C14.6698 2.44251 14.7252 2.4655 14.766 2.50632C14.8068 2.54715 14.8298 2.60248 14.8299 2.66021V5.61146C14.8298 5.66918 14.8068 5.7245 14.766 5.76532C14.7252 5.80613 14.6698 5.82912 14.6121 5.82924H5.39991C5.34219 5.82912 5.28687 5.80613 5.24605 5.76532C5.20524 5.7245 5.18225 5.66918 5.18213 5.61146V2.66021C5.18224 2.60248 5.20522 2.54715 5.24604 2.50632C5.28685 2.4655 5.34218 2.44251 5.39991 2.44238Z" fill="#56A5E6"/>
</g>
<path id="Vector_6" d="M5.52303 8.61262C5.43342 8.61157 5.34784 8.57523 5.28485 8.51149C5.22185 8.44776 5.18652 8.36176 5.18652 8.27214C5.18652 8.18253 5.22185 8.09653 5.28485 8.03279C5.34784 7.96905 5.43342 7.93272 5.52303 7.93166H11.8667C11.9117 7.93114 11.9564 7.93955 11.9982 7.95643C12.04 7.9733 12.078 7.99829 12.11 8.02996C12.1421 8.06163 12.1675 8.09934 12.1849 8.14092C12.2022 8.18249 12.2112 8.22709 12.2112 8.27214C12.2112 8.31719 12.2022 8.3618 12.1849 8.40337C12.1675 8.44494 12.1421 8.48265 12.11 8.51432C12.078 8.54599 12.04 8.57098 11.9982 8.58786C11.9564 8.60473 11.9117 8.61315 11.8667 8.61262H5.52303ZM5.52303 11.0552C5.43342 11.0542 5.34784 11.0178 5.28485 10.9541C5.22185 10.8904 5.18652 10.8044 5.18652 10.7148C5.18652 10.6251 5.22185 10.5391 5.28485 10.4754C5.34784 10.4117 5.43342 10.3753 5.52303 10.3743H11.8667C11.9117 10.3737 11.9564 10.3822 11.9982 10.399C12.04 10.4159 12.078 10.4409 12.11 10.4726C12.1421 10.5042 12.1675 10.542 12.1849 10.5835C12.2022 10.6251 12.2112 10.6697 12.2112 10.7148C12.2112 10.7598 12.2022 10.8044 12.1849 10.846C12.1675 10.8875 12.1421 10.9253 12.11 10.9569C12.078 10.9886 12.04 11.0136 11.9982 11.0305C11.9564 11.0473 11.9117 11.0558 11.8667 11.0552H5.52303ZM5.52303 13.4978C5.43342 13.4968 5.34784 13.4605 5.28485 13.3967C5.22185 13.333 5.18652 13.247 5.18652 13.1574C5.18652 13.0677 5.22185 12.9817 5.28485 12.918C5.34784 12.8543 5.43342 12.8179 5.52303 12.8169H11.8667C11.9117 12.8164 11.9564 12.8248 11.9982 12.8416C12.04 12.8585 12.078 12.8835 12.11 12.9152C12.1421 12.9469 12.1675 12.9846 12.1849 13.0261C12.2022 13.0677 12.2112 13.1123 12.2112 13.1574C12.2112 13.2024 12.2022 13.247 12.1849 13.2886C12.1675 13.3302 12.1421 13.3679 12.11 13.3995C12.078 13.4312 12.04 13.4562 11.9982 13.4731C11.9564 13.4899 11.9117 13.4984 11.8667 13.4978H5.52303Z" fill="#EAF6FF"/>
<path id="Vector_7" fill-rule="evenodd" clip-rule="evenodd" d="M21.0137 2.57607C21.3573 2.7757 21.6079 3.10313 21.711 3.4869C21.814 3.87068 21.7611 4.27963 21.5637 4.62451L16.0402 14.1909L13.4434 15.6893V12.6911L18.9667 3.1247C19.1662 2.78134 19.4935 2.53091 19.877 2.42815C20.2606 2.32538 20.6692 2.37863 21.0137 2.57626V2.57607Z" fill="#FF9933"/>
<path id="Vector_8" fill-rule="evenodd" clip-rule="evenodd" d="M21.0137 2.57617C21.3573 2.7758 21.6079 3.10323 21.711 3.487C21.814 3.87077 21.7611 4.27973 21.5637 4.62461L16.0402 14.191L13.4434 15.6894L21.0137 2.57617Z" fill="#FFBB33"/>
<path id="Vector_9" fill-rule="evenodd" clip-rule="evenodd" d="M21.0136 2.57598C21.3572 2.7756 21.6079 3.10303 21.7109 3.48681C21.814 3.87058 21.7611 4.27954 21.5637 4.62442L18.9668 3.1247C19.1663 2.78134 19.4936 2.53091 19.8771 2.42815C20.2607 2.32538 20.6694 2.37863 21.0138 2.57626L21.0136 2.57598Z" fill="#E65C5C"/>
<path id="Vector_10" fill-rule="evenodd" clip-rule="evenodd" d="M16.0404 14.1912L13.4434 15.6896V12.6914L16.0404 14.1912Z" fill="#4F5C6F"/>
<path id="Vector_11" d="M2.57545 20.1107C2.5304 20.1112 2.4857 20.1028 2.44393 20.0859C2.40215 20.069 2.36415 20.044 2.3321 20.0124C2.30006 19.9807 2.27462 19.943 2.25726 19.9014C2.2399 19.8598 2.23096 19.8152 2.23096 19.7702C2.23096 19.7251 2.2399 19.6805 2.25726 19.639C2.27462 19.5974 2.30006 19.5597 2.3321 19.528C2.36415 19.4963 2.40215 19.4713 2.44393 19.4545C2.4857 19.4376 2.5304 19.4292 2.57545 19.4297H17.2711V20.1107H2.57545Z" fill="#D3DDE6"/>
<path id="Vector_12" fill-rule="evenodd" clip-rule="evenodd" d="M21.014 2.57617C21.0265 2.58306 21.0375 2.58995 21.0485 2.59684C21.0581 2.60237 21.0692 2.60927 21.0802 2.61611C21.0912 2.62305 21.1009 2.6313 21.1119 2.63819C21.1639 2.6737 21.2136 2.71236 21.2608 2.75397C21.2787 2.77052 21.2966 2.78706 21.3145 2.80497C21.3325 2.82152 21.349 2.83947 21.3655 2.85737C21.3987 2.89345 21.43 2.93117 21.4593 2.97039C21.4675 2.98005 21.4744 2.9897 21.4813 2.99936C21.5169 3.04862 21.5491 3.10019 21.5778 3.15372C21.5833 3.16337 21.5889 3.17439 21.5943 3.18541C21.6054 3.20612 21.6164 3.22816 21.6261 3.25023C21.6511 3.30489 21.6728 3.36105 21.6909 3.41837C21.695 3.42944 21.6978 3.44045 21.7019 3.45287C21.7046 3.46389 21.7088 3.47631 21.7115 3.48733C21.7171 3.51077 21.724 3.5342 21.7281 3.55764C21.7308 3.56866 21.7336 3.58108 21.7363 3.59209C21.7377 3.60452 21.7405 3.61689 21.7419 3.62791C21.7444 3.63975 21.7462 3.65172 21.7474 3.66377C21.7515 3.68748 21.7543 3.71141 21.7556 3.73544C21.7584 3.75887 21.7598 3.78367 21.7612 3.80711C21.7625 3.83195 21.7625 3.85534 21.7625 3.88019V3.916C21.7628 3.92797 21.7623 3.93994 21.7612 3.95186C21.7612 3.96428 21.7598 3.97666 21.7598 3.98908C21.7584 4.00009 21.757 4.01252 21.7556 4.02494C21.7528 4.04927 21.7501 4.07362 21.7474 4.09797C21.746 4.10898 21.7432 4.12141 21.7419 4.13383C21.7391 4.1462 21.7377 4.15727 21.735 4.16964C21.7322 4.18206 21.7294 4.19308 21.7267 4.2055C21.724 4.21792 21.7212 4.22894 21.7184 4.24131C21.7159 4.25343 21.7126 4.2654 21.7088 4.27717C21.706 4.28959 21.7019 4.30061 21.6991 4.31298C21.6946 4.32467 21.691 4.33666 21.6881 4.34884C21.684 4.35986 21.6798 4.37228 21.6757 4.3833C21.6715 4.39572 21.6661 4.40673 21.6619 4.41916C21.6579 4.43087 21.6533 4.44237 21.6481 4.45361C21.6426 4.46462 21.6385 4.47705 21.633 4.48806C21.6274 4.49908 21.622 4.5115 21.6164 4.52252C21.6123 4.53358 21.6054 4.54595 21.5999 4.55702C21.5943 4.56803 21.5889 4.57905 21.582 4.59147C21.5764 4.60248 21.5695 4.6135 21.5641 4.62428L20.2656 3.87428L21.014 2.57617Z" fill="#FF6666"/>
</g>
</svg>
