<svg width="24" height="20" viewBox="0 0 24 20" fill="none" xmlns="http://www.w3.org/2000/svg">
<g id="Group">
<path id="Vector" d="M6.15234 6.2145V9.31808C6.15234 9.72185 6.47964 10.0491 6.8834 10.0491H21.6999C22.3302 10.0491 22.9011 9.79366 23.3144 9.38043C23.7276 8.96721 23.9831 8.39629 23.9831 7.76599C23.9831 6.50537 22.9611 5.4834 21.6999 5.4834H6.8834C6.47964 5.48345 6.15234 5.81074 6.15234 6.2145Z" fill="url(#paint0_linear_562_43754)"/>
<path id="Vector_2" d="M6.8834 5.4834H12.6399C12.2361 5.4834 11.9088 5.81069 11.9088 6.21446V9.31803C11.9088 9.7218 12.2361 10.0491 12.6399 10.0491H6.8834C6.47964 10.0491 6.15234 9.7218 6.15234 9.31803V6.21446C6.15234 5.81069 6.47964 5.4834 6.8834 5.4834Z" fill="url(#paint1_linear_562_43754)"/>
<path id="Vector_3" d="M6.8834 10.0491H12.4976L12.4793 10.0309C12.3445 10.0004 12.221 9.93239 12.1233 9.83465C12.0256 9.73691 11.9575 9.61348 11.9271 9.47865L7.93183 5.4834H6.8834C6.47964 5.4834 6.15234 5.81069 6.15234 6.21446V9.31803C6.15234 9.7218 6.47964 10.0491 6.8834 10.0491Z" fill="url(#paint2_linear_562_43754)"/>
<path id="Vector_4" d="M6.41394 9.49561H21.5471C22.5024 9.49561 23.2768 8.72121 23.2768 7.76587C23.2768 6.81058 22.5024 6.03613 21.5471 6.03613H6.31672C5.94547 6.03613 5.64453 6.33707 5.64453 6.70832V8.72616C5.64448 9.15114 5.989 9.49561 6.41394 9.49561Z" fill="url(#paint3_linear_562_43754)"/>
<path id="Vector_5" d="M23.0762 8.5752C22.7859 9.12301 22.2102 9.49642 21.5471 9.49642H6.41394C5.989 9.49642 5.64453 9.15195 5.64453 8.72701V8.5752H23.0762Z" fill="url(#paint4_linear_562_43754)"/>
<path id="Vector_6" d="M21.5471 9.49634H6.41394C5.989 9.49634 5.64453 9.15187 5.64453 8.72693V7.7666H23.2768C23.2768 8.7219 22.5024 9.49634 21.5471 9.49634Z" fill="url(#paint5_linear_562_43754)"/>
<path id="Vector_7" d="M23.0847 6.97461C23.2112 7.21942 23.277 7.49101 23.2768 7.76656C23.2768 8.72186 22.5024 9.4963 21.547 9.4963H6.41394C5.989 9.4963 5.64453 9.15183 5.64453 8.72689V6.97461H23.0847Z" fill="url(#paint6_linear_562_43754)"/>
<path id="Vector_8" d="M6.30447 6.03613H11.9319C11.917 6.09428 11.9094 6.15404 11.9091 6.21406V9.31764C11.9091 9.3791 11.9175 9.43849 11.9318 9.49552H6.40174C5.97679 9.49552 5.63232 9.15105 5.63232 8.72611V6.70827C5.63228 6.33707 5.93322 6.03613 6.30447 6.03613Z" fill="url(#paint7_linear_562_43754)"/>
<path id="Vector_9" d="M23.3694 15.2991V18.4855C23.3694 18.8563 23.0755 19.1583 22.7077 19.1711C22.7036 19.1711 22.6996 19.1717 22.6949 19.1717C22.6908 19.1717 22.6868 19.1723 22.6827 19.1723H7.18135C6.58248 19.1723 6.0622 18.8364 5.79914 18.3423C5.67803 18.1156 5.61485 17.8625 5.61524 17.6055V16.1785C5.61524 15.9125 5.68159 15.6617 5.79914 15.4422C5.83368 15.3765 5.87318 15.3134 5.91731 15.2537C6.20248 14.8649 6.66225 14.6123 7.1814 14.6123H22.6828C23.0622 14.6124 23.3694 14.9196 23.3694 15.2991Z" fill="url(#paint8_linear_562_43754)"/>
<path id="Vector_10" d="M23.3695 15.4424V18.3425H5.79914C5.67803 18.1158 5.61485 17.8627 5.61524 17.6057V16.1786C5.61524 15.9126 5.68159 15.6618 5.79914 15.4424L23.3695 15.4424Z" fill="url(#paint9_linear_562_43754)"/>
<path id="Vector_11" d="M7.02413 18.3423C6.90302 18.1156 6.83984 17.8625 6.84022 17.6055V16.1785C6.84022 15.9125 6.90657 15.6617 7.02413 15.4422C7.05866 15.3765 7.09816 15.3134 7.14229 15.2537C7.42747 14.8649 7.88723 14.6123 8.40639 14.6123H7.88257C7.36342 14.6123 6.90366 14.8649 6.61848 15.2537C6.57436 15.3134 6.53486 15.3765 6.50031 15.4422C6.37914 15.6687 6.31596 15.9216 6.31641 16.1785V17.6055C6.31641 17.8715 6.38276 18.1223 6.50031 18.3423C6.76337 18.8364 7.2837 19.1723 7.88253 19.1723H8.40634C7.80747 19.1723 7.28719 18.8364 7.02413 18.3423Z" fill="url(#paint10_linear_562_43754)"/>
<path id="Vector_12" d="M9.94893 18.3423C9.82782 18.1156 9.76464 17.8625 9.76503 17.6055V16.1785C9.76503 15.9125 9.83138 15.6617 9.94893 15.4422C9.98347 15.3765 10.023 15.3134 10.0671 15.2537C10.3523 14.8649 10.812 14.6123 11.3312 14.6123H10.8074C10.2882 14.6123 9.82846 14.8649 9.54328 15.2537C9.49917 15.3134 9.45967 15.3765 9.42512 15.4422C9.30395 15.6687 9.24076 15.9216 9.24121 16.1785V17.6055C9.24121 17.8715 9.30757 18.1223 9.42512 18.3423C9.68818 18.8364 10.2085 19.1723 10.8073 19.1723H11.3311C10.7323 19.1723 10.212 18.8364 9.94893 18.3423Z" fill="url(#paint11_linear_562_43754)"/>
<path id="Vector_13" d="M22.7101 15.9407V19.1271C22.7101 19.1423 22.7089 19.1562 22.7077 19.1714C22.7036 19.1714 22.6996 19.1719 22.6949 19.1719C22.6908 19.1719 22.6868 19.1725 22.6827 19.1725H7.18135C6.58248 19.1725 6.0622 18.8367 5.79914 18.3426C5.67803 18.1159 5.61485 17.8628 5.61524 17.6058V16.1787C5.61524 15.9127 5.68159 15.6619 5.79914 15.4425C5.83368 15.3767 5.87318 15.3137 5.91731 15.2539H22.0234C22.2067 15.2539 22.3726 15.3255 22.4954 15.4425C22.5634 15.5064 22.6175 15.5836 22.6544 15.6693C22.6913 15.755 22.7103 15.8474 22.7101 15.9407Z" fill="url(#paint12_linear_562_43754)"/>
<path id="Vector_14" d="M23.4797 15.3405V18.4441C23.4797 18.8478 23.1524 19.1751 22.7486 19.1751H12.4135C11.7832 19.1751 11.2123 18.9196 10.7991 18.5064C10.3859 18.0932 10.1304 17.5223 10.1304 16.892C10.1304 15.6314 11.1523 14.6094 12.4135 14.6094H22.7486C23.1524 14.6094 23.4797 14.9367 23.4797 15.3405Z" fill="url(#paint13_linear_562_43754)"/>
<path id="Vector_15" d="M23.2184 18.6216H12.5667C11.6114 18.6216 10.8369 17.8472 10.8369 16.8919C10.8369 15.9366 11.6113 15.1621 12.5667 15.1621H23.3156C23.6868 15.1621 23.9878 15.4631 23.9878 15.8343V17.8521C23.9878 18.2771 23.6433 18.6216 23.2184 18.6216Z" fill="url(#paint14_linear_562_43754)"/>
<path id="Vector_16" d="M11.0371 17.7002C11.3274 18.2481 11.9031 18.6214 12.5662 18.6214H23.218C23.6429 18.6214 23.9874 18.2769 23.9874 17.852V17.7002H11.0371Z" fill="url(#paint15_linear_562_43754)"/>
<path id="Vector_17" d="M12.5666 18.6213H23.2183C23.6433 18.6213 23.9877 18.2768 23.9877 17.8519V16.8916H10.8369C10.8369 17.8468 11.6113 18.6213 12.5666 18.6213Z" fill="url(#paint16_linear_562_43754)"/>
<path id="Vector_18" d="M11.029 16.0996C10.9025 16.3444 10.8366 16.616 10.8369 16.8916C10.8369 17.8469 11.6113 18.6213 12.5667 18.6213H23.2184C23.6433 18.6213 23.9878 18.2768 23.9878 17.8519V16.0996H11.029Z" fill="url(#paint17_linear_562_43754)"/>
<path id="Vector_19" d="M5.61523 13.922V10.7356C5.61523 10.3563 5.92272 10.0488 6.30201 10.0488H23.3132C23.6925 10.0488 24 10.3563 24 10.7356V13.922C24 14.3013 23.6925 14.6088 23.3132 14.6088H6.30201C5.92272 14.6088 5.61523 14.3013 5.61523 13.922Z" fill="url(#paint18_linear_562_43754)"/>
<path id="Vector_20" d="M5.61523 13.7791V10.8789H24V13.7791H5.61523Z" fill="url(#paint19_linear_562_43754)"/>
<path id="Vector_21" d="M21.1099 14.6088V10.0488H21.7127V14.6088H21.1099Z" fill="url(#paint20_linear_562_43754)"/>
<path id="Vector_22" d="M19.6646 14.6088V10.0488H20.2674V14.6088H19.6646Z" fill="url(#paint21_linear_562_43754)"/>
<path id="Vector_23" d="M9.34766 14.6088V10.0488H9.95053V14.6088H9.34766Z" fill="url(#paint22_linear_562_43754)"/>
<path id="Vector_24" d="M7.90234 14.6088V10.0488H8.50517V14.6088H7.90234Z" fill="url(#paint23_linear_562_43754)"/>
<path id="Vector_25" d="M23.3406 11.3772C23.3406 10.9979 23.0331 10.6904 22.6538 10.6904H5.64262C5.63415 10.6904 5.62587 10.6914 5.61745 10.6917C5.61651 10.7063 5.61523 10.7208 5.61523 10.7357V13.9221C5.61523 14.3014 5.92272 14.6089 6.30201 14.6089H23.3132C23.3217 14.6089 23.33 14.6079 23.3384 14.6076C23.3393 14.593 23.3406 14.5785 23.3406 14.5637V11.3772Z" fill="url(#paint24_linear_562_43754)"/>
<path id="Vector_26" d="M6.17088 6.05246C6.15872 6.10549 6.1525 6.15971 6.15234 6.21411V9.31769C6.15234 9.36427 6.15719 9.40969 6.16547 9.45387C6.24345 9.48051 6.32674 9.49557 6.41376 9.49557H11.9316C11.9301 9.48978 11.9283 9.48409 11.927 9.47825L8.48491 6.03613H6.31653C6.26753 6.03628 6.2187 6.04175 6.17088 6.05246Z" fill="url(#paint25_linear_562_43754)"/>
<path id="Vector_27" d="M3.5985 19.2974L0.514358 18.4966C0.147205 18.4013 -0.0731246 18.0264 0.0222166 17.6593L4.29732 1.19405C4.39266 0.826892 4.76753 0.606563 5.13469 0.701904L8.21883 1.5027C8.58598 1.59805 8.80631 1.97292 8.71097 2.34007L4.43586 18.8052C4.34052 19.1724 3.96565 19.3927 3.5985 19.2974Z" fill="url(#paint26_linear_562_43754)"/>
<path id="Vector_28" d="M3.45994 19.2619L0.652832 18.533L5.27311 0.738281L8.08022 1.46713L3.45994 19.2619Z" fill="url(#paint27_linear_562_43754)"/>
<path id="Vector_29" d="M8.15735 4.47262L3.74365 3.32665L3.89518 2.74316L8.30883 3.88914L8.15735 4.47262Z" fill="url(#paint28_linear_562_43754)"/>
<path id="Vector_30" d="M4.83796 17.2558L0.424316 16.1098L0.575799 15.5264L4.98945 16.6723L4.83796 17.2558Z" fill="url(#paint29_linear_562_43754)"/>
<path id="Vector_31" d="M5.20325 15.8496L0.789551 14.7036L0.94108 14.1201L5.35473 15.2661L5.20325 15.8496Z" fill="url(#paint30_linear_562_43754)"/>
<path id="Vector_32" d="M5.59016 1.50171C5.22301 1.40636 4.84814 1.62674 4.7528 1.99385L0.477739 18.4592C0.475621 18.4674 0.474444 18.4756 0.472656 18.4838C0.486539 18.4884 0.50028 18.4933 0.514633 18.497L3.59877 19.2978C3.96588 19.3931 4.3408 19.1728 4.43614 18.8057L8.71124 2.34039C8.71336 2.33215 8.71454 2.32396 8.71633 2.31573C8.70244 2.31116 8.6887 2.30627 8.67435 2.30255L5.59016 1.50171Z" fill="url(#paint31_linear_562_43754)"/>
</g>
<defs>
<linearGradient id="paint0_linear_562_43754" x1="16.1579" y1="4.79916" x2="13.271" y2="11.0539" gradientUnits="userSpaceOnUse">
<stop stop-color="#92F37F"/>
<stop offset="1" stop-color="#4AB272"/>
</linearGradient>
<linearGradient id="paint1_linear_562_43754" x1="7.33404" y1="7.76627" x2="15.0972" y2="7.76627" gradientUnits="userSpaceOnUse">
<stop stop-color="#4AB272" stop-opacity="0"/>
<stop offset="1" stop-color="#009245"/>
</linearGradient>
<linearGradient id="paint2_linear_562_43754" x1="12.5947" y1="12.8368" x2="4.91244" y2="5.53276" gradientUnits="userSpaceOnUse">
<stop stop-color="#4AB272" stop-opacity="0"/>
<stop offset="1" stop-color="#009245"/>
</linearGradient>
<linearGradient id="paint3_linear_562_43754" x1="14.4606" y1="6.55684" x2="14.4606" y2="9.44079" gradientUnits="userSpaceOnUse">
<stop stop-color="#F9F7FC"/>
<stop offset="1" stop-color="#F0DDFC"/>
</linearGradient>
<linearGradient id="paint4_linear_562_43754" x1="14.3924" y1="9.48324" x2="14.2512" y2="5.84776" gradientUnits="userSpaceOnUse">
<stop stop-color="#F0DDFC" stop-opacity="0"/>
<stop offset="0.289" stop-color="#C8B7E0" stop-opacity="0.289"/>
<stop offset="0.592" stop-color="#A595C8" stop-opacity="0.592"/>
<stop offset="0.84" stop-color="#8F81B8" stop-opacity="0.84"/>
<stop offset="1" stop-color="#8779B3"/>
</linearGradient>
<linearGradient id="paint5_linear_562_43754" x1="14.4606" y1="8.61394" x2="14.4606" y2="6.59634" gradientUnits="userSpaceOnUse">
<stop stop-color="#F0DDFC" stop-opacity="0"/>
<stop offset="0.289" stop-color="#C8B7E0" stop-opacity="0.289"/>
<stop offset="0.592" stop-color="#A595C8" stop-opacity="0.592"/>
<stop offset="0.84" stop-color="#8F81B8" stop-opacity="0.84"/>
<stop offset="1" stop-color="#8779B3"/>
</linearGradient>
<linearGradient id="paint6_linear_562_43754" x1="14.4426" y1="7.62444" x2="14.4052" y2="6.35447" gradientUnits="userSpaceOnUse">
<stop stop-color="#F0DDFC" stop-opacity="0"/>
<stop offset="0.289" stop-color="#C8B7E0" stop-opacity="0.289"/>
<stop offset="0.592" stop-color="#A595C8" stop-opacity="0.592"/>
<stop offset="0.84" stop-color="#8F81B8" stop-opacity="0.84"/>
<stop offset="1" stop-color="#8779B3"/>
</linearGradient>
<linearGradient id="paint7_linear_562_43754" x1="7.27341" y1="7.76583" x2="18.2516" y2="7.76583" gradientUnits="userSpaceOnUse">
<stop stop-color="#F0DDFC" stop-opacity="0"/>
<stop offset="0.289" stop-color="#C8B7E0" stop-opacity="0.289"/>
<stop offset="0.592" stop-color="#A595C8" stop-opacity="0.592"/>
<stop offset="0.84" stop-color="#8F81B8" stop-opacity="0.84"/>
<stop offset="1" stop-color="#8779B3"/>
</linearGradient>
<linearGradient id="paint8_linear_562_43754" x1="14.4923" y1="15.9312" x2="14.4923" y2="19.1321" gradientUnits="userSpaceOnUse">
<stop stop-color="#FFDA45"/>
<stop offset="1" stop-color="#FFA425"/>
</linearGradient>
<linearGradient id="paint9_linear_562_43754" x1="14.4924" y1="16.2514" x2="14.4924" y2="17.6785" gradientUnits="userSpaceOnUse">
<stop stop-color="#FFDA45"/>
<stop offset="1" stop-color="#FFA425"/>
</linearGradient>
<linearGradient id="paint10_linear_562_43754" x1="7.3614" y1="16.9642" x2="7.3614" y2="18.0715" gradientUnits="userSpaceOnUse">
<stop stop-color="#FF7044"/>
<stop offset="1" stop-color="#F92814"/>
</linearGradient>
<linearGradient id="paint11_linear_562_43754" x1="10.2862" y1="16.9642" x2="10.2862" y2="18.0715" gradientUnits="userSpaceOnUse">
<stop stop-color="#FF7044"/>
<stop offset="1" stop-color="#F92814"/>
</linearGradient>
<linearGradient id="paint12_linear_562_43754" x1="14.1626" y1="17.4155" x2="14.1626" y2="14.5637" gradientUnits="userSpaceOnUse">
<stop stop-color="#FFDA45" stop-opacity="0"/>
<stop offset="1" stop-color="#FCEE21"/>
</linearGradient>
<linearGradient id="paint13_linear_562_43754" x1="15.9669" y1="14.4711" x2="18.3438" y2="19.6211" gradientUnits="userSpaceOnUse">
<stop stop-color="#FFDA45"/>
<stop offset="1" stop-color="#FFA425"/>
</linearGradient>
<linearGradient id="paint14_linear_562_43754" x1="17.4124" y1="15.6828" x2="17.4124" y2="18.5668" gradientUnits="userSpaceOnUse">
<stop stop-color="#F9F7FC"/>
<stop offset="1" stop-color="#F0DDFC"/>
</linearGradient>
<linearGradient id="paint15_linear_562_43754" x1="17.4823" y1="18.5543" x2="17.6076" y2="15.3297" gradientUnits="userSpaceOnUse">
<stop stop-color="#F0DDFC" stop-opacity="0"/>
<stop offset="0.289" stop-color="#C8B7E0" stop-opacity="0.289"/>
<stop offset="0.592" stop-color="#A595C8" stop-opacity="0.592"/>
<stop offset="0.84" stop-color="#8F81B8" stop-opacity="0.84"/>
<stop offset="1" stop-color="#8779B3"/>
</linearGradient>
<linearGradient id="paint16_linear_562_43754" x1="17.4123" y1="17.7388" x2="17.4123" y2="15.7213" gradientUnits="userSpaceOnUse">
<stop stop-color="#F0DDFC" stop-opacity="0"/>
<stop offset="0.289" stop-color="#C8B7E0" stop-opacity="0.289"/>
<stop offset="0.592" stop-color="#A595C8" stop-opacity="0.592"/>
<stop offset="0.84" stop-color="#8F81B8" stop-opacity="0.84"/>
<stop offset="1" stop-color="#8779B3"/>
</linearGradient>
<linearGradient id="paint17_linear_562_43754" x1="17.4297" y1="16.7753" x2="17.4654" y2="15.5613" gradientUnits="userSpaceOnUse">
<stop stop-color="#F0DDFC" stop-opacity="0"/>
<stop offset="0.289" stop-color="#C8B7E0" stop-opacity="0.289"/>
<stop offset="0.592" stop-color="#A595C8" stop-opacity="0.592"/>
<stop offset="0.84" stop-color="#8F81B8" stop-opacity="0.84"/>
<stop offset="1" stop-color="#8779B3"/>
</linearGradient>
<linearGradient id="paint18_linear_562_43754" x1="14.8077" y1="10.0488" x2="14.8077" y2="15.6939" gradientUnits="userSpaceOnUse">
<stop stop-color="#4A98F7"/>
<stop offset="1" stop-color="#0469BC"/>
</linearGradient>
<linearGradient id="paint19_linear_562_43754" x1="14.8077" y1="10.8789" x2="14.8077" y2="13.0123" gradientUnits="userSpaceOnUse">
<stop stop-color="#4A98F7"/>
<stop offset="1" stop-color="#0469BC"/>
</linearGradient>
<linearGradient id="paint20_linear_562_43754" x1="21.4113" y1="10.0488" x2="21.4113" y2="13.4032" gradientUnits="userSpaceOnUse">
<stop stop-color="#FFDA45"/>
<stop offset="1" stop-color="#FFA425"/>
</linearGradient>
<linearGradient id="paint21_linear_562_43754" x1="19.966" y1="10.0488" x2="19.966" y2="13.4032" gradientUnits="userSpaceOnUse">
<stop stop-color="#FFDA45"/>
<stop offset="1" stop-color="#FFA425"/>
</linearGradient>
<linearGradient id="paint22_linear_562_43754" x1="9.64911" y1="10.0488" x2="9.64911" y2="13.4032" gradientUnits="userSpaceOnUse">
<stop stop-color="#FFDA45"/>
<stop offset="1" stop-color="#FFA425"/>
</linearGradient>
<linearGradient id="paint23_linear_562_43754" x1="8.2038" y1="10.0488" x2="8.2038" y2="13.4032" gradientUnits="userSpaceOnUse">
<stop stop-color="#FFDA45"/>
<stop offset="1" stop-color="#FFA425"/>
</linearGradient>
<linearGradient id="paint24_linear_562_43754" x1="15.5325" y1="10.3878" x2="17.9587" y2="5.18441" gradientUnits="userSpaceOnUse">
<stop stop-color="#18CFFC" stop-opacity="0"/>
<stop offset="1" stop-color="#65E1DC"/>
</linearGradient>
<linearGradient id="paint25_linear_562_43754" x1="10.129" y1="9.64291" x2="4.45451" y2="5.80178" gradientUnits="userSpaceOnUse">
<stop stop-color="#F0DDFC" stop-opacity="0"/>
<stop offset="0.289" stop-color="#C8B7E0" stop-opacity="0.289"/>
<stop offset="0.592" stop-color="#A595C8" stop-opacity="0.592"/>
<stop offset="0.84" stop-color="#8F81B8" stop-opacity="0.84"/>
<stop offset="1" stop-color="#8779B3"/>
</linearGradient>
<linearGradient id="paint26_linear_562_43754" x1="2.16458" y1="9.42882" x2="7.62915" y2="10.8451" gradientUnits="userSpaceOnUse">
<stop stop-color="#FF7044"/>
<stop offset="1" stop-color="#F92814"/>
</linearGradient>
<linearGradient id="paint27_linear_562_43754" x1="2.96789" y1="9.63746" x2="5.03303" y2="10.1727" gradientUnits="userSpaceOnUse">
<stop stop-color="#FF7044"/>
<stop offset="1" stop-color="#F92814"/>
</linearGradient>
<linearGradient id="paint28_linear_562_43754" x1="3.82144" y1="3.03631" x2="7.06851" y2="3.87787" gradientUnits="userSpaceOnUse">
<stop stop-color="#F9F7FC"/>
<stop offset="1" stop-color="#F0DDFC"/>
</linearGradient>
<linearGradient id="paint29_linear_562_43754" x1="0.507678" y1="15.821" x2="3.75475" y2="16.6626" gradientUnits="userSpaceOnUse">
<stop stop-color="#F9F7FC"/>
<stop offset="1" stop-color="#F0DDFC"/>
</linearGradient>
<linearGradient id="paint30_linear_562_43754" x1="0.872318" y1="14.4146" x2="4.11939" y2="15.2561" gradientUnits="userSpaceOnUse">
<stop stop-color="#F9F7FC"/>
<stop offset="1" stop-color="#F0DDFC"/>
</linearGradient>
<linearGradient id="paint31_linear_562_43754" x1="3.78028" y1="9.9454" x2="0.277977" y2="7.99891" gradientUnits="userSpaceOnUse">
<stop stop-color="#FF7044" stop-opacity="0"/>
<stop offset="1" stop-color="#FFA425"/>
</linearGradient>
</defs>
</svg>
