<svg width="24" height="24" viewBox="0 0 24 24" fill="none" xmlns="http://www.w3.org/2000/svg">
<g id="Group">
<path id="Vector" d="M0.783691 4.53027H18.8898V9.56782H0.783691V4.53027Z" fill="#FFDA45"/>
<path id="Vector_2" d="M16.8711 4.53027H18.89V9.56782H16.8711V4.53027Z" fill="#FAC800"/>
<path id="Vector_3" d="M11.1665 4.53027H16.8946V9.56782H11.1665V4.53027Z" fill="#FFF5F5"/>
<path id="Vector_4" d="M22.638 23.6483H4.67133C3.20194 23.6483 2.01074 22.4571 2.01074 20.9877C2.01074 19.5183 3.20194 18.3271 4.67133 18.3271H22.638V23.6483Z" fill="#F0F5FA"/>
<path id="Vector_5" d="M20.7603 18.3271H22.6383V23.6483H20.7603V18.3271Z" fill="#E4ECF2"/>
<path id="Vector_6" d="M23.5771 24.0001H4.67142C3.01023 24.0001 1.65869 22.6486 1.65869 20.9873C1.65869 19.3261 3.01018 17.9746 4.67142 17.9746H23.5772C23.6705 17.9746 23.7601 18.0117 23.8262 18.0777C23.8922 18.1438 23.9293 18.2334 23.9293 18.3267C23.9293 18.4201 23.8922 18.5097 23.8262 18.5757C23.7601 18.6418 23.6705 18.6789 23.5772 18.6789H4.67142C3.39857 18.6789 2.36296 19.7144 2.36296 20.9873C2.36296 22.2602 3.39852 23.2958 4.67142 23.2958H23.5772C23.6234 23.2958 23.6692 23.3049 23.7119 23.3226C23.7546 23.3403 23.7934 23.3662 23.8261 23.3989C23.8588 23.4316 23.8848 23.4705 23.9025 23.5132C23.9202 23.5559 23.9293 23.6017 23.9293 23.6479C23.9293 23.6942 23.9201 23.74 23.9025 23.7827C23.8848 23.8254 23.8588 23.8642 23.8261 23.8969C23.7934 23.9296 23.7546 23.9556 23.7119 23.9733C23.6691 23.991 23.6234 24.0001 23.5771 24.0001Z" fill="#6E9EFF"/>
<path id="Vector_7" d="M22.638 20.4523H8.13436C8.04097 20.4523 7.9514 20.4152 7.88536 20.3492C7.81933 20.2831 7.78223 20.1936 7.78223 20.1002C7.78223 20.0068 7.81933 19.9172 7.88536 19.8512C7.9514 19.7851 8.04097 19.748 8.13436 19.748H22.638V20.4523ZM22.638 22.226H11.9853C11.8919 22.226 11.8023 22.1889 11.7363 22.1229C11.6703 22.0569 11.6332 21.9673 11.6332 21.8739C11.6332 21.7805 11.6703 21.6909 11.7363 21.6249C11.8023 21.5589 11.8919 21.5218 11.9853 21.5218H22.638V22.226Z" fill="#C5D7E6"/>
<path id="Vector_8" d="M19.6267 17.6244H2.14426C1.1933 17.6244 0.422363 16.8536 0.422363 15.9026C0.422363 14.9516 1.19326 14.1807 2.14426 14.1807H19.6268L19.6267 17.6244Z" fill="#F0F5FA"/>
<path id="Vector_9" d="M17.7485 14.1807H19.6266V17.6244H17.7485V14.1807Z" fill="#E4ECF2"/>
<path id="Vector_10" d="M20.704 17.9762H2.14434C1.00075 17.9762 0.0703125 17.0458 0.0703125 15.9022C0.0703125 14.7585 1.0007 13.8281 2.14434 13.8281H20.704C20.7974 13.8281 20.887 13.8652 20.953 13.9313C21.0191 13.9973 21.0562 14.0869 21.0562 14.1803C21.0562 14.2737 21.0191 14.3632 20.953 14.4293C20.887 14.4953 20.7974 14.5324 20.704 14.5324H2.14434C1.38908 14.5324 0.774582 15.1468 0.774582 15.9022C0.774582 16.6575 1.38903 17.2719 2.14434 17.2719H20.704C20.7974 17.2719 20.887 17.309 20.953 17.375C21.0191 17.4411 21.0562 17.5307 21.0562 17.624C21.0562 17.7174 21.0191 17.807 20.953 17.873C20.887 17.9391 20.7974 17.9762 20.704 17.9762Z" fill="#74D84B"/>
<path id="Vector_11" d="M19.6269 16.3283H14.6822C14.5888 16.3283 14.4993 16.2912 14.4332 16.2252C14.3672 16.1591 14.3301 16.0696 14.3301 15.9762C14.3301 15.8828 14.3672 15.7932 14.4332 15.7272C14.4993 15.6611 14.5888 15.624 14.6822 15.624H19.6269V16.3283Z" fill="#C5D7E6"/>
<path id="Vector_12" d="M6.24658 0.352539H20.2789C21.3353 0.352539 22.1917 1.20893 22.1917 2.26529C22.1917 3.32169 21.3353 4.17804 20.2789 4.17804H6.24658V0.352539Z" fill="#F0F5FA"/>
<path id="Vector_13" d="M20.2789 0.352539H18.4009C19.4573 0.352539 20.3136 1.20893 20.3136 2.26529C20.3136 3.32169 19.4572 4.17804 18.4009 4.17804H20.2789C21.3353 4.17804 22.1917 3.32165 22.1917 2.26529C22.1917 1.20893 21.3353 0.352539 20.2789 0.352539Z" fill="#E4ECF2"/>
<path id="Vector_14" d="M20.2789 4.52981H5.04989C4.9565 4.52981 4.86693 4.49271 4.80089 4.42668C4.73485 4.36064 4.69775 4.27107 4.69775 4.17768C4.69775 4.08429 4.73485 3.99472 4.80089 3.92868C4.86693 3.86264 4.9565 3.82554 5.04989 3.82554H20.2789C21.1394 3.82554 21.8395 3.12545 21.8395 2.26493C21.8395 1.40441 21.1394 0.704269 20.2789 0.704269H5.04989C4.9565 0.704269 4.86693 0.66717 4.80089 0.601132C4.73485 0.535093 4.69775 0.445527 4.69775 0.352135C4.69775 0.258743 4.73485 0.169176 4.80089 0.103138C4.86693 0.0370998 4.9565 0 5.04989 0L20.2789 0C21.5277 0 22.5438 1.01603 22.5438 2.26488C22.5438 3.51374 21.5277 4.52981 20.2789 4.52981Z" fill="#FC435F"/>
<path id="Vector_15" d="M2.82178 9.56738H23.7575V13.8286H2.82178V9.56738Z" fill="#6E9EFF"/>
<path id="Vector_16" d="M17.3643 9.56738H23.7575V13.8286H17.3643V9.56738Z" fill="#BF6930"/>
<path id="Vector_17" d="M21.8794 9.56738H23.7574V13.8286H21.8794V9.56738Z" fill="#AD5F2C"/>
<path id="Vector_18" d="M10.024 12.4017H5.23454C4.8456 12.4017 4.53027 12.0864 4.53027 11.6974C4.53027 11.3085 4.8456 10.9932 5.23454 10.9932H10.024C10.4129 10.9932 10.7283 11.3085 10.7283 11.6974C10.7283 12.0864 10.4129 12.4017 10.024 12.4017ZM21.7227 12.0496H19.4299C19.3365 12.0496 19.2469 12.0125 19.1809 11.9464C19.1149 11.8804 19.0778 11.7908 19.0778 11.6974C19.0778 11.604 19.1149 11.5145 19.1809 11.4484C19.2469 11.3824 19.3365 11.3453 19.4299 11.3453H21.7227C21.8161 11.3453 21.9056 11.3824 21.9717 11.4484C22.0377 11.5145 22.0748 11.604 22.0748 11.6974C22.0748 11.7908 22.0377 11.8804 21.9717 11.9464C21.9056 12.0125 21.8161 12.0496 21.7227 12.0496Z" fill="#FFF5F5"/>
<path id="Vector_19" d="M15.3138 7.83926C15.2204 7.83926 15.1308 7.80216 15.0648 7.73613C14.9988 7.67009 14.9617 7.58052 14.9617 7.48713V6.61092C14.9617 6.51753 14.9988 6.42796 15.0648 6.36193C15.1308 6.29589 15.2204 6.25879 15.3138 6.25879C15.4072 6.25879 15.4968 6.29589 15.5628 6.36193C15.6288 6.42796 15.6659 6.51753 15.6659 6.61092V7.48713C15.6659 7.58052 15.6288 7.67009 15.5628 7.73613C15.4968 7.80216 15.4072 7.83926 15.3138 7.83926ZM14.0305 7.83926C13.9371 7.83926 13.8475 7.80216 13.7815 7.73613C13.7154 7.67009 13.6783 7.58052 13.6783 7.48713V6.61092C13.6783 6.51753 13.7154 6.42796 13.7815 6.36193C13.8475 6.29589 13.9371 6.25879 14.0305 6.25879C14.1239 6.25879 14.2134 6.29589 14.2795 6.36193C14.3455 6.42796 14.3826 6.51753 14.3826 6.61092V7.48713C14.3826 7.58052 14.3455 7.67009 14.2795 7.73613C14.2134 7.80216 14.1239 7.83926 14.0305 7.83926ZM12.7472 7.83926C12.6538 7.83926 12.5642 7.80216 12.4982 7.73613C12.4321 7.67009 12.395 7.58052 12.395 7.48713V6.61092C12.395 6.51753 12.4321 6.42796 12.4982 6.36193C12.5642 6.29589 12.6538 6.25879 12.7472 6.25879C12.8405 6.25879 12.9301 6.29589 12.9962 6.36193C13.0622 6.42796 13.0993 6.51753 13.0993 6.61092V7.48713C13.0993 7.58052 13.0622 7.67009 12.9962 7.73613C12.9301 7.80216 12.8405 7.83926 12.7472 7.83926Z" fill="#677A8F"/>
<path id="Vector_20" d="M6.23633 1.91309H14.2715C14.3649 1.91309 14.4544 1.95019 14.5205 2.01622C14.5865 2.08226 14.6236 2.17183 14.6236 2.26522C14.6236 2.35861 14.5865 2.44818 14.5205 2.51422C14.4544 2.58026 14.3649 2.61736 14.2715 2.61736H6.23633V1.91309Z" fill="#C5D7E6"/>
</g>
</svg>
