<svg width="4" height="20" viewBox="0 0 4 20" fill="none" xmlns="http://www.w3.org/2000/svg">
<path d="M1.79487 2.82051C1.52285 2.82051 1.26198 2.71245 1.06963 2.52011C0.87729 2.32776 0.769231 2.06689 0.769231 1.79487C0.769231 1.52285 0.87729 1.26198 1.06963 1.06963C1.26198 0.877289 1.52285 0.769231 1.79487 0.769231C2.06689 0.769231 2.32776 0.877289 2.52011 1.06963C2.71245 1.26198 2.82051 1.52285 2.82051 1.79487C2.82051 2.06689 2.71245 2.32776 2.52011 2.52011C2.32776 2.71245 2.06689 2.82051 1.79487 2.82051ZM1.79487 11.0256C1.52285 11.0256 1.26198 10.9176 1.06963 10.7252C0.87729 10.5329 0.769231 10.272 0.769231 10C0.769231 9.72798 0.87729 9.46711 1.06963 9.27476C1.26198 9.08242 1.52285 8.97436 1.79487 8.97436C2.06689 8.97436 2.32776 9.08242 2.52011 9.27476C2.71245 9.46711 2.82051 9.72798 2.82051 10C2.82051 10.272 2.71245 10.5329 2.52011 10.7252C2.32776 10.9176 2.06689 11.0256 1.79487 11.0256ZM1.79487 19.2308C1.52285 19.2308 1.26198 19.1227 1.06963 18.9304C0.87729 18.738 0.769231 18.4771 0.769231 18.2051C0.769231 17.9331 0.87729 17.6722 1.06963 17.4799C1.26198 17.2875 1.52285 17.1795 1.79487 17.1795C2.06689 17.1795 2.32776 17.2875 2.52011 17.4799C2.71245 17.6722 2.82051 17.9331 2.82051 18.2051C2.82051 18.4771 2.71245 18.738 2.52011 18.9304C2.32776 19.1227 2.06689 19.2308 1.79487 19.2308Z" stroke="#4A4A4A" stroke-width="1.5" stroke-linecap="round" stroke-linejoin="round"/>
</svg>
