<svg width="24" height="24" viewBox="0 0 24 24" fill="none" xmlns="http://www.w3.org/2000/svg">
<g id="Group">
<path id="Vector" d="M21.8399 11.9979C21.8399 11.7691 21.8317 11.5378 21.8155 11.3066L24.0001 9.43618L23.8934 9.01363C23.7469 8.43348 23.5586 7.86467 23.3301 7.31163C23.1007 6.75928 22.8317 6.2242 22.5253 5.71056L22.3019 5.33632L19.4393 5.55814C19.1338 5.20566 18.8038 4.87516 18.4518 4.5691L18.674 1.70113L18.2998 1.47782C17.7859 1.17122 17.2506 0.902128 16.698 0.672643C16.1452 0.444274 15.5766 0.256111 14.9968 0.109621L14.5742 0.00292969L12.7071 2.18361C12.4718 2.1667 12.236 2.15823 12.0001 2.15821L9.8916 4.2666L12.0001 6.37512C15.1005 6.37512 17.6229 8.89748 17.6229 11.9978C17.6229 15.0982 15.1005 17.6206 12.0001 17.6206L9.8916 19.7291L12.0001 21.8375C12.2302 21.8375 12.4603 21.8295 12.6914 21.8133L14.5618 23.9979L14.9844 23.8912C15.5645 23.7446 16.1334 23.5564 16.6864 23.3279C17.2387 23.0985 17.7738 22.8295 18.2874 22.523L18.6617 22.2997L18.4398 19.437C18.7923 19.1315 19.1228 18.8016 19.4289 18.4495L22.2968 18.6718L22.5202 18.2975C22.8268 17.7837 23.0958 17.2484 23.3253 16.6958C23.5537 16.143 23.7419 15.5744 23.8884 14.9945L23.995 14.572L21.8144 12.7049C21.8313 12.4683 21.8399 12.2317 21.8399 11.9979Z" fill="#587AA1"/>
<path id="Vector_2" d="M2.16025 11.9979C2.16025 11.7691 2.1684 11.5378 2.18462 11.3066L0 9.43618L0.106691 9.01363C0.253246 8.43348 0.441504 7.86467 0.669995 7.31163C0.899402 6.75928 1.16837 6.2242 1.47479 5.71056L1.69816 5.33632L4.56083 5.55814C4.86634 5.20566 5.19632 4.87516 5.54832 4.5691L5.32608 1.70113L5.70032 1.47782C6.21417 1.17122 6.74948 0.902128 7.30209 0.672643C7.85489 0.444274 8.42345 0.256111 9.00334 0.109621L9.42589 0.00292969L11.293 2.18361C11.5283 2.1667 11.7641 2.15823 12 2.15821V6.37512C8.8996 6.37512 6.37725 8.89748 6.37725 11.9978C6.37725 15.0982 8.8996 17.6206 12 17.6206V21.8375C11.7699 21.8375 11.5399 21.8295 11.3087 21.8133L9.43826 23.9979L9.01571 23.8912C8.43556 23.7446 7.86675 23.5564 7.31372 23.3279C6.76136 23.0985 6.22629 22.8295 5.71269 22.523L5.33845 22.2997L5.56027 19.437C5.20778 19.1315 4.87728 18.8016 4.57123 18.4495L1.70326 18.6718L1.47995 18.2975C1.17335 17.7837 0.904258 17.2484 0.674774 16.6958C0.446405 16.143 0.258242 15.5744 0.111752 14.9945L0.00506045 14.572L2.18574 12.7049C2.16883 12.4696 2.16033 12.2338 2.16025 11.9979Z" fill="#6C90B8"/>
<path id="Vector_3" d="M11.9999 4.96973L10.5942 6.37541L11.9999 7.78109C14.3252 7.78109 16.217 9.67286 16.217 11.9981C16.217 14.3234 14.3252 16.2152 11.9999 16.2152L10.5942 17.6209L11.9999 19.0265C15.8754 19.0265 19.0283 15.8736 19.0283 11.9981C19.0283 8.12262 15.8754 4.96973 11.9999 4.96973Z" fill="#81A6C7"/>
<path id="Vector_4" d="M7.78304 11.9981C7.78304 9.67286 9.67481 7.78109 12.0001 7.78109V4.96973C8.12458 4.96973 4.97168 8.12262 4.97168 11.9981C4.97168 15.8736 8.12458 19.0265 12.0001 19.0265V16.2152C9.67481 16.2152 7.78304 14.3234 7.78304 11.9981Z" fill="#97BEDB"/>
</g>
</svg>
