<svg width="24" height="24" viewBox="0 0 24 24" fill="none" xmlns="http://www.w3.org/2000/svg">
<g id="Group">
<path id="Vector" d="M17.5305 6.84648V5.06181L16.253 4.75197C16.1605 4.42833 16.0307 4.11655 15.8661 3.82294L16.5509 2.70391L15.2789 1.44197L14.154 2.11945C13.8581 1.95518 13.5443 1.82549 13.2187 1.73294L12.9055 0.461914H11.1065L10.7942 1.72935C10.4683 1.82092 10.1541 1.9497 9.85773 2.11314L8.72973 1.43376L7.45768 2.69571L8.1406 3.81161C7.97517 4.10472 7.84443 4.4161 7.75101 4.73945L6.46973 5.05017V6.83484L7.74732 7.14468C7.83979 7.46832 7.96962 7.78009 8.13419 8.07371L7.44937 9.19273L8.72142 10.4547L9.84629 9.7772C10.1422 9.94146 10.456 10.0712 10.7816 10.1637L11.0948 11.4348H12.8938L13.2061 10.1673C13.5319 10.0758 13.8462 9.947 14.1425 9.78356L15.2705 10.4629L16.5426 9.20099L15.8597 8.08509C16.0251 7.79198 16.1558 7.4806 16.2493 7.15725L17.5305 6.84648Z" fill="#EEEEEE"/>
<path id="Vector_2" d="M10.4756 9.33258C10.3738 9.28744 10.2741 9.23776 10.1767 9.18371C10.072 9.12564 9.95378 9.0962 9.83404 9.09834C9.7143 9.10048 9.59724 9.13414 9.49465 9.19591L8.82439 9.59956L8.30983 9.08909L8.71475 8.4275C8.77763 8.32481 8.812 8.20721 8.81433 8.08682C8.81667 7.96643 8.78688 7.84759 8.72803 7.74253C8.58923 7.4948 8.47969 7.23177 8.40162 6.95873C8.36858 6.84315 8.30548 6.7384 8.21875 6.65516C8.13203 6.57192 8.02477 6.51316 7.90793 6.48489L7.14998 6.30114V5.58381L7.91162 5.39909C8.02812 5.37093 8.13509 5.31245 8.22169 5.22959C8.30828 5.14673 8.37142 5.04244 8.4047 4.9273C8.48361 4.65451 8.59394 4.39181 8.73347 4.14448C8.79277 4.03929 8.8229 3.92018 8.82074 3.79944C8.81858 3.67871 8.7842 3.56075 8.72116 3.45776L8.31819 2.79925L8.83275 2.28879L9.50619 2.69432C9.60849 2.75591 9.72517 2.78954 9.84456 2.79186C9.96394 2.79417 10.0818 2.76508 10.1864 2.7075C10.4372 2.56933 10.7029 2.46039 10.9784 2.38284C11.0942 2.3504 11.1993 2.28782 11.283 2.2015C11.3667 2.11517 11.426 2.00818 11.4548 1.89145L11.6398 1.14079H12.3722L12.558 1.89504C12.5868 2.01143 12.6458 2.11814 12.7291 2.20434C12.8125 2.29054 12.9171 2.35317 13.0324 2.38586C13.1281 2.41311 13.2226 2.44411 13.3157 2.47879C13.6597 2.60714 14.0416 2.43889 14.1813 2.10299L14.154 2.11945C13.8581 1.95518 13.5443 1.82549 13.2187 1.73294L12.9055 0.461914H11.1065L10.7942 1.72935C10.4683 1.82092 10.1541 1.9497 9.85773 2.11314L8.72973 1.43376L7.45768 2.69571L8.1406 3.81161C7.97517 4.10472 7.84443 4.4161 7.75101 4.73945L6.46973 5.05017V6.83484L7.74732 7.14468C7.83979 7.46832 7.96962 7.78009 8.13419 8.07371L7.44937 9.19273L8.72142 10.4547L9.84629 9.7772C10.1422 9.94149 10.456 10.0712 10.7816 10.1637L10.8054 10.2603C10.8108 10.2498 10.8165 10.2396 10.8214 10.2287C10.9738 9.88591 10.8191 9.48479 10.4756 9.33258Z" fill="#E0E0E0"/>
<path id="Vector_3" d="M11.9998 7.88121C13.0706 7.88121 13.9386 7.01565 13.9386 5.94793C13.9386 4.88021 13.0706 4.01465 11.9998 4.01465C10.9291 4.01465 10.061 4.88021 10.061 5.94793C10.061 7.01565 10.9291 7.88121 11.9998 7.88121Z" fill="#F78131"/>
<path id="Vector_4" d="M10.9507 5.94798C10.9507 5.03296 11.5884 4.26696 12.4446 4.06639C12.2988 4.03209 12.1496 4.01473 11.9998 4.01465C10.929 4.01465 10.061 4.88024 10.061 5.94793C10.061 7.01567 10.929 7.88126 11.9998 7.88126C12.1529 7.88126 12.3017 7.86301 12.4446 7.82952C11.5884 7.62901 10.9507 6.86301 10.9507 5.94798Z" fill="#E0752D"/>
<path id="Vector_5" d="M7.6511 14.9777V12.5411C7.6511 11.1277 6.64843 9.91173 5.25771 9.6386C3.13858 8.36855 0.44043 9.8906 0.44043 12.356V14.9777C0.44043 16.0059 1.27633 16.8395 2.30746 16.8395H5.78402C6.8152 16.8395 7.6511 16.0059 7.6511 14.9777Z" fill="#4C4C4C"/>
<path id="Vector_6" d="M5.44118 17.3249V14.875H2.43103V17.3249L1.19774 17.7972C0.476205 18.0735 0 18.7645 0 19.5353V22.8981H8.09108V19.5739C8.09108 18.7841 7.59139 18.0803 6.84441 17.8179L5.44118 17.3249Z" fill="#EA2F2F"/>
<path id="Vector_7" d="M1.56133 18.5731L3.32067 17.8994V15.4494H5.44123V14.875H2.43103V17.3249L1.19703 17.7975C0.475949 18.0736 0 18.7646 0 19.5353V22.8982H0.889641V19.5483C0.889749 19.3369 0.954017 19.1304 1.07395 18.9563C1.19388 18.7822 1.36383 18.6486 1.56133 18.5731Z" fill="#CC2929"/>
<path id="Vector_8" d="M5.44751 17.3271L5.44131 17.3249V14.875H2.43115V17.3117L3.80243 19.1872L3.80131 21.0394C3.80129 21.0731 3.8079 21.1064 3.82077 21.1375C3.83363 21.1687 3.8525 21.1969 3.8763 21.2208C3.90009 21.2446 3.92835 21.2635 3.95945 21.2764C3.99055 21.2893 4.02389 21.296 4.05756 21.296H4.05772C4.12569 21.296 4.19089 21.269 4.23897 21.2209C4.28705 21.1729 4.31409 21.1077 4.31413 21.0397L4.31531 19.1307L5.44751 17.3271Z" fill="#F9B995"/>
<path id="Vector_9" d="M4.04551 16.6029C5.37666 16.6029 6.45577 15.3402 6.45577 13.7824C6.45577 12.2247 5.37666 10.9619 4.04551 10.9619C2.71436 10.9619 1.63525 12.2247 1.63525 13.7824C1.63525 15.3402 2.71436 16.6029 4.04551 16.6029Z" fill="#FDD2B5"/>
<path id="Vector_10" d="M5.25771 9.6386C3.13858 8.36855 0.44043 9.8906 0.44043 12.356V13.2511L1.11443 13.1289C2.39376 12.8968 3.53653 12.1877 4.31043 11.1457C5.34807 12.3522 6.4652 13.489 7.6511 14.551V12.541C7.65104 11.1277 6.64838 9.91173 5.25771 9.6386Z" fill="#3A3A3A"/>
<path id="Vector_11" d="M23.5598 14.9777V12.5411C23.5598 11.1277 22.5571 9.91173 21.1664 9.6386C19.0473 8.36855 16.3491 9.8906 16.3491 12.356V14.9777C16.3491 16.0059 17.185 16.8395 18.2162 16.8395H21.6928C22.7238 16.8395 23.5598 16.0059 23.5598 14.9777Z" fill="#4C4C4C"/>
<path id="Vector_12" d="M21.3499 17.3249V14.875H18.3397V17.3249L17.1064 17.7972C16.3849 18.0735 15.9087 18.7645 15.9087 19.5353V22.8981H23.9998V19.5739C23.9998 18.7841 23.5001 18.0803 22.7532 17.8179L21.3499 17.3249Z" fill="#EA2F2F"/>
<path id="Vector_13" d="M17.47 18.5731L19.2293 17.8994V15.4494H21.3499V14.875H18.3397V17.3249L17.1057 17.7975C16.3846 18.0736 15.9087 18.7645 15.9087 19.5352V22.8981H16.7983V19.5482C16.7984 19.3368 16.8627 19.1304 16.9826 18.9563C17.1026 18.7822 17.2725 18.6486 17.47 18.5731Z" fill="#CC2929"/>
<path id="Vector_14" d="M21.3562 17.3271L21.35 17.3249V14.875H18.3398V17.3117L19.7111 19.1872L19.7099 21.0394C19.7099 21.0731 19.7165 21.1064 19.7294 21.1375C19.7422 21.1687 19.7611 21.1969 19.7849 21.2208C19.8087 21.2446 19.8369 21.2635 19.868 21.2764C19.8991 21.2893 19.9325 21.296 19.9662 21.296H19.9663C20.0343 21.296 20.0995 21.269 20.1476 21.2209C20.1956 21.1729 20.2227 21.1077 20.2227 21.0397L20.2239 19.1307L21.3562 17.3271Z" fill="#F9B995"/>
<path id="Vector_15" d="M19.9547 16.5522C21.2858 16.5522 22.3649 15.2894 22.3649 13.7316C22.3649 12.1739 21.2858 10.9111 19.9547 10.9111C18.6235 10.9111 17.5444 12.1739 17.5444 13.7316C17.5444 15.2894 18.6235 16.5522 19.9547 16.5522Z" fill="#FDD2B5"/>
<path id="Vector_16" d="M21.1664 9.6386C19.0473 8.36855 16.3491 9.8906 16.3491 12.356V13.2511L17.0231 13.1289C18.3025 12.8968 19.4452 12.1877 20.2191 11.1457C21.2568 12.3522 22.3739 13.489 23.5598 14.551V12.541C23.5598 11.1277 22.5571 9.91173 21.1664 9.6386Z" fill="#3A3A3A"/>
<path id="Vector_17" d="M13.4691 16.5789V13.6338H10.2676V16.5789L8.6049 17.1933C7.78408 17.4966 7.23926 18.277 7.23926 19.1496V23.5392H16.7605V19.1907C16.7605 18.298 16.1907 17.5041 15.343 17.216L13.4691 16.5789Z" fill="#00C9FF"/>
<path id="Vector_18" d="M8.18121 19.2503V23.5391H7.23926V19.1495C7.23926 18.277 7.78403 17.4966 8.6049 17.1932L10.2676 16.5789V13.6338H13.4691V14.2605H11.2095V17.1533L8.77839 18.3071C8.59979 18.3917 8.44887 18.5252 8.34316 18.6922C8.23745 18.8592 8.18129 19.0527 8.18121 19.2503Z" fill="#00C0ED"/>
<path id="Vector_19" d="M13.4811 16.5829L13.4693 16.5789V13.6338H10.2678V16.5789L10.2632 16.5806L11.7852 18.854L11.7837 21.1273C11.7837 21.161 11.7903 21.1943 11.8032 21.2255C11.8161 21.2566 11.8349 21.2849 11.8587 21.3087C11.8825 21.3325 11.9108 21.3514 11.9419 21.3643C11.973 21.3772 12.0063 21.3839 12.04 21.3839H12.0402C12.1081 21.3839 12.1733 21.3569 12.2214 21.3088C12.2695 21.2608 12.2965 21.1956 12.2966 21.1276L12.2981 18.8716L13.4811 16.5829Z" fill="#F9B995"/>
<path id="Vector_20" d="M11.9999 15.8583C13.7919 15.8583 15.2445 14.3125 15.2445 12.4057C15.2445 10.4989 13.7919 8.95312 11.9999 8.95312C10.208 8.95312 8.75537 10.4989 8.75537 12.4057C8.75537 14.3125 10.208 15.8583 11.9999 15.8583Z" fill="#FDD2B5"/>
<path id="Vector_21" d="M9.07444 11.9669L8.75244 12.5596V11.0005C8.75244 8.78153 11.1829 7.41169 13.0918 8.55471C14.3445 8.80051 15.2477 9.89487 15.2477 11.167V12.5328L15.0014 12.4136C14.0019 11.9301 13.2157 11.0984 12.7919 10.0764L12.4253 10.5136C12.0398 10.9734 11.439 11.1965 10.845 11.1005C10.1296 10.9848 9.41906 11.3325 9.07444 11.9669Z" fill="#3A3A3A"/>
<path id="Vector_22" d="M11.2715 10.7436C11.3358 10.7376 11.3998 10.728 11.4631 10.7148C11.3987 10.7208 11.3347 10.7303 11.2715 10.7436Z" fill="#616161"/>
<g id="Group_2">
<path id="Vector_23" d="M14.3548 20.5566C14.3205 20.5566 14.2865 20.5633 14.2547 20.5764C14.223 20.5895 14.1942 20.6088 14.1699 20.633C14.1456 20.6573 14.1263 20.6861 14.1131 20.7178C14.1 20.7495 14.0932 20.7834 14.0931 20.8178V23.5389H14.6165V20.8177C14.6164 20.7834 14.6096 20.7494 14.5965 20.7177C14.5833 20.686 14.564 20.6572 14.5397 20.633C14.5154 20.6087 14.4866 20.5895 14.4548 20.5764C14.4231 20.5633 14.3891 20.5566 14.3548 20.5566ZM9.64494 20.5566C9.61061 20.5566 9.57662 20.5633 9.54489 20.5764C9.51316 20.5895 9.48432 20.6088 9.46002 20.633C9.43573 20.6573 9.41645 20.6861 9.40328 20.7178C9.39012 20.7495 9.38333 20.7834 9.3833 20.8178V23.5389H9.90663V20.8177C9.90654 20.7484 9.87892 20.682 9.82984 20.633C9.78077 20.584 9.71426 20.5566 9.64494 20.5566Z" fill="white"/>
</g>
<g id="Group_3">
<path id="Vector_24" d="M15.2039 20.577C15.5182 20.577 15.773 20.1789 15.773 19.6879C15.773 19.1969 15.5182 18.7988 15.2039 18.7988C14.8896 18.7988 14.6348 19.1969 14.6348 19.6879C14.6348 20.1789 14.8896 20.577 15.2039 20.577Z" fill="white"/>
<path id="Vector_25" d="M13.5944 21.8854C13.61 22.2068 13.4465 22.4593 13.2293 22.4494C13.0121 22.4394 12.8233 22.1709 12.8077 21.8494C12.7921 21.528 12.9555 21.2755 13.1727 21.2854C13.39 21.2953 13.5788 21.564 13.5944 21.8854Z" fill="white"/>
</g>
</g>
</svg>
