<svg width="81" height="81" viewBox="0 0 81 81" fill="none" xmlns="http://www.w3.org/2000/svg">
<g id="Frame 1261157084">
<path id="Ellipse 1" d="M11.5118 16.329C10.6595 15.6264 10.5345 14.3621 11.2788 13.546C16.2145 8.13386 22.5518 4.17084 29.6067 2.10782C37.3027 -0.142661 45.4974 -0.0282716 53.1275 2.43615C60.7577 4.90057 67.4711 9.60126 72.3966 15.9283C76.9119 21.7283 79.7337 28.6496 80.5712 35.9263C80.6975 37.0236 79.8565 37.976 78.7543 38.0473L67.5776 38.7702C66.4753 38.8415 65.5323 38.0037 65.3724 36.9107C64.753 32.6757 63.0458 28.6608 60.4026 25.2655C57.3488 21.3428 53.1865 18.4284 48.4558 16.9004C43.7251 15.3725 38.6444 15.3016 33.8729 16.6968C29.7431 17.9045 26.0099 20.1623 23.0302 23.2349C22.2613 24.0278 21.0063 24.1557 20.154 23.4531L11.5118 16.329Z" fill="#D0AEFF"/>
<path id="Ellipse 2" d="M78.8335 40.5C79.9381 40.5 80.8387 41.396 80.7835 42.4992C80.5021 48.122 79.0364 53.6301 76.4738 58.6596C73.608 64.284 69.4518 69.1503 64.3449 72.8607C59.2381 76.571 53.3256 79.0201 47.0909 80.0075C40.8562 80.995 34.4763 80.4929 28.4728 78.5423C22.4694 76.5916 17.0128 73.2478 12.5492 68.7843C8.08567 64.3207 4.74188 58.8641 2.79123 52.8607C0.840591 46.8572 0.338483 40.4773 1.32596 34.2426C2.20901 28.6673 4.26079 23.3497 7.33814 18.6354C7.94192 17.7104 9.19724 17.5149 10.0909 18.1642L19.1518 24.7474C20.0455 25.3966 20.2359 26.6436 19.6608 27.5866C17.9775 30.3465 16.8465 33.4148 16.3388 36.6204C15.7266 40.4859 16.0379 44.4415 17.2473 48.1636C18.4567 51.8858 20.5298 55.2688 23.2972 58.0362C26.0646 60.8036 29.4477 62.8768 33.1699 64.0862C36.892 65.2956 40.8476 65.6069 44.7131 64.9947C48.5786 64.3824 52.2443 62.864 55.4106 60.5636C58.5768 58.2632 61.1537 55.2461 62.9305 51.759C64.4039 48.8671 65.2925 45.7201 65.5529 42.4979C65.6419 41.3969 66.5289 40.5 67.6335 40.5H78.8335Z" fill="#9658ED"/>
</g>
</svg>
